<svg width="152" height="30" viewBox="0 0 152 30" fill="none" xmlns="http://www.w3.org/2000/svg">
<g clip-path="url(#clip0_545_2107)">
<path fill-rule="evenodd" clip-rule="evenodd" d="M19.1668 8.76398C17.9334 7.93988 16.4834 7.5 15 7.5V0C17.9667 0 20.8668 0.879735 23.3335 2.52796C25.8003 4.17617 27.7229 6.51886 28.8582 9.25973C29.9935 12.0006 30.2906 15.0167 29.7118 17.9263C29.133 20.8361 27.7044 23.5088 25.6066 25.6066C23.5088 27.7044 20.8361 29.133 17.9263 29.7118C15.0167 30.2906 12.0006 29.9935 9.25973 28.8582C6.51885 27.7229 4.17617 25.8003 2.52796 23.3335C0.879735 20.8668 0 17.9667 0 15H7.5C7.5 16.4834 7.93988 17.9334 8.76398 19.1668C9.58807 20.4002 10.7594 21.3614 12.1299 21.9291C13.5003 22.4968 15.0083 22.6453 16.4632 22.3559C17.918 22.0665 19.2544 21.3522 20.3033 20.3033C21.3522 19.2544 22.0665 17.918 22.3559 16.4632C22.6453 15.0083 22.4968 13.5003 21.9291 12.1299C21.3614 10.7594 20.4002 9.58807 19.1668 8.76398Z" fill="#228B22"/>
<path fill-rule="evenodd" clip-rule="evenodd" d="M7.5 3.9637e-06C7.5 0.984918 7.30601 1.96019 6.9291 2.87013C6.55218 3.78007 5.99974 4.60686 5.3033 5.30331C4.60686 5.99975 3.78007 6.55219 2.87013 6.9291C1.96018 7.30601 0.984911 7.5 3.27832e-07 7.5L0 15C1.96983 15 3.92037 14.612 5.74026 13.8582C7.56015 13.1044 9.21375 11.9995 10.6066 10.6066C11.9995 9.21375 13.1044 7.56015 13.8582 5.74026C14.612 3.92037 15 1.96983 15 0L7.5 3.9637e-06Z" fill="#228B22"/>
<path d="M94.2142 10.8389H90.5752V22.3981H94.2142V10.8389Z" fill="#228B22"/>
<path d="M90.9801 8.67495C91.3604 9.0555 91.8359 9.24577 92.4066 9.24577C92.9774 9.24577 93.4454 9.0555 93.8099 8.67495C94.1751 8.27857 94.3574 7.80285 94.3574 7.24789C94.3574 6.67708 94.1751 6.20137 93.8099 5.82083C93.4454 5.44027 92.9774 5.25 92.4066 5.25C91.8359 5.25 91.3604 5.44027 90.9801 5.82083C90.6149 6.20137 90.4326 6.67708 90.4326 7.24789C90.4326 7.80285 90.6149 8.27857 90.9801 8.67495Z" fill="#228B22"/>
<path d="M38.3672 22.3983V5.60645H42.1014V19.1161H49.5459V22.3983H38.3672Z" fill="#228B22"/>
<path fill-rule="evenodd" clip-rule="evenodd" d="M56.2705 22.6606C55.0813 22.6606 54.0031 22.399 53.0358 21.8758C52.0844 21.3367 51.3313 20.6073 50.7763 19.6876C50.2213 18.7679 49.9438 17.7373 49.9438 16.5956C49.9438 15.4539 50.2213 14.4312 50.7763 13.5274C51.3313 12.6236 52.0844 11.9101 53.0358 11.3869C53.9872 10.8477 55.0654 10.5781 56.2705 10.5781C57.4756 10.5781 58.5538 10.8398 59.5051 11.363C60.4565 11.8863 61.2097 12.6078 61.7647 13.5274C62.3197 14.4312 62.5972 15.4539 62.5972 16.5956C62.5972 17.7373 62.3197 18.7679 61.7647 19.6876C61.2097 20.6073 60.4565 21.3367 59.5051 21.8758C58.5538 22.399 57.4756 22.6606 56.2705 22.6606ZM56.2705 19.3546C56.7937 19.3546 57.2536 19.2436 57.65 19.0216C58.0464 18.7838 58.3477 18.4587 58.5538 18.0465C58.7758 17.6184 58.8868 17.1347 58.8868 16.5956C58.8868 16.0565 58.7758 15.5887 58.5538 15.1923C58.3318 14.7801 58.0226 14.463 57.6262 14.241C57.2456 14.0031 56.7937 13.8842 56.2705 13.8842C55.7631 13.8842 55.3112 14.0031 54.9148 14.241C54.5184 14.463 54.2092 14.7801 53.9872 15.1923C53.7652 15.6046 53.6542 16.0803 53.6542 16.6194C53.6542 17.1427 53.7652 17.6184 53.9872 18.0465C54.2092 18.4587 54.5184 18.7838 54.9148 19.0216C55.3112 19.2436 55.7631 19.3546 56.2705 19.3546Z" fill="#228B22"/>
<path fill-rule="evenodd" clip-rule="evenodd" d="M65.4794 26.9176C66.4466 27.3615 67.5645 27.5835 68.8331 27.5835C70.0698 27.5835 71.1719 27.3378 72.1391 26.8462C73.1063 26.3547 73.8674 25.6729 74.4224 24.8008C74.9773 23.9287 75.2552 22.8981 75.2552 21.7088V10.8393H71.6871V11.616C71.4218 11.3926 71.1204 11.2051 70.7834 11.0534C70.1649 10.7521 69.4593 10.6014 68.6666 10.6014C67.6042 10.6014 66.6607 10.8552 65.8362 11.3625C65.0116 11.8541 64.3616 12.5359 63.8858 13.408C63.4101 14.2643 63.1724 15.2315 63.1724 16.3098C63.1724 17.3721 63.4101 18.3393 63.8858 19.2114C64.3616 20.0835 65.0116 20.7733 65.8362 21.2807C66.6607 21.7881 67.6042 22.0418 68.6666 22.0418C69.4435 22.0418 70.1491 21.8912 70.7834 21.5899C71.0906 21.444 71.3681 21.272 71.6158 21.0739V21.804C71.6158 22.6126 71.3542 23.2389 70.8309 23.6829C70.3235 24.1269 69.6179 24.3489 68.7141 24.3489C67.9847 24.3489 67.3584 24.222 66.8351 23.9683C66.3278 23.7147 65.8679 23.342 65.4556 22.8504L63.2199 25.0862C63.7748 25.879 64.5281 26.4895 65.4794 26.9176ZM70.6644 18.4741C70.2997 18.6961 69.8637 18.8071 69.3563 18.8071C68.8489 18.8071 68.4049 18.6961 68.0243 18.4741C67.6596 18.2521 67.3742 17.9508 67.1681 17.5703C66.962 17.1739 66.8589 16.7537 66.8589 16.3098C66.8589 15.834 66.962 15.4059 67.1681 15.0254C67.3742 14.6448 67.6676 14.3436 68.0481 14.1216C68.4287 13.8996 68.8647 13.7886 69.3563 13.7886C69.8637 13.7886 70.2997 13.8996 70.6644 14.1216C71.045 14.3436 71.3303 14.6448 71.5207 15.0254C71.7268 15.4059 71.8298 15.834 71.8298 16.3098C71.8298 16.7854 71.7268 17.2135 71.5207 17.5941C71.3303 17.9588 71.045 18.2521 70.6644 18.4741Z" fill="#228B22"/>
<path fill-rule="evenodd" clip-rule="evenodd" d="M82.9129 22.6606C81.7234 22.6606 80.6449 22.399 79.6782 21.8758C78.7264 21.3367 77.9734 20.6073 77.4184 19.6876C76.8634 18.7679 76.5859 17.7373 76.5859 16.5956C76.5859 15.4539 76.8634 14.4312 77.4184 13.5274C77.9734 12.6236 78.7264 11.9101 79.6782 11.3869C80.6292 10.8477 81.7077 10.5781 82.9129 10.5781C84.1174 10.5781 85.1959 10.8398 86.1469 11.363C87.0987 11.8863 87.8517 12.6078 88.4067 13.5274C88.9617 14.4312 89.2392 15.4539 89.2392 16.5956C89.2392 17.7373 88.9617 18.7679 88.4067 19.6876C87.8517 20.6073 87.0987 21.3367 86.1469 21.8758C85.1959 22.399 84.1174 22.6606 82.9129 22.6606ZM82.9129 19.3546C83.4357 19.3546 83.8954 19.2436 84.2922 19.0216C84.6882 18.7838 84.9897 18.4587 85.1959 18.0465C85.4179 17.6184 85.5289 17.1347 85.5289 16.5956C85.5289 16.0565 85.4179 15.5887 85.1959 15.1923C84.9739 14.7801 84.6649 14.463 84.2682 14.241C83.8879 14.0031 83.4357 13.8842 82.9129 13.8842C82.4052 13.8842 81.9529 14.0031 81.5569 14.241C81.1602 14.463 80.8512 14.7801 80.6292 15.1923C80.4072 15.6046 80.2962 16.0803 80.2962 16.6194C80.2962 17.1427 80.4072 17.6184 80.6292 18.0465C80.8512 18.4587 81.1602 18.7838 81.5569 19.0216C81.9529 19.2436 82.4052 19.3546 82.9129 19.3546Z" fill="#228B22"/>
<path fill-rule="evenodd" clip-rule="evenodd" d="M102.961 22.6364C102.184 22.6364 101.47 22.4858 100.82 22.1845C100.478 22.026 100.169 21.8367 99.893 21.6166V27.2744H96.3013V10.8393H99.9403V11.6371C100.204 11.4212 100.498 11.2345 100.82 11.0772C101.47 10.76 102.184 10.6014 102.961 10.6014C104.055 10.6014 105.022 10.8631 105.862 11.3864C106.719 11.9096 107.385 12.6231 107.86 13.527C108.352 14.4308 108.598 15.4614 108.598 16.6189C108.598 17.7765 108.352 18.8071 107.86 19.7109C107.385 20.6148 106.719 21.3282 105.862 21.8515C105.022 22.3748 104.055 22.6364 102.961 22.6364ZM102.295 19.3542C102.818 19.3542 103.27 19.2352 103.651 18.9974C104.047 18.7596 104.356 18.4344 104.578 18.0222C104.8 17.61 104.911 17.1422 104.911 16.6189C104.911 16.0798 104.8 15.6042 104.578 15.1919C104.356 14.7796 104.047 14.4625 103.651 14.2405C103.27 14.0026 102.826 13.8837 102.319 13.8837C101.812 13.8837 101.359 14.0026 100.963 14.2405C100.582 14.4625 100.282 14.7796 100.06 15.1919C99.8375 15.6042 99.7265 16.0798 99.7265 16.6189C99.7265 17.1422 99.8293 17.61 100.036 18.0222C100.258 18.4344 100.567 18.7596 100.963 18.9974C101.359 19.2352 101.803 19.3542 102.295 19.3542Z" fill="#228B22"/>
<path d="M112.16 22.4228C112.826 22.5973 113.499 22.6844 114.181 22.6844C115.624 22.6844 116.765 22.3515 117.606 21.6855C118.462 21.0196 118.89 20.1237 118.89 18.9979C118.89 18.2685 118.756 17.6818 118.486 17.2379C118.217 16.778 117.868 16.4133 117.44 16.1438C117.011 15.8742 116.559 15.6601 116.084 15.5015C115.608 15.343 115.156 15.2082 114.728 15.0972C114.3 14.9862 113.951 14.8594 113.681 14.7167C113.412 14.5739 113.277 14.3837 113.277 14.1458C113.277 13.9238 113.381 13.7573 113.586 13.6463C113.792 13.5195 114.101 13.4561 114.514 13.4561C114.942 13.4561 115.378 13.5433 115.822 13.7177C116.282 13.8921 116.694 14.1935 117.059 14.6216L119.128 12.5285C118.605 11.8625 117.923 11.363 117.083 11.0301C116.258 10.6813 115.355 10.5068 114.371 10.5068C113.436 10.5068 112.619 10.6654 111.922 10.9825C111.224 11.2997 110.684 11.7357 110.304 12.2906C109.924 12.8297 109.733 13.472 109.733 14.2172C109.733 14.9149 109.868 15.4937 110.138 15.9535C110.407 16.3974 110.756 16.7463 111.184 17C111.612 17.2537 112.064 17.4519 112.54 17.5946C113.015 17.7373 113.468 17.8721 113.896 17.999C114.323 18.11 114.673 18.2447 114.942 18.4033C115.228 18.546 115.37 18.7601 115.37 19.0454C115.37 19.2674 115.251 19.4418 115.013 19.5687C114.791 19.6955 114.467 19.759 114.038 19.759C113.42 19.759 112.849 19.648 112.326 19.426C111.803 19.1882 111.35 18.8631 110.97 18.4508L108.901 20.5439C109.298 20.972 109.773 21.3526 110.328 21.6855C110.899 22.0026 111.509 22.2484 112.16 22.4228Z" fill="#228B22"/>
<path d="M125.526 22.6597C124.464 22.6597 123.521 22.4456 122.696 22.0175C121.887 21.5735 121.253 20.971 120.794 20.2099C120.333 19.433 120.104 18.545 120.104 17.546V10.8389H123.743V17.4985C123.743 17.8949 123.806 18.2358 123.933 18.5212C124.076 18.8066 124.282 19.0286 124.551 19.1872C124.821 19.3457 125.146 19.425 125.526 19.425C126.065 19.425 126.494 19.2585 126.811 18.9255C127.128 18.5767 127.286 18.101 127.286 17.4985V10.8389H130.925V17.5223C130.925 18.5371 130.696 19.433 130.235 20.2099C129.776 20.971 129.142 21.5735 128.333 22.0175C127.524 22.4456 126.589 22.6597 125.526 22.6597Z" fill="#228B22"/>
<path d="M136.373 10.8393H132.734V22.3986H136.373V15.6438C136.373 15.2474 136.453 14.9144 136.611 14.6448C136.786 14.3753 137.016 14.1691 137.301 14.0265C137.587 13.8678 137.912 13.7886 138.276 13.7886C138.8 13.7886 139.235 13.9551 139.584 14.2881C139.949 14.6052 140.132 15.0571 140.132 15.6438V22.3986H143.771V15.6438C143.771 15.2474 143.85 14.9144 144.008 14.6448C144.183 14.3753 144.413 14.1691 144.698 14.0265C144.983 13.8678 145.309 13.7886 145.673 13.7886C146.197 13.7886 146.633 13.9551 146.981 14.2881C147.346 14.6052 147.528 15.0571 147.528 15.6438V22.3986H151.168V15.2394C151.168 14.2722 150.962 13.4477 150.549 12.7659C150.152 12.0681 149.606 11.537 148.908 11.1723C148.226 10.7917 147.441 10.6014 146.553 10.6014C145.649 10.6014 144.833 10.7997 144.104 11.1961C143.63 11.4486 143.216 11.7746 142.861 12.1739C142.53 11.7562 142.128 11.4144 141.653 11.1485C141.02 10.7838 140.298 10.6014 139.49 10.6014C138.633 10.6014 137.864 10.7838 137.183 11.1485C136.886 11.3002 136.616 11.4819 136.373 11.6937V10.8393Z" fill="#228B22"/>
</g>
<defs>
<clipPath id="clip0_545_2107">
<rect width="151.5" height="30" fill="white"/>
</clipPath>
</defs>
</svg>
