<svg width="246" height="164" viewBox="0 0 246 164" fill="none" xmlns="http://www.w3.org/2000/svg">
<rect x="0.0317383" y="0.317505" width="245.317" height="163.254" rx="8.83287" fill="white"/>
<path d="M193.57 52.0261H214.527C214.527 52.0261 212.674 48.6528 207.278 49.1455C202.127 49.6152 201.866 47.4849 199.247 47.2239C196.627 46.963 194.441 48.9693 193.57 52.0261Z" fill="#F5F5F5"/>
<path d="M112.152 29.2484H148.338C148.338 29.2484 145.137 23.4252 135.823 24.2734C126.927 25.089 126.474 21.4188 121.952 20.9621C117.43 20.5054 113.675 23.9798 112.152 29.2484Z" fill="#EBEBEB"/>
<path d="M183.256 32.1586C184.735 30.8394 184.865 28.571 183.545 27.0919C182.226 25.6128 179.958 25.4832 178.479 26.8024C177 28.1216 176.87 30.3901 178.189 31.8692C179.508 33.3482 181.777 33.4778 183.256 32.1586Z" fill="#EBEBEB"/>
<path d="M180.834 36.4745C180.763 35.7832 180.739 35.0878 180.762 34.3931C180.739 33.6985 180.763 33.0031 180.834 32.3118C180.905 33.0031 180.929 33.6985 180.906 34.3931C180.929 35.0878 180.905 35.7832 180.834 36.4745Z" fill="#EBEBEB"/>
<path d="M187.642 29.4768C186.199 29.5725 184.75 29.5725 183.307 29.4768C184.75 29.3811 186.199 29.3811 187.642 29.4768Z" fill="#EBEBEB"/>
<path d="M180.88 23.4023C180.951 24.0358 180.975 24.6738 180.951 25.3108C180.975 25.9468 180.951 26.5836 180.88 27.216C180.808 26.5836 180.784 25.9468 180.808 25.3108C180.784 24.6738 180.808 24.0358 180.88 23.4023Z" fill="#EBEBEB"/>
<path d="M178.945 29.7346C177.413 29.8303 175.877 29.8303 174.345 29.7346C175.877 29.6389 177.413 29.6389 178.945 29.7346Z" fill="#EBEBEB"/>
<path d="M179.248 28.3286C178.782 27.9676 178.346 27.5694 177.943 27.1378C177.511 26.7368 177.113 26.3003 176.753 25.8329C177.219 26.1939 177.656 26.5921 178.058 27.0236C178.489 27.4257 178.887 27.8621 179.248 28.3286Z" fill="#EBEBEB"/>
<path d="M184.68 25.8882C184.414 26.2619 184.109 26.6064 183.77 26.9158C183.464 27.2607 183.123 27.5723 182.752 27.8456C183.021 27.4716 183.327 27.1262 183.666 26.8147C183.971 26.4719 184.311 26.1614 184.68 25.8882Z" fill="#EBEBEB"/>
<path d="M184.938 33.5873C184.489 33.2384 184.068 32.8532 183.682 32.4357C183.262 32.0513 182.877 31.631 182.53 31.1797C182.982 31.5263 183.402 31.9116 183.786 32.3313C184.205 32.7167 184.59 33.1369 184.938 33.5873Z" fill="#EBEBEB"/>
<path d="M180.081 30.9124C179.602 31.4934 179.088 32.0436 178.541 32.5598C178.028 33.1065 177.484 33.6218 176.91 34.1029C177.385 33.5261 177.899 32.9811 178.446 32.4718C178.959 31.9191 179.504 31.3983 180.081 30.9124Z" fill="#EBEBEB"/>
<path d="M48.8657 57.3242H66.4824C66.4824 57.3242 64.923 54.4892 60.385 54.9002C56.0527 55.295 55.8178 53.5072 53.6287 53.2854C51.4397 53.0635 49.5997 54.7534 48.8657 57.3242Z" fill="#EBEBEB"/>
<path d="M189.176 144.761C189.176 144.761 189.153 144.791 189.101 144.836L188.869 145.039C188.761 145.123 188.624 145.218 188.461 145.332C188.267 145.453 188.065 145.562 187.858 145.659C187.286 145.924 186.68 146.107 186.057 146.203C185.233 146.328 184.397 146.352 183.568 146.275C182.566 146.174 181.574 145.996 180.599 145.743C179.545 145.492 178.43 145.189 177.236 144.983C175.989 144.754 174.712 144.731 173.458 144.915C172.113 145.135 170.785 145.449 169.484 145.854C168.175 146.261 166.839 146.572 165.485 146.787C164.212 146.963 162.92 146.931 161.658 146.693C160.525 146.476 159.403 146.202 158.298 145.871C157.257 145.57 156.288 145.3 155.391 145.097C154.587 144.913 153.77 144.793 152.948 144.739C152.582 144.739 152.243 144.739 151.933 144.755C151.65 144.774 151.368 144.808 151.088 144.856L150.436 145L149.962 145.163L149.672 145.261C149.638 145.273 149.603 145.283 149.568 145.29C149.598 145.271 149.631 145.255 149.666 145.244L149.949 145.13C150.077 145.081 150.233 145.016 150.422 144.951L151.075 144.791C151.356 144.736 151.641 144.697 151.926 144.673C152.253 144.634 152.579 144.657 152.951 144.644C153.78 144.685 154.605 144.794 155.417 144.97C156.318 145.166 157.293 145.43 158.334 145.724C159.437 146.05 160.556 146.318 161.687 146.526C162.933 146.759 164.207 146.789 165.462 146.614C166.808 146.398 168.137 146.086 169.439 145.681C170.747 145.273 172.082 144.958 173.435 144.739C174.706 144.556 175.999 144.583 177.262 144.82C178.466 145.029 179.581 145.339 180.632 145.597C181.595 145.854 182.577 146.038 183.568 146.148C184.389 146.23 185.217 146.214 186.034 146.099C186.649 146.011 187.25 145.839 187.819 145.59C188.305 145.373 188.761 145.095 189.176 144.761Z" fill="#E0E0E0"/>
<path d="M65.9246 149.997C65.9021 150.024 65.877 150.048 65.8495 150.069L65.6179 150.275C65.5113 150.357 65.3743 150.455 65.2068 150.568C64.4761 151.024 63.6583 151.322 62.8058 151.443C61.982 151.567 61.1462 151.592 60.3166 151.514C59.3148 151.412 58.3223 151.233 57.3479 150.979C56.2941 150.728 55.1784 150.425 53.9811 150.223C52.7354 149.992 51.4602 149.968 50.2066 150.151C48.8622 150.373 47.5346 150.687 46.2331 151.09C44.9229 151.498 43.5852 151.811 42.2302 152.027C40.9577 152.201 39.6653 152.168 38.4035 151.929C37.2698 151.714 36.1481 151.439 35.0433 151.107C34.0026 150.81 33.0337 150.536 32.1365 150.337C31.3323 150.149 30.5139 150.029 29.6898 149.978C29.3276 149.978 28.9884 149.958 28.6784 149.978C28.3951 149.998 28.1131 150.032 27.8335 150.082L27.181 150.226L26.708 150.386L26.4144 150.487C26.3818 150.5 26.3479 150.508 26.3132 150.513L26.4078 150.471L26.6949 150.356C26.8222 150.307 26.9787 150.242 27.1647 150.177L27.8172 150.017C28.0984 149.961 28.3827 149.922 28.6686 149.9C28.9949 149.86 29.3211 149.88 29.693 149.87C30.5229 149.908 31.3481 150.017 32.1593 150.196C33.0597 150.389 34.0352 150.656 35.0759 150.95C36.1166 151.244 37.2323 151.547 38.4263 151.753C39.6728 151.984 40.9485 152.013 42.2041 151.837C43.5515 151.631 44.8826 151.329 46.1874 150.934C47.4956 150.526 48.8311 150.213 50.1838 149.994C51.4539 149.81 52.7457 149.837 54.0072 150.073C55.2143 150.285 56.33 150.594 57.3805 150.849C58.3438 151.107 59.3254 151.291 60.3166 151.4C61.1365 151.483 61.9634 151.468 62.7797 151.355C63.396 151.266 63.9975 151.093 64.5674 150.842C65.0542 150.62 65.5103 150.336 65.9246 149.997Z" fill="#E0E0E0"/>
<path d="M122.35 146.298C122.35 146.298 122.154 146.119 121.75 145.867C121.169 145.531 120.523 145.325 119.854 145.264C118.863 145.177 117.863 145.252 116.895 145.486C115.796 145.711 114.589 146.066 113.268 146.138C111.946 146.21 110.717 145.835 109.627 145.57C109.113 145.431 108.591 145.322 108.064 145.244C107.606 145.186 107.144 145.179 106.684 145.225C106.016 145.275 105.372 145.5 104.818 145.877C104.625 146.029 104.441 146.193 104.27 146.37C104.406 146.16 104.579 145.975 104.779 145.825C105.332 145.416 105.986 145.167 106.671 145.104C107.139 145.05 107.612 145.05 108.081 145.104C108.615 145.171 109.144 145.273 109.666 145.407C110.762 145.668 111.966 146.037 113.255 145.959C114.543 145.88 115.747 145.544 116.843 145.326C117.827 145.096 118.843 145.033 119.848 145.137C120.529 145.209 121.184 145.438 121.763 145.805C121.918 145.906 122.062 146.022 122.193 146.151C122.251 146.194 122.303 146.243 122.35 146.298Z" fill="#E0E0E0"/>
<path d="M192.507 81.4135H191.867V104.618H192.507V81.4135Z" fill="#E0E0E0"/>
<path d="M194.04 81.4135H193.401V104.618H194.04V81.4135Z" fill="#E0E0E0"/>
<path d="M199.886 81.4135H199.247V104.618H199.886V81.4135Z" fill="#E0E0E0"/>
<path d="M186.507 81.4135H185.868V104.618H186.507V81.4135Z" fill="#E0E0E0"/>
<path d="M192.503 81.4135H185.868V82.0692H192.503V81.4135Z" fill="#E0E0E0"/>
<path d="M207.663 82.9922H162.33V83.749H207.663V82.9922Z" fill="#E0E0E0"/>
<path d="M199.886 93.0142H186.188V93.7221H199.886V93.0142Z" fill="#E0E0E0"/>
<path d="M199.697 84.1298L199.214 83.8318L193.514 93.0721L193.997 93.3701L199.697 84.1298Z" fill="#E0E0E0"/>
<path d="M192.368 83.8525L191.885 83.5544L186.185 92.7947L186.668 93.0928L192.368 83.8525Z" fill="#E0E0E0"/>
<path d="M202.972 79.7822H192.807V82.9956H202.972V79.7822Z" fill="#E0E0E0"/>
<path d="M172.786 83.4686L188.81 71.2022L194.516 80.738L194.732 80.6108L188.879 70.8368L188.768 70.9216L172.636 83.2728L172.786 83.4686Z" fill="#E0E0E0"/>
<path d="M185.714 83.4848L188.836 70.5236L192.523 83.997L185.714 83.4848ZM186.024 83.2597L192.193 83.7295L188.853 71.5218L186.024 83.2597Z" fill="#E0E0E0"/>
<path d="M221.9 104.119H152.99V108.341H221.9V104.119Z" fill="#E0E0E0"/>
<path d="M170.574 95.4739H177.291V104.253H170.574V95.4739ZM177.033 95.7218H170.835V104.005H177.033V95.7218Z" fill="#E0E0E0"/>
<path d="M182.527 95.588H177.157V104.618H182.527V95.588Z" fill="#E0E0E0"/>
<path d="M137.057 98.9875H138.172V58.4334H137.057V98.9875Z" fill="#E0E0E0"/>
<path d="M134.372 98.9875H135.488V58.4334H134.372V98.9875Z" fill="#E0E0E0"/>
<path d="M124.157 98.9875H125.273V58.4334H124.157V98.9875Z" fill="#E0E0E0"/>
<path d="M147.538 98.9875H148.654V58.4334H147.538V98.9875Z" fill="#E0E0E0"/>
<path d="M137.057 59.5785H148.654V58.4334H137.057V59.5785Z" fill="#E0E0E0"/>
<path d="M110.563 62.5145L189.789 62.5145V61.1933L110.563 61.1933V62.5145Z" fill="#E0E0E0"/>
<path d="M124.157 79.9453H148.096V78.7121H124.157V79.9453Z" fill="#E0E0E0"/>
<path d="M134.447 79.3279L135.294 78.8055L125.332 62.6572L124.486 63.1796L134.447 79.3279Z" fill="#E0E0E0"/>
<path d="M147.127 79.6475L147.973 79.1201L137.917 62.9924L137.071 63.5198L147.127 79.6475Z" fill="#E0E0E0"/>
<path d="M118.765 61.1932H136.531V55.5788H118.765V61.1932Z" fill="#E0E0E0"/>
<path d="M171.517 62.0284L143.516 40.5883L133.537 57.2523L133.168 57.0305L143.392 39.9521L143.585 40.099L171.781 61.6859L171.517 62.0284Z" fill="#E0E0E0"/>
<path d="M137.024 62.9484L143.467 39.4041L148.925 62.0512L137.024 62.9484ZM143.441 41.1364L137.601 62.4721L148.384 61.6597L143.441 41.1364Z" fill="#E0E0E0"/>
<path d="M61.7839 94.146C61.7839 94.146 61.5523 94.0285 61.1315 93.8197C60.5579 93.5121 59.9293 93.3203 59.2817 93.2554C58.8323 93.2424 58.3828 93.2773 57.9409 93.3597C57.4581 93.4348 56.9622 93.5261 56.4109 93.6501C55.3441 93.8785 54.1631 94.208 52.8745 94.2308C51.5859 94.2536 50.4016 93.8687 49.3414 93.6175C48.8404 93.4875 48.3315 93.3905 47.8179 93.3271C47.3723 93.2781 46.9226 93.2781 46.477 93.3271C45.8286 93.3859 45.2062 93.6106 44.6697 93.9796C44.4835 94.1281 44.3059 94.2871 44.1379 94.4559C44.1665 94.401 44.2028 94.3505 44.2456 94.3058C44.3572 94.1637 44.4865 94.0365 44.6306 93.9274C45.1633 93.5233 45.7959 93.2718 46.4607 93.1999C46.9161 93.1394 47.377 93.1317 47.8342 93.1771C48.3543 93.2335 48.87 93.3262 49.3773 93.4544C50.4473 93.7023 51.612 94.0742 52.8712 94.0514C54.1305 94.0285 55.3049 93.7088 56.3782 93.487C56.9165 93.3695 57.4352 93.2815 57.9213 93.2097C58.3725 93.1313 58.8309 93.1029 59.2882 93.1249C59.9493 93.2009 60.5871 93.4143 61.1608 93.7512C61.3664 93.8654 61.5197 93.9568 61.6241 94.0253C61.6833 94.057 61.7372 94.0977 61.7839 94.146Z" fill="#263238"/>
<path d="M222.539 81.3773C222.539 81.3773 222.343 81.1946 221.939 80.9467C221.361 80.6072 220.714 80.4 220.047 80.3399C219.055 80.2531 218.055 80.3292 217.088 80.565C215.985 80.7868 214.781 81.1424 213.46 81.2174C212.139 81.2925 210.906 80.9141 209.819 80.6465C209.304 80.5068 208.781 80.3979 208.253 80.3203C207.795 80.2647 207.332 80.2592 206.873 80.304C206.206 80.3529 205.563 80.578 205.01 80.9565C204.822 81.1162 204.642 81.2861 204.472 81.4654C204.61 81.2565 204.783 81.0733 204.984 80.9238C205.535 80.5122 206.189 80.2615 206.873 80.1996C207.341 80.1457 207.814 80.1457 208.283 80.1996C208.817 80.2675 209.346 80.3677 209.868 80.4997C210.964 80.7607 212.152 81.1294 213.457 81.0543C214.762 80.9793 215.952 80.6368 217.062 80.4214C218.045 80.1889 219.061 80.1249 220.066 80.2322C220.748 80.3029 221.404 80.5319 221.981 80.901C222.137 81.0009 222.282 81.1156 222.415 81.2436C222.5 81.3251 222.546 81.3708 222.539 81.3773Z" fill="#263238"/>
<path d="M41.8313 84.5873C41.8313 84.6036 41.6356 84.4079 41.2311 84.1567C40.6519 83.8199 40.0061 83.6139 39.3389 83.5531C38.3471 83.4666 37.3478 83.5415 36.38 83.775C35.2773 84.0001 34.0702 84.3557 32.7522 84.4274C31.4343 84.4992 30.1978 84.124 29.1082 83.8598C28.5943 83.7201 28.0725 83.6112 27.5456 83.5335C27.0878 83.4753 26.6249 83.4687 26.1656 83.514C25.4972 83.5644 24.8537 83.7894 24.2995 84.1664C24.1021 84.3219 23.9147 84.4897 23.7384 84.6688C23.8746 84.4587 24.0469 84.2743 24.2473 84.124C24.8002 83.7151 25.4547 83.4657 26.1395 83.4031C26.6077 83.349 27.0806 83.349 27.5488 83.4031C28.0832 83.4705 28.6128 83.5719 29.1343 83.7065C30.2305 83.9674 31.418 84.3361 32.7229 84.2578C34.0278 84.1795 35.2153 83.8435 36.3278 83.6249C37.3119 83.3955 38.3273 83.3316 39.3324 83.4357C40.0138 83.5079 40.6692 83.7368 41.2474 84.1045C41.4031 84.205 41.5485 84.3209 41.6813 84.4503C41.7357 84.4909 41.786 84.5368 41.8313 84.5873Z" fill="#263238"/>
<path d="M208.586 94.8637C208.491 94.8474 208.399 94.8234 208.308 94.792C208.126 94.743 207.861 94.6582 207.522 94.5505C206.84 94.3352 205.868 93.9764 204.638 93.6338C203.97 93.4462 203.288 93.3099 202.599 93.226C201.81 93.1332 201.013 93.1332 200.224 93.226C198.551 93.4087 196.753 93.9209 194.809 94.1688C193.861 94.3026 192.899 94.3026 191.951 94.1688C191.034 94.0449 190.163 93.8589 189.341 93.686C187.694 93.3304 186.186 93.0825 184.914 93.1477C183.908 93.1703 182.918 93.3991 182.004 93.8198C181.76 93.9429 181.524 94.0801 181.296 94.2308C181.22 94.2902 181.139 94.3436 181.055 94.3907C181.332 94.1405 181.641 93.9288 181.975 93.7611C182.89 93.3105 183.891 93.0602 184.911 93.027C186.216 92.9455 187.726 93.1869 189.377 93.5327C191.028 93.8785 192.864 94.2993 194.799 93.9992C196.724 93.7513 198.525 93.2456 200.215 93.0662C201.015 92.9714 201.825 92.9714 202.625 93.0662C203.32 93.1582 204.007 93.3021 204.681 93.4968C205.911 93.8589 206.876 94.2341 207.552 94.4755L208.328 94.7463C208.418 94.7767 208.504 94.816 208.586 94.8637Z" fill="#263238"/>
<path d="M187.081 123.148H61.0833V130.867H187.081V123.148Z" fill="#263238" fill-opacity="0.07"/>
<path d="M105.438 123.311H93.3022V107.391H105.438V123.311ZM93.6285 122.985H105.112V107.717H93.6285V122.985Z" fill="#263238" fill-opacity="0.07"/>
<path d="M115.095 107.554H105.275V124.065H115.095V107.554Z" fill="#263238" fill-opacity="0.07"/>
<path d="M133.338 63.7606H132.17V124.241H133.338V63.7606Z" fill="#263238" fill-opacity="0.07"/>
<path d="M136.143 63.7606H134.975V124.241H136.143V63.7606Z" fill="#263238" fill-opacity="0.07"/>
<path d="M146.834 63.7606H145.666V124.241H146.834V63.7606Z" fill="#263238" fill-opacity="0.07"/>
<path d="M122.37 63.7606H121.202V124.241H122.37V63.7606Z" fill="#263238" fill-opacity="0.07"/>
<path d="M133.335 63.7606H121.202V64.9612H133.335V63.7606Z" fill="#263238"/>
<path d="M161.055 66.6509H78.165V68.0309H161.055V66.6509Z" fill="#263238"/>
<path d="M146.834 84.9756H121.786V86.2675H146.834V84.9756Z" fill="#263238"/>
<path d="M146.496 68.7218L145.61 68.1754L135.188 85.0706L136.073 85.617L146.496 68.7218Z" fill="#263238"/>
<path d="M133.069 68.2336L132.183 67.6873L121.761 84.5825L122.647 85.1288L133.069 68.2336Z" fill="#263238"/>
<path d="M152.475 60.7754H133.886V66.6509H152.475V60.7754Z" fill="#263238"/>
<path d="M97.2433 67.4698L97.0443 67.2121L126.689 44.516L137.351 62.3251L137.073 62.4947L126.598 44.9988L97.2433 67.4698Z" fill="#263238"/>
<path d="M133.289 68.4158L120.999 67.4893L126.633 44.1016L133.289 68.4158ZM121.394 67.1924L132.838 68.0537L126.64 45.413L121.394 67.1924Z" fill="#263238"/>
<path d="M72.557 90.3094L73.5455 84.9461L79.6526 66.5987L79.9625 66.7031L73.8587 85.0277L72.9485 89.9766L93.237 89.621L85.2932 66.7031L85.6031 66.5955L93.6937 89.9375L72.557 90.3094Z" fill="#263238"/>
<path d="M75.4376 85.2855H67.5068V94.9192H75.4376V85.2855Z" fill="#263238"/>
<path d="M97.6184 85.2855H75.441V94.9192H97.6184V85.2855Z" fill="#263238"/>
<path d="M71.6404 94.9191C71.5914 94.9191 71.5555 92.779 71.5555 90.143C71.5555 87.507 71.5914 85.3669 71.6404 85.3669C71.6893 85.3669 71.7252 87.5038 71.7252 90.143C71.7252 92.7822 71.686 94.9191 71.6404 94.9191Z" fill="#455A64"/>
<path d="M75.4409 94.9191C75.3952 94.9191 75.3561 92.779 75.3561 90.143C75.3561 87.507 75.3952 85.3669 75.4409 85.3669C75.4866 85.3669 75.5257 87.5038 75.5257 90.143C75.5257 92.7822 75.4866 94.9191 75.4409 94.9191Z" fill="#455A64"/>
<path d="M96.3722 93.8197C96.3722 93.8197 96.3722 93.7708 96.3722 93.686C96.3722 93.6012 96.3722 93.4641 96.3722 93.301C96.3722 92.9585 96.3722 92.4691 96.3559 91.8395C96.3559 90.5672 96.3396 88.7338 96.3265 86.4469L96.382 86.5056L76.3969 86.5317C76.3186 86.61 76.498 86.4305 76.4817 86.4501V88.3553C76.4817 88.9882 76.4817 89.6113 76.4817 90.2279V93.8165L76.3741 93.7512L90.6729 93.7904L94.8422 93.8132H95.9644H96.258C96.2917 93.8105 96.3255 93.8105 96.3592 93.8132H96.2743H95.9905H94.8878L90.7349 93.8361L76.3806 93.8752H76.2958V88.3292C76.2958 88.003 76.2958 87.6963 76.2958 87.3766V86.424L76.3839 86.3359L96.3689 86.3653H96.4277V86.4208C96.4277 88.7044 96.4048 90.5672 96.395 91.8493C96.395 92.4724 96.395 92.9585 96.395 93.2978C96.395 93.4544 96.395 93.5783 96.395 93.6697C96.3948 93.7205 96.3871 93.7711 96.3722 93.8197Z" fill="#455A64"/>
<path d="M77.93 93.8198C77.8811 93.8198 77.8452 92.169 77.8452 90.1333C77.8452 88.0976 77.8811 86.4469 77.93 86.4469C77.979 86.4469 78.0149 88.0976 78.0149 90.1333C78.0149 92.169 77.9757 93.8198 77.93 93.8198Z" fill="#455A64"/>
<path d="M79.8091 93.8198C79.7601 93.8198 79.7242 92.169 79.7242 90.1333C79.7242 88.0976 79.7601 86.4469 79.8091 86.4469C79.858 86.4469 79.8939 88.0976 79.8939 90.1333C79.8939 92.169 79.8547 93.8198 79.8091 93.8198Z" fill="#455A64"/>
<path d="M81.6882 93.8198C81.6425 93.8198 81.6034 92.169 81.6034 90.1333C81.6034 88.0976 81.6425 86.4469 81.6882 86.4469C81.7339 86.4469 81.773 88.0976 81.773 90.1333C81.773 92.169 81.7339 93.8198 81.6882 93.8198Z" fill="#455A64"/>
<path d="M83.5675 93.8198C83.5218 93.8198 83.4827 92.169 83.4827 90.1333C83.4827 88.0976 83.5218 86.4469 83.5675 86.4469C83.6132 86.4469 83.6523 88.0976 83.6523 90.1333C83.6523 92.169 83.6164 93.8198 83.5675 93.8198Z" fill="#455A64"/>
<path d="M85.4466 93.8198C85.401 93.8198 85.3618 92.169 85.3618 90.1333C85.3618 88.0976 85.401 86.4469 85.4466 86.4469C85.4923 86.4469 85.5315 88.0976 85.5315 90.1333C85.5315 92.169 85.5086 93.8198 85.4466 93.8198Z" fill="#455A64"/>
<path d="M87.3288 93.8198C87.2799 93.8198 87.2407 92.169 87.2407 90.1333C87.2407 88.0976 87.2799 86.4469 87.3288 86.4469C87.3777 86.4469 87.4136 88.0976 87.4136 90.1333C87.4136 92.169 87.3745 93.8198 87.3288 93.8198Z" fill="#455A64"/>
<path d="M89.208 93.8198C89.1591 93.8198 89.1232 92.169 89.1232 90.1333C89.1232 88.0976 89.1591 86.4469 89.208 86.4469C89.2569 86.4469 89.2928 88.0976 89.2928 90.1333C89.2928 92.169 89.2537 93.8198 89.208 93.8198Z" fill="#455A64"/>
<path d="M91.0871 93.8198C91.0382 93.8198 91.0023 92.169 91.0023 90.1333C91.0023 88.0976 91.0382 86.4469 91.0871 86.4469C91.1361 86.4469 91.172 88.0976 91.172 90.1333C91.172 92.169 91.1328 93.8198 91.0871 93.8198Z" fill="#455A64"/>
<path d="M92.9663 93.8198C92.9206 93.8198 92.8815 92.169 92.8815 90.1333C92.8815 88.0976 92.9206 86.4469 92.9663 86.4469C93.012 86.4469 93.0511 88.0976 93.0511 90.1333C93.0511 92.169 93.012 93.8198 92.9663 93.8198Z" fill="#455A64"/>
<path d="M94.8452 93.8198C94.7995 93.8198 94.7604 92.169 94.7604 90.1333C94.7604 88.0976 94.7995 86.4469 94.8452 86.4469C94.8909 86.4469 94.93 88.0976 94.93 90.1333C94.93 92.169 94.8941 93.8198 94.8452 93.8198Z" fill="#455A64"/>
<path d="M176.315 73.4279H173.059V67.8689H175.359L176.315 73.4279Z" fill="#437EF7"/>
<path d="M107.466 76.1912H99.5355V85.8248H107.466V76.1912Z" fill="#437EF7"/>
<path opacity="0.4" d="M107.466 76.1912H99.5355V85.8248H107.466V76.1912Z" fill="white"/>
<path d="M129.647 76.1912H107.469V85.8248H129.647V76.1912Z" fill="#437EF7"/>
<path opacity="0.2" d="M129.647 76.1912H107.469V85.8248H129.647V76.1912Z" fill="white"/>
<path d="M103.666 85.825C103.62 85.825 103.581 83.6849 103.581 81.0489C103.581 78.413 103.62 76.2761 103.666 76.2761C103.711 76.2761 103.751 78.413 103.751 81.0489C103.751 83.6849 103.715 85.825 103.666 85.825Z" fill="#263238"/>
<path d="M128.401 84.7255C128.398 84.681 128.398 84.6363 128.401 84.5918C128.401 84.4972 128.401 84.37 128.401 84.2101C128.401 83.8676 128.401 83.3749 128.401 82.7453C128.401 81.473 128.381 79.6396 128.368 77.3559L128.427 77.4114L108.442 77.4407C108.364 77.5158 108.543 77.3363 108.523 77.3559V81.137C108.523 82.3701 108.523 83.5707 108.523 84.7255L108.442 84.644L122.741 84.6799L126.913 84.7027H128.035H128.329H128.43H128.339H128.055H126.952L122.796 84.7255L108.442 84.7647H108.36V84.6831C108.36 83.5283 108.36 82.3277 108.36 81.0946V77.3559C108.341 77.3722 108.523 77.1928 108.448 77.2711L128.433 77.2972H128.492V77.3559C128.492 79.6396 128.466 81.4991 128.46 82.7812C128.46 83.4043 128.46 83.8904 128.46 84.2297C128.46 84.3895 128.46 84.5102 128.46 84.6016C128.443 84.6444 128.424 84.6859 128.401 84.7255Z" fill="#263238"/>
<path d="M109.956 84.7255C109.91 84.7255 109.871 83.0747 109.871 81.039C109.871 79.0033 109.91 77.3558 109.956 77.3558C110.001 77.3558 110.04 79.0033 110.04 81.039C110.04 83.0747 110.018 84.7255 109.956 84.7255Z" fill="#263238"/>
<path d="M111.838 84.7255C111.789 84.7255 111.75 83.0747 111.75 81.039C111.75 79.0033 111.789 77.3558 111.838 77.3558C111.887 77.3558 111.923 79.0033 111.923 81.039C111.923 83.0747 111.884 84.7255 111.838 84.7255Z" fill="#263238"/>
<path d="M113.717 84.7255C113.668 84.7255 113.632 83.0747 113.632 81.039C113.632 79.0033 113.668 77.3558 113.717 77.3558C113.766 77.3558 113.802 79.0033 113.802 81.039C113.802 83.0747 113.763 84.7255 113.717 84.7255Z" fill="#263238"/>
<path d="M115.596 84.7255C115.547 84.7255 115.511 83.0747 115.511 81.039C115.511 79.0033 115.547 77.3558 115.596 77.3558C115.645 77.3558 115.681 79.0033 115.681 81.039C115.681 83.0747 115.642 84.7255 115.596 84.7255Z" fill="#263238"/>
<path d="M117.475 84.7255C117.43 84.7255 117.39 83.0747 117.39 81.039C117.39 79.0033 117.43 77.3558 117.475 77.3558C117.521 77.3558 117.56 79.0033 117.56 81.039C117.56 83.0747 117.521 84.7255 117.475 84.7255Z" fill="#263238"/>
<path d="M119.354 84.7255C119.309 84.7255 119.269 83.0747 119.269 81.039C119.269 79.0033 119.309 77.3558 119.354 77.3558C119.4 77.3558 119.439 79.0033 119.439 81.039C119.439 83.0747 119.403 84.7255 119.354 84.7255Z" fill="#263238"/>
<path d="M121.233 84.7255C121.188 84.7255 121.149 83.0747 121.149 81.039C121.149 79.0033 121.188 77.3558 121.233 77.3558C121.279 77.3558 121.318 79.0033 121.318 81.039C121.318 83.0747 121.282 84.7255 121.233 84.7255Z" fill="#263238"/>
<path d="M123.116 84.7255C123.067 84.7255 123.031 83.0747 123.031 81.039C123.031 79.0033 123.067 77.3558 123.116 77.3558C123.165 77.3558 123.201 79.0033 123.201 81.039C123.201 83.0747 123.161 84.7255 123.116 84.7255Z" fill="#263238"/>
<path d="M124.995 84.7255C124.946 84.7255 124.91 83.0747 124.91 81.039C124.91 79.0033 124.946 77.3558 124.995 77.3558C125.044 77.3558 125.08 79.0033 125.08 81.039C125.08 83.0747 125.04 84.7255 124.995 84.7255Z" fill="#263238"/>
<path d="M126.874 84.7255C126.828 84.7255 126.789 83.0747 126.789 81.039C126.789 79.0033 126.828 77.3558 126.874 77.3558C126.92 77.3558 126.959 79.0033 126.959 81.039C126.959 83.0747 126.92 84.7255 126.874 84.7255Z" fill="#263238"/>
<path d="M133.673 56.9794H125.742V66.6131H133.673V56.9794Z" fill="#437EF7"/>
<path opacity="0.4" d="M133.673 56.9794H125.742V66.6131H133.673V56.9794Z" fill="white"/>
<path d="M155.85 56.9794H133.673V66.6131H155.85V56.9794Z" fill="#437EF7"/>
<path opacity="0.2" d="M155.85 56.9794H133.673V66.6131H155.85V56.9794Z" fill="white"/>
<path d="M129.872 66.6129C129.826 66.6129 129.787 64.4728 129.787 61.8369C129.787 59.2009 129.826 57.0608 129.872 57.0608C129.918 57.0608 129.957 59.2009 129.957 61.8369C129.957 64.4728 129.918 66.6129 129.872 66.6129Z" fill="#263238"/>
<path d="M154.607 65.5135C154.603 65.4691 154.603 65.4242 154.607 65.3798C154.607 65.2852 154.607 65.1579 154.607 64.9948C154.607 64.6686 154.607 64.1629 154.607 63.5333C154.607 62.261 154.588 60.4275 154.574 58.1439L154.633 58.1994L134.645 58.2287L134.73 58.1439V61.9217C134.73 63.1549 134.73 64.3554 134.73 65.5103L134.648 65.4287L148.947 65.4646L153.119 65.4874H154.242H154.532H154.636H154.542H154.261H153.155L149.002 65.5103L134.648 65.5494H134.567V65.4678C134.567 64.313 134.567 63.1124 134.567 61.8793V58.1472C134.547 58.1635 134.726 57.984 134.651 58.0591L154.64 58.0884H154.695V58.1472C154.695 60.4308 154.672 62.2903 154.666 63.5724C154.666 64.1955 154.666 64.6816 154.65 65.0209C154.65 65.1775 154.65 65.3015 154.65 65.3928C154.65 65.4842 154.607 65.5135 154.607 65.5135Z" fill="#263238"/>
<path d="M136.162 65.5134C136.116 65.5134 136.077 63.8627 136.077 61.827C136.077 59.7913 136.116 58.1438 136.162 58.1438C136.208 58.1438 136.247 59.7913 136.247 61.827C136.247 63.8627 136.208 65.5134 136.162 65.5134Z" fill="#263238"/>
<path d="M138.041 65.5134C137.995 65.5134 137.956 63.8627 137.956 61.827C137.956 59.7913 137.995 58.1438 138.041 58.1438C138.087 58.1438 138.126 59.7913 138.126 61.827C138.126 63.8627 138.073 65.5134 138.041 65.5134Z" fill="#263238"/>
<path d="M139.92 65.5134C139.874 65.5134 139.835 63.8627 139.835 61.827C139.835 59.7913 139.874 58.1438 139.92 58.1438C139.966 58.1438 140.005 59.7913 140.005 61.827C140.005 63.8627 139.969 65.5134 139.92 65.5134Z" fill="#263238"/>
<path d="M141.799 65.5134C141.753 65.5134 141.714 63.8627 141.714 61.827C141.714 59.7913 141.753 58.1438 141.799 58.1438C141.845 58.1438 141.887 59.7913 141.887 61.827C141.887 63.8627 141.848 65.5134 141.799 65.5134Z" fill="#263238"/>
<path d="M143.682 65.5134C143.633 65.5134 143.597 63.8627 143.597 61.827C143.597 59.7913 143.633 58.1438 143.682 58.1438C143.73 58.1438 143.766 59.7913 143.766 61.827C143.766 63.8627 143.727 65.5134 143.682 65.5134Z" fill="#263238"/>
<path d="M145.577 65.5134C145.528 65.5134 145.492 63.8627 145.492 61.827C145.492 59.7913 145.528 58.1438 145.577 58.1438C145.626 58.1438 145.662 59.7913 145.662 61.827C145.662 63.8627 145.606 65.5134 145.577 65.5134Z" fill="#263238"/>
<path d="M147.44 65.5134C147.394 65.5134 147.355 63.8627 147.355 61.827C147.355 59.7913 147.394 58.1438 147.44 58.1438C147.485 58.1438 147.524 59.7913 147.524 61.827C147.524 63.8627 147.485 65.5134 147.44 65.5134Z" fill="#263238"/>
<path d="M149.319 65.5134C149.273 65.5134 149.234 63.8627 149.234 61.827C149.234 59.7913 149.273 58.1438 149.319 58.1438C149.365 58.1438 149.404 59.7913 149.404 61.827C149.404 63.8627 149.368 65.5134 149.319 65.5134Z" fill="#263238"/>
<path d="M151.198 65.5134C151.152 65.5134 151.113 63.8627 151.113 61.827C151.113 59.7913 151.152 58.1438 151.198 58.1438C151.244 58.1438 151.283 59.7913 151.283 61.827C151.283 63.8627 151.247 65.5134 151.198 65.5134Z" fill="#263238"/>
<path d="M153.08 65.5134C153.031 65.5134 152.992 63.8627 152.992 61.827C152.992 59.7913 153.031 58.1438 153.08 58.1438C153.129 58.1438 153.165 59.7913 153.165 61.827C153.165 63.8627 153.126 65.5134 153.08 65.5134Z" fill="#263238"/>
<path d="M65.3952 81.0651H57.4645V90.6987H65.3952V81.0651Z" fill="#437EF7"/>
<path opacity="0.4" d="M65.3952 81.0651H57.4645V90.6987H65.3952V81.0651Z" fill="white"/>
<path d="M87.5725 81.0651H65.3951V90.6987H87.5725V81.0651Z" fill="#437EF7"/>
<path opacity="0.2" d="M87.5725 81.0651H65.3951V90.6987H87.5725V81.0651Z" fill="white"/>
<path d="M61.5946 90.6988C61.5489 90.6988 61.5098 88.5619 61.5098 85.9227C61.5098 83.2835 61.5489 81.1499 61.5946 81.1499C61.6403 81.1499 61.6794 83.2867 61.6794 85.9227C61.6794 88.5587 61.6403 90.6988 61.5946 90.6988Z" fill="#263238"/>
<path d="M86.3296 89.5992C86.3251 89.5548 86.3251 89.51 86.3296 89.4655C86.3296 89.3709 86.3296 89.2437 86.3296 89.0838C86.3296 88.7413 86.3296 88.2486 86.3296 87.619C86.3296 86.3467 86.3101 84.5133 86.297 82.2296L86.3557 82.2851L66.3674 82.3144L66.4522 82.2296V86.0107C66.4522 87.2438 66.4522 88.4444 66.4522 89.5992L66.3707 89.5177L80.6695 89.5568L84.842 89.5797H85.9643H86.2546H86.359H86.2644H85.9838H84.8779L80.725 89.6025L66.3707 89.6417H66.2891V89.5601C66.2891 88.4052 66.2891 87.2047 66.2891 85.9715V82.2296C66.2695 82.2296 66.449 82.0665 66.3739 82.1448L86.3623 82.1709H86.4177V82.2296C86.4177 84.5133 86.3949 86.3728 86.3884 87.6549C86.3884 88.278 86.3884 88.7641 86.3721 89.1034C86.3721 89.2632 86.3721 89.3839 86.3721 89.4753C86.3721 89.5666 86.3296 89.5992 86.3296 89.5992Z" fill="#263238"/>
<path d="M67.8843 89.5994C67.8353 89.5994 67.7994 87.9486 67.7994 85.9129C67.7994 83.8772 67.8353 82.2297 67.8843 82.2297C67.9332 82.2297 67.9691 83.8609 67.9691 85.9129C67.9691 87.9649 67.9332 89.5994 67.8843 89.5994Z" fill="#263238"/>
<path d="M69.7634 89.5994C69.7177 89.5994 69.6786 87.9486 69.6786 85.9129C69.6786 83.8772 69.7177 82.2297 69.7634 82.2297C69.8091 82.2297 69.8482 83.8609 69.8482 85.9129C69.8482 87.9649 69.8091 89.5994 69.7634 89.5994Z" fill="#263238"/>
<path d="M71.6423 89.5994C71.5966 89.5994 71.5575 87.9486 71.5575 85.9129C71.5575 83.8772 71.5966 82.2297 71.6423 82.2297C71.688 82.2297 71.7271 83.8609 71.7271 85.9129C71.7271 87.9649 71.6912 89.5994 71.6423 89.5994Z" fill="#263238"/>
<path d="M73.5217 89.5994C73.476 89.5994 73.4369 87.9486 73.4369 85.9129C73.4369 83.8772 73.476 82.2297 73.5217 82.2297C73.5674 82.2297 73.6065 83.8609 73.6065 85.9129C73.6065 87.9649 73.5706 89.5994 73.5217 89.5994Z" fill="#263238"/>
<path d="M75.4039 89.5994C75.355 89.5994 75.3191 87.9486 75.3191 85.9129C75.3191 83.8772 75.355 82.2297 75.4039 82.2297C75.4528 82.2297 75.4887 83.8609 75.4887 85.9129C75.4887 87.9649 75.4365 89.5994 75.4039 89.5994Z" fill="#263238"/>
<path d="M77.2832 89.5994C77.2343 89.5994 77.1984 87.9486 77.1984 85.9129C77.1984 83.8772 77.2343 82.2297 77.2832 82.2297C77.3321 82.2297 77.368 83.8609 77.368 85.9129C77.368 87.9649 77.3289 89.5994 77.2832 89.5994Z" fill="#263238"/>
<path d="M79.1622 89.5994C79.1165 89.5994 79.0774 87.9486 79.0774 85.9129C79.0774 83.8772 79.1165 82.2297 79.1622 82.2297C79.2079 82.2297 79.247 83.8609 79.247 85.9129C79.247 87.9649 79.2079 89.5994 79.1622 89.5994Z" fill="#263238"/>
<path d="M81.0412 89.5994C80.9956 89.5994 80.9564 87.9486 80.9564 85.9129C80.9564 83.8772 80.9956 82.2297 81.0412 82.2297C81.0869 82.2297 81.1261 83.8609 81.1261 85.9129C81.1261 87.9649 81.0869 89.5994 81.0412 89.5994Z" fill="#263238"/>
<path d="M82.9204 89.5994C82.8747 89.5994 82.8356 87.9486 82.8356 85.9129C82.8356 83.8772 82.8747 82.2297 82.9204 82.2297C82.9661 82.2297 83.0052 83.8609 83.0052 85.9129C83.0052 87.9649 82.9693 89.5994 82.9204 89.5994Z" fill="#263238"/>
<path d="M84.7997 89.5994C84.754 89.5994 84.7148 87.9486 84.7148 85.9129C84.7148 83.8772 84.754 82.2297 84.7997 82.2297C84.8453 82.2297 84.8845 83.8609 84.8845 85.9129C84.8845 87.9649 84.8486 89.5994 84.7997 89.5994Z" fill="#263238"/>
<path d="M116.529 66.665H108.598V76.2987H116.529V66.665Z" fill="#263238"/>
<path d="M138.71 66.665H116.532V76.2987H138.71V66.665Z" fill="#263238"/>
<path d="M112.729 76.2954C112.683 76.2954 112.644 74.1586 112.644 71.5226C112.644 68.8867 112.683 66.7466 112.729 66.7466C112.774 66.7466 112.813 68.8834 112.813 71.5226C112.813 74.1619 112.777 76.2954 112.729 76.2954Z" fill="#455A64"/>
<path d="M116.542 76.2954C116.493 76.2954 116.457 74.1586 116.457 71.5226C116.457 68.8867 116.493 66.7466 116.542 66.7466C116.591 66.7466 116.627 68.8834 116.627 71.5226C116.627 74.1619 116.578 76.2954 116.542 76.2954Z" fill="#455A64"/>
<path d="M137.464 75.1961C137.461 75.1516 137.461 75.1069 137.464 75.0623C137.464 74.9677 137.464 74.8438 137.464 74.6806C137.464 74.3381 137.464 73.8487 137.464 73.2159C137.464 71.9435 137.444 70.1101 137.431 67.8265L137.49 67.8852L117.505 67.9113C117.426 67.9863 117.606 67.8069 117.586 67.8265V71.601C117.586 72.8342 117.586 74.0347 117.586 75.1896L117.505 75.108L131.803 75.1472L135.976 75.17H137.098H137.388H137.493H137.402H137.095H135.989L131.836 75.1928L117.482 75.2287H117.4V75.1472C117.4 73.9923 117.4 72.7918 117.4 71.5586V67.833L117.488 67.7482L137.473 67.7743H137.532V67.833C137.532 70.1329 137.506 71.9794 137.499 73.2583C137.499 73.8846 137.499 74.3707 137.499 74.71C137.499 74.8666 137.499 74.9906 137.499 75.0819C137.49 75.1208 137.478 75.159 137.464 75.1961Z" fill="#455A64"/>
<path d="M119.018 75.1962C118.973 75.1962 118.933 73.5454 118.933 71.513C118.933 69.4805 118.973 67.8265 119.018 67.8265C119.064 67.8265 119.103 69.4773 119.103 71.513C119.103 73.5487 119.067 75.1962 119.018 75.1962Z" fill="#455A64"/>
<path d="M120.897 75.1962C120.852 75.1962 120.812 73.5454 120.812 71.513C120.812 69.4805 120.852 67.8265 120.897 67.8265C120.943 67.8265 120.982 69.4773 120.982 71.513C120.982 73.5487 120.946 75.1962 120.897 75.1962Z" fill="#455A64"/>
<path d="M122.78 75.1962C122.731 75.1962 122.695 73.5454 122.695 71.513C122.695 69.4805 122.731 67.8265 122.78 67.8265C122.829 67.8265 122.864 69.4773 122.864 71.513C122.864 73.5487 122.825 75.1962 122.78 75.1962Z" fill="#455A64"/>
<path d="M124.659 75.1962C124.61 75.1962 124.574 73.5454 124.574 71.513C124.574 69.4805 124.61 67.8265 124.659 67.8265C124.708 67.8265 124.744 69.4773 124.744 71.513C124.744 73.5487 124.698 75.1962 124.659 75.1962Z" fill="#455A64"/>
<path d="M126.538 75.1962C126.492 75.1962 126.453 73.5454 126.453 71.513C126.453 69.4805 126.492 67.8265 126.538 67.8265C126.583 67.8265 126.623 69.4773 126.623 71.513C126.623 73.5487 126.583 75.1962 126.538 75.1962Z" fill="#455A64"/>
<path d="M128.417 75.1962C128.371 75.1962 128.332 73.5454 128.332 71.513C128.332 69.4805 128.371 67.8265 128.417 67.8265C128.463 67.8265 128.502 69.4773 128.502 71.513C128.502 73.5487 128.466 75.1962 128.417 75.1962Z" fill="#455A64"/>
<path d="M130.296 75.1962C130.25 75.1962 130.211 73.5454 130.211 71.513C130.211 69.4805 130.25 67.8265 130.296 67.8265C130.342 67.8265 130.381 69.4773 130.381 71.513C130.381 73.5487 130.345 75.1962 130.296 75.1962Z" fill="#455A64"/>
<path d="M132.175 75.1962C132.13 75.1962 132.091 73.5454 132.091 71.513C132.091 69.4805 132.13 67.8265 132.175 67.8265C132.221 67.8265 132.263 69.4773 132.263 71.513C132.263 73.5487 132.224 75.1962 132.175 75.1962Z" fill="#455A64"/>
<path d="M134.058 75.1962C134.009 75.1962 133.973 73.5454 133.973 71.513C133.973 69.4805 134.009 67.8265 134.058 67.8265C134.107 67.8265 134.142 69.4773 134.142 71.513C134.142 73.5487 134.103 75.1962 134.058 75.1962Z" fill="#455A64"/>
<path d="M135.937 75.1962C135.888 75.1962 135.852 73.5454 135.852 71.513C135.852 69.4805 135.888 67.8265 135.937 67.8265C135.986 67.8265 136.021 69.4773 136.021 71.513C136.021 73.5487 135.982 75.1962 135.937 75.1962Z" fill="#455A64"/>
<path d="M97.3432 86.1348H89.4125V95.7685H97.3432V86.1348Z" fill="#437EF7"/>
<path d="M119.524 86.1348H97.3466V95.7685H119.524V86.1348Z" fill="#437EF7"/>
<path opacity="0.4" d="M119.524 86.1348H97.3466V95.7685H119.524V86.1348Z" fill="black"/>
<path d="M93.546 95.7685C93.4971 95.7685 93.4612 93.6316 93.4612 90.9924C93.4612 88.3532 93.4971 86.2196 93.546 86.2196C93.5949 86.2196 93.6308 88.3564 93.6308 90.9924C93.6308 93.6284 93.5917 95.7685 93.546 95.7685Z" fill="#263238"/>
<path d="M118.278 94.669C118.278 94.669 118.278 94.62 118.278 94.5352C118.278 94.4504 118.278 94.3134 118.278 94.1535C118.278 93.8273 118.278 93.3183 118.261 92.6887C118.261 91.4164 118.245 89.583 118.232 87.2993L118.287 87.3548L98.3023 87.3841L98.3871 87.2993V88.2585C98.3871 88.5847 98.3871 88.8946 98.3871 89.2078V94.669L98.3056 94.5874L112.604 94.6265L116.774 94.6494H117.896H118.19C118.223 94.6467 118.257 94.6467 118.291 94.6494H118.173H117.889H116.787L112.634 94.6722L98.2795 94.7114H98.1947V89.1654C98.1947 88.8392 98.1947 88.5325 98.1947 88.216V87.2569C98.1783 87.2732 98.3578 87.0938 98.2827 87.1721L118.268 87.1982H118.327V87.2569C118.327 89.5406 118.304 91.4001 118.294 92.6822C118.294 93.3053 118.294 93.7914 118.294 94.1307C118.294 94.2905 118.294 94.4112 118.294 94.5026C118.298 94.5586 118.292 94.6148 118.278 94.669Z" fill="#263238"/>
<path d="M99.8357 94.6689C99.7867 94.6689 99.7509 93.0182 99.7509 90.9825C99.7509 88.9468 99.7867 87.2993 99.8357 87.2993C99.8846 87.2993 99.9205 88.9468 99.9205 90.9825C99.9205 93.0182 99.8814 94.6689 99.8357 94.6689Z" fill="#263238"/>
<path d="M101.715 94.6689C101.666 94.6689 101.63 93.0182 101.63 90.9825C101.63 88.9468 101.666 87.2993 101.715 87.2993C101.764 87.2993 101.8 88.9468 101.8 90.9825C101.8 93.0182 101.76 94.6689 101.715 94.6689Z" fill="#263238"/>
<path d="M103.594 94.6689C103.548 94.6689 103.509 93.0182 103.509 90.9825C103.509 88.9468 103.548 87.2993 103.594 87.2993C103.639 87.2993 103.679 88.9468 103.679 90.9825C103.679 93.0182 103.639 94.6689 103.594 94.6689Z" fill="#263238"/>
<path d="M105.473 94.6689C105.427 94.6689 105.388 93.0182 105.388 90.9825C105.388 88.9468 105.427 87.2993 105.473 87.2993C105.519 87.2993 105.558 88.9468 105.558 90.9825C105.558 93.0182 105.522 94.6689 105.473 94.6689Z" fill="#263238"/>
<path d="M107.352 94.6689C107.306 94.6689 107.267 93.0182 107.267 90.9825C107.267 88.9468 107.306 87.2993 107.352 87.2993C107.398 87.2993 107.437 88.9468 107.437 90.9825C107.437 93.0182 107.408 94.6689 107.352 94.6689Z" fill="#263238"/>
<path d="M109.231 94.6689C109.186 94.6689 109.146 93.0182 109.146 90.9825C109.146 88.9468 109.186 87.2993 109.231 87.2993C109.277 87.2993 109.319 88.9468 109.319 90.9825C109.319 93.0182 109.28 94.6689 109.231 94.6689Z" fill="#263238"/>
<path d="M111.114 94.6689C111.065 94.6689 111.029 93.0182 111.029 90.9825C111.029 88.9468 111.065 87.2993 111.114 87.2993C111.163 87.2993 111.198 88.9468 111.198 90.9825C111.198 93.0182 111.159 94.6689 111.114 94.6689Z" fill="#263238"/>
<path d="M112.993 94.6689C112.944 94.6689 112.908 93.0182 112.908 90.9825C112.908 88.9468 112.944 87.2993 112.993 87.2993C113.042 87.2993 113.077 88.9468 113.077 90.9825C113.077 93.0182 113.038 94.6689 112.993 94.6689Z" fill="#263238"/>
<path d="M114.872 94.6689C114.826 94.6689 114.787 93.0182 114.787 90.9825C114.787 88.9468 114.826 87.2993 114.872 87.2993C114.917 87.2993 114.957 88.9468 114.957 90.9825C114.957 93.0182 114.911 94.6689 114.872 94.6689Z" fill="#263238"/>
<path d="M116.751 94.6689C116.705 94.6689 116.666 93.0182 116.666 90.9825C116.666 88.9468 116.705 87.2993 116.751 87.2993C116.797 87.2993 116.836 88.9468 116.836 90.9825C116.836 93.0182 116.8 94.6689 116.751 94.6689Z" fill="#263238"/>
<path d="M122.692 85.8217H114.761V95.4553H122.692V85.8217Z" fill="#263238"/>
<path d="M144.869 85.8217H122.692V95.4553H144.869V85.8217Z" fill="#263238"/>
<path d="M118.891 95.4552C118.842 95.4552 118.806 93.3151 118.806 90.6791C118.806 88.0432 118.842 85.9031 118.891 85.9031C118.94 85.9031 118.976 88.0399 118.976 90.6791C118.976 93.3184 118.937 95.4552 118.891 95.4552Z" fill="#455A64"/>
<path d="M122.692 95.4552C122.646 95.4552 122.607 93.3151 122.607 90.6791C122.607 88.0432 122.646 85.9031 122.692 85.9031C122.737 85.9031 122.776 88.0399 122.776 90.6791C122.776 93.3184 122.74 95.4552 122.692 95.4552Z" fill="#455A64"/>
<path d="M143.62 94.3561C143.62 94.3561 143.62 94.3071 143.62 94.2223C143.62 94.1375 143.62 94.0004 143.62 93.8373C143.62 93.4948 143.62 93.0054 143.603 92.3758C143.603 91.1035 143.587 89.2701 143.574 86.9832L143.629 87.0419L123.644 87.0712L123.729 86.9864V88.8916C123.729 89.5245 123.729 90.1476 123.729 90.7642V94.3528L123.648 94.2712L137.946 94.3071L142.116 94.3299H143.238H143.532H143.633H143.541H143.258H142.155L138.002 94.3528L123.648 94.3919H123.566V86.9897C123.547 87.006 123.726 86.8266 123.651 86.9016L143.636 86.931H143.695V86.9864C143.695 89.2701 143.672 91.1329 143.662 92.415C143.662 93.0381 143.662 93.5242 143.662 93.8634C143.662 94.02 143.662 94.144 143.662 94.2353C143.653 94.2772 143.639 94.3177 143.62 94.3561Z" fill="#455A64"/>
<path d="M125.181 94.3557C125.132 94.3557 125.096 92.7049 125.096 90.6692C125.096 88.6335 125.132 86.9828 125.181 86.9828C125.23 86.9828 125.266 88.6335 125.266 90.6692C125.266 92.7049 125.226 94.3557 125.181 94.3557Z" fill="#455A64"/>
<path d="M127.06 94.3557C127.011 94.3557 126.975 92.7049 126.975 90.6692C126.975 88.6335 127.011 86.9828 127.06 86.9828C127.109 86.9828 127.145 88.6335 127.145 90.6692C127.145 92.7049 127.106 94.3557 127.06 94.3557Z" fill="#455A64"/>
<path d="M128.939 94.3557C128.893 94.3557 128.854 92.7049 128.854 90.6692C128.854 88.6335 128.893 86.9828 128.939 86.9828C128.985 86.9828 129.024 88.6335 129.024 90.6692C129.024 92.7049 128.985 94.3557 128.939 94.3557Z" fill="#455A64"/>
<path d="M130.818 94.3557C130.772 94.3557 130.733 92.7049 130.733 90.6692C130.733 88.6335 130.772 86.9828 130.818 86.9828C130.864 86.9828 130.903 88.6335 130.903 90.6692C130.903 92.7049 130.867 94.3557 130.818 94.3557Z" fill="#455A64"/>
<path d="M132.697 94.3557C132.652 94.3557 132.612 92.7049 132.612 90.6692C132.612 88.6335 132.652 86.9828 132.697 86.9828C132.743 86.9828 132.782 88.6335 132.782 90.6692C132.782 92.7049 132.746 94.3557 132.697 94.3557Z" fill="#455A64"/>
<path d="M134.58 94.3557C134.531 94.3557 134.495 92.7049 134.495 90.6692C134.495 88.6335 134.531 86.9828 134.58 86.9828C134.629 86.9828 134.664 88.6335 134.664 90.6692C134.664 92.7049 134.625 94.3557 134.58 94.3557Z" fill="#455A64"/>
<path d="M136.459 94.3557C136.41 94.3557 136.374 92.7049 136.374 90.6692C136.374 88.6335 136.41 86.9828 136.459 86.9828C136.508 86.9828 136.544 88.6335 136.544 90.6692C136.544 92.7049 136.505 94.3557 136.459 94.3557Z" fill="#455A64"/>
<path d="M138.338 94.3557C138.292 94.3557 138.253 92.7049 138.253 90.6692C138.253 88.6335 138.292 86.9828 138.338 86.9828C138.384 86.9828 138.423 88.6335 138.423 90.6692C138.423 92.7049 138.4 94.3557 138.338 94.3557Z" fill="#455A64"/>
<path d="M140.217 94.3557C140.171 94.3557 140.132 92.7049 140.132 90.6692C140.132 88.6335 140.171 86.9828 140.217 86.9828C140.263 86.9828 140.302 88.6335 140.302 90.6692C140.302 92.7049 140.263 94.3557 140.217 94.3557Z" fill="#455A64"/>
<path d="M142.096 94.3557C142.05 94.3557 142.011 92.7049 142.011 90.6692C142.011 88.6335 142.05 86.9828 142.096 86.9828C142.142 86.9828 142.181 88.6335 142.181 90.6692C142.181 92.7049 142.145 94.3557 142.096 94.3557Z" fill="#455A64"/>
<path d="M128.926 66.7042H120.995V76.3379H128.926V66.7042Z" fill="#455A64"/>
<path d="M151.103 66.7042H128.926V76.3379H151.103V66.7042Z" fill="#455A64"/>
<path d="M125.125 76.3378C125.08 76.3378 125.041 74.1977 125.041 71.5617C125.041 68.9257 125.08 66.7856 125.125 66.7856C125.171 66.7856 125.21 68.9257 125.21 71.5617C125.21 74.1977 125.174 76.3378 125.125 76.3378Z" fill="#263238"/>
<path d="M128.939 76.3378C128.893 76.3378 128.854 74.1977 128.854 71.5617C128.854 68.9257 128.893 66.7856 128.939 66.7856C128.985 66.7856 129.024 68.9257 129.024 71.5617C129.024 74.1977 128.975 76.3378 128.939 76.3378Z" fill="#263238"/>
<path d="M149.86 75.2385C149.858 75.194 149.858 75.1493 149.86 75.1047C149.86 75.0101 149.86 74.8829 149.86 74.7198C149.86 74.3936 149.86 73.8879 149.86 73.2583C149.86 71.9859 149.841 70.1525 149.828 67.8689L149.886 67.9243L129.898 67.9537L129.983 67.8689V71.6499C129.983 72.8831 129.983 74.0836 129.983 75.2385L129.901 75.1569L144.2 75.1928L148.373 75.2157H149.495H149.785H149.89H149.795H149.515H148.409L144.256 75.2385L129.901 75.2777H129.82V75.1961C129.82 74.0412 129.82 72.8407 129.82 71.6075V67.8689L129.905 67.7841L149.893 67.8102H149.952V67.8689C149.935 70.1525 149.926 72.012 149.919 73.2941C149.919 73.9172 149.919 74.4033 149.919 74.7426C149.919 74.9025 149.919 75.0232 149.919 75.1145C149.919 75.2059 149.86 75.2385 149.86 75.2385Z" fill="#263238"/>
<path d="M131.415 75.2385C131.37 75.2385 131.33 73.5878 131.33 71.5521C131.33 69.5164 131.37 67.8689 131.415 67.8689C131.461 67.8689 131.5 69.5164 131.5 71.5521C131.5 73.5878 131.461 75.2385 131.415 75.2385Z" fill="#263238"/>
<path d="M133.294 75.2385C133.249 75.2385 133.209 73.5878 133.209 71.5521C133.209 69.5164 133.249 67.8689 133.294 67.8689C133.34 67.8689 133.379 69.5164 133.379 71.5521C133.379 73.5878 133.343 75.2385 133.294 75.2385Z" fill="#263238"/>
<path d="M135.173 75.2385C135.128 75.2385 135.089 73.5878 135.089 71.5521C135.089 69.5164 135.128 67.8689 135.173 67.8689C135.219 67.8689 135.258 69.5164 135.258 71.5521C135.258 73.5878 135.222 75.2385 135.173 75.2385Z" fill="#263238"/>
<path d="M137.056 75.2385C137.007 75.2385 136.971 73.5878 136.971 71.5521C136.971 69.5164 137.007 67.8689 137.056 67.8689C137.105 67.8689 137.14 69.5164 137.14 71.5521C137.14 73.5878 137.095 75.2385 137.056 75.2385Z" fill="#263238"/>
<path d="M138.935 75.2385C138.886 75.2385 138.85 73.5878 138.85 71.5521C138.85 69.5164 138.886 67.8689 138.935 67.8689C138.984 67.8689 139.02 69.5164 139.02 71.5521C139.02 73.5878 138.98 75.2385 138.935 75.2385Z" fill="#263238"/>
<path d="M140.814 75.2385C140.768 75.2385 140.729 73.5878 140.729 71.5521C140.729 69.5164 140.768 67.8689 140.814 67.8689C140.859 67.8689 140.899 69.5164 140.899 71.5521C140.899 73.5878 140.859 75.2385 140.814 75.2385Z" fill="#263238"/>
<path d="M142.693 75.2385C142.647 75.2385 142.608 73.5878 142.608 71.5521C142.608 69.5164 142.647 67.8689 142.693 67.8689C142.739 67.8689 142.778 69.5164 142.778 71.5521C142.778 73.5878 142.742 75.2385 142.693 75.2385Z" fill="#263238"/>
<path d="M144.572 75.2385C144.526 75.2385 144.487 73.5878 144.487 71.5521C144.487 69.5164 144.526 67.8689 144.572 67.8689C144.618 67.8689 144.657 69.5164 144.657 71.5521C144.657 73.5878 144.621 75.2385 144.572 75.2385Z" fill="#263238"/>
<path d="M146.454 75.2385C146.405 75.2385 146.366 73.5878 146.366 71.5521C146.366 69.5164 146.405 67.8689 146.454 67.8689C146.503 67.8689 146.539 69.5164 146.539 71.5521C146.539 73.5878 146.5 75.2385 146.454 75.2385Z" fill="#263238"/>
<path d="M148.334 75.2385C148.285 75.2385 148.249 73.5878 148.249 71.5521C148.249 69.5164 148.285 67.8689 148.334 67.8689C148.383 67.8689 148.419 69.5164 148.419 71.5521C148.419 73.5878 148.379 75.2385 148.334 75.2385Z" fill="#263238"/>
<path d="M117.054 76.1912H109.124V85.8248H117.054V76.1912Z" fill="#437EF7"/>
<path d="M139.235 76.1912H117.058V85.8248H139.235V76.1912Z" fill="#437EF7"/>
<path opacity="0.4" d="M139.235 76.1912H117.058V85.8248H139.235V76.1912Z" fill="black"/>
<path d="M113.254 85.825C113.208 85.825 113.169 83.6849 113.169 81.0489C113.169 78.413 113.208 76.2761 113.254 76.2761C113.299 76.2761 113.342 78.413 113.342 81.0489C113.342 83.6849 113.303 85.825 113.254 85.825Z" fill="#263238"/>
<path d="M137.989 84.7255C137.989 84.7255 137.989 84.6766 137.989 84.5918C137.989 84.507 137.989 84.37 137.989 84.2101C137.989 83.8676 137.989 83.3749 137.989 82.7453C137.989 81.473 137.969 79.6396 137.956 77.3559L138.015 77.4114L118.03 77.4407C117.952 77.5158 118.131 77.3363 118.111 77.3559V81.137C118.111 82.3701 118.111 83.5707 118.111 84.7255L118.03 84.644L132.329 84.6799L136.501 84.7027H137.624H137.917H138.018H137.927H137.643H136.54L132.384 84.7255L118.03 84.7647H117.948V81.137C117.948 80.5204 117.948 79.8973 117.948 79.2644V77.3559C117.948 77.3722 118.111 77.1928 118.036 77.2711L138.022 77.2972H138.08V77.3559C138.08 79.6396 138.054 81.4991 138.048 82.7812C138.048 83.4043 138.048 83.8904 138.048 84.2297C138.048 84.3895 138.048 84.5102 138.048 84.6016C138.031 84.6444 138.012 84.6859 137.989 84.7255Z" fill="#263238"/>
<path d="M119.544 84.7255C119.498 84.7255 119.459 83.0747 119.459 81.039C119.459 79.0033 119.498 77.3558 119.544 77.3558C119.589 77.3558 119.628 79.0033 119.628 81.039C119.628 83.0747 119.592 84.7255 119.544 84.7255Z" fill="#263238"/>
<path d="M121.436 84.7255C121.387 84.7255 121.351 83.0747 121.351 81.039C121.351 79.0033 121.387 77.3558 121.436 77.3558C121.485 77.3558 121.52 79.0033 121.52 81.039C121.52 83.0747 121.472 84.7255 121.436 84.7255Z" fill="#263238"/>
<path d="M123.305 84.7255C123.256 84.7255 123.22 83.0747 123.22 81.039C123.22 79.0033 123.256 77.3558 123.305 77.3558C123.354 77.3558 123.39 79.0033 123.39 81.039C123.39 83.0747 123.351 84.7255 123.305 84.7255Z" fill="#263238"/>
<path d="M125.184 84.7255C125.139 84.7255 125.099 83.0747 125.099 81.039C125.099 79.0033 125.139 77.3558 125.184 77.3558C125.23 77.3558 125.269 79.0033 125.269 81.039C125.269 83.0747 125.23 84.7255 125.184 84.7255Z" fill="#263238"/>
<path d="M127.063 84.7255C127.017 84.7255 126.978 83.0747 126.978 81.039C126.978 79.0033 127.017 77.3558 127.063 77.3558C127.109 77.3558 127.148 79.0033 127.148 81.039C127.148 83.0747 127.109 84.7255 127.063 84.7255Z" fill="#263238"/>
<path d="M128.939 84.7255C128.893 84.7255 128.854 83.0747 128.854 81.039C128.854 79.0033 128.893 77.3558 128.939 77.3558C128.985 77.3558 129.024 79.0033 129.024 81.039C129.024 83.0747 128.991 84.7255 128.939 84.7255Z" fill="#263238"/>
<path d="M130.821 84.7255C130.776 84.7255 130.737 83.0747 130.737 81.039C130.737 79.0033 130.776 77.3558 130.821 77.3558C130.867 77.3558 130.909 79.0033 130.909 81.039C130.909 83.0747 130.87 84.7255 130.821 84.7255Z" fill="#263238"/>
<path d="M132.704 84.7255C132.655 84.7255 132.619 83.0747 132.619 81.039C132.619 79.0033 132.655 77.3558 132.704 77.3558C132.753 77.3558 132.789 79.0033 132.789 81.039C132.789 83.0747 132.75 84.7255 132.704 84.7255Z" fill="#263238"/>
<path d="M134.583 84.7255C134.534 84.7255 134.498 83.0747 134.498 81.039C134.498 79.0033 134.534 77.3558 134.583 77.3558C134.632 77.3558 134.668 79.0033 134.668 81.039C134.668 83.0747 134.629 84.7255 134.583 84.7255Z" fill="#263238"/>
<path d="M136.462 84.7255C136.416 84.7255 136.377 83.0747 136.377 81.039C136.377 79.0033 136.416 77.3558 136.462 77.3558C136.508 77.3558 136.547 79.0033 136.547 81.039C136.547 83.0747 136.508 84.7255 136.462 84.7255Z" fill="#263238"/>
<path d="M139.346 76.152H131.415V85.7857H139.346V76.152Z" fill="#455A64"/>
<path d="M161.523 76.152H139.346V85.7857H161.523V76.152Z" fill="#455A64"/>
<path d="M135.545 85.7824C135.5 85.7824 135.46 83.6456 135.46 81.0096C135.46 78.3736 135.5 76.2335 135.545 76.2335C135.591 76.2335 135.63 78.3704 135.63 81.0096C135.63 83.6488 135.591 85.7824 135.545 85.7824Z" fill="#263238"/>
<path d="M139.346 85.7824C139.3 85.7824 139.261 83.6456 139.261 81.0096C139.261 78.3736 139.3 76.2335 139.346 76.2335C139.391 76.2335 139.431 78.3704 139.431 81.0096C139.431 83.6488 139.395 85.7824 139.346 85.7824Z" fill="#263238"/>
<path d="M160.28 84.6829C160.275 84.6385 160.275 84.5936 160.28 84.5491C160.28 84.4545 160.28 84.3306 160.28 84.1675C160.28 83.8249 160.28 83.3356 160.28 82.7059C160.28 81.4303 160.261 79.5969 160.248 77.3133L160.306 77.372L140.318 77.3981L140.403 77.3133V81.0911C140.403 82.321 140.403 83.5215 140.403 84.6796L140.321 84.5981L154.62 84.6372L158.793 84.6601H159.915H160.205H160.31H160.215H159.934H158.828L154.675 84.6829L140.321 84.7188H140.24V84.6372C140.24 83.4824 140.24 82.2818 140.24 81.0487V77.3198L140.324 77.235L160.313 77.2611H160.368V77.3198C160.368 79.6198 160.345 81.4662 160.339 82.7451C160.339 83.3714 160.339 83.8575 160.339 84.1968C160.339 84.3534 160.339 84.4774 160.339 84.5687C160.339 84.6601 160.28 84.6862 160.28 84.6829Z" fill="#263238"/>
<path d="M141.835 84.683C141.789 84.683 141.75 83.0322 141.75 80.9998C141.75 78.9674 141.789 77.3134 141.835 77.3134C141.881 77.3134 141.92 78.9641 141.92 80.9998C141.92 83.0355 141.881 84.683 141.835 84.683Z" fill="#263238"/>
<path d="M143.714 84.683C143.669 84.683 143.629 83.0322 143.629 80.9998C143.629 78.9674 143.669 77.3134 143.714 77.3134C143.76 77.3134 143.799 78.9641 143.799 80.9998C143.799 83.0355 143.76 84.683 143.714 84.683Z" fill="#263238"/>
<path d="M145.593 84.683C145.547 84.683 145.508 83.0322 145.508 80.9998C145.508 78.9674 145.547 77.3134 145.593 77.3134C145.639 77.3134 145.678 78.9641 145.678 80.9998C145.678 83.0355 145.642 84.683 145.593 84.683Z" fill="#263238"/>
<path d="M147.472 84.683C147.427 84.683 147.388 83.0322 147.388 80.9998C147.388 78.9674 147.427 77.3134 147.472 77.3134C147.518 77.3134 147.557 78.9641 147.557 80.9998C147.557 83.0355 147.534 84.683 147.472 84.683Z" fill="#263238"/>
<path d="M149.355 84.683C149.306 84.683 149.27 83.0322 149.27 80.9998C149.27 78.9674 149.306 77.3134 149.355 77.3134C149.404 77.3134 149.44 78.9641 149.44 80.9998C149.44 83.0355 149.4 84.683 149.355 84.683Z" fill="#263238"/>
<path d="M151.234 84.683C151.185 84.683 151.149 83.0322 151.149 80.9998C151.149 78.9674 151.185 77.3134 151.234 77.3134C151.283 77.3134 151.319 78.9641 151.319 80.9998C151.319 83.0355 151.28 84.683 151.234 84.683Z" fill="#263238"/>
<path d="M153.113 84.683C153.067 84.683 153.028 83.0322 153.028 80.9998C153.028 78.9674 153.067 77.3134 153.113 77.3134C153.159 77.3134 153.198 78.9641 153.198 80.9998C153.198 83.0355 153.159 84.683 153.113 84.683Z" fill="#263238"/>
<path d="M154.992 84.683C154.946 84.683 154.907 83.0322 154.907 80.9998C154.907 78.9674 154.946 77.3134 154.992 77.3134C155.038 77.3134 155.077 78.9641 155.077 80.9998C155.077 83.0355 155.038 84.683 154.992 84.683Z" fill="#263238"/>
<path d="M156.871 84.683C156.825 84.683 156.786 83.0322 156.786 80.9998C156.786 78.9674 156.825 77.3134 156.871 77.3134C156.917 77.3134 156.956 78.9641 156.956 80.9998C156.956 83.0355 156.92 84.683 156.871 84.683Z" fill="#263238"/>
<path d="M158.75 84.683C158.705 84.683 158.665 83.0322 158.665 80.9998C158.665 78.9674 158.705 77.3134 158.75 77.3134C158.796 77.3134 158.838 78.9641 158.838 80.9998C158.838 83.0355 158.799 84.683 158.75 84.683Z" fill="#263238"/>
<path d="M69.359 61.5759H61.4282V71.2096H69.359V61.5759Z" fill="#455A64"/>
<path d="M91.5396 61.5759H69.3622V71.2096H91.5396V61.5759Z" fill="#455A64"/>
<path d="M65.5616 71.2061C65.5127 71.2061 65.4768 69.0693 65.4768 66.4333C65.4768 63.7973 65.5127 61.6572 65.5616 61.6572C65.6106 61.6572 65.6464 63.7941 65.6464 66.4333C65.6464 69.0725 65.6073 71.2061 65.5616 71.2061Z" fill="#263238"/>
<path d="M69.3622 71.2061C69.3165 71.2061 69.2773 69.0693 69.2773 66.4333C69.2773 63.7973 69.3165 61.6572 69.3622 61.6572C69.4078 61.6572 69.447 63.7941 69.447 66.4333C69.447 69.0725 69.4078 71.2061 69.3622 71.2061Z" fill="#263238"/>
<path d="M90.2934 70.1068C90.2934 70.1068 90.2934 70.0611 90.2934 69.973C90.2934 69.8849 90.2934 69.7544 90.2934 69.5913C90.2934 69.2488 90.2934 68.7594 90.2934 68.1298C90.2934 66.8575 90.277 65.0208 90.264 62.7372L90.3195 62.7959L70.3344 62.822L70.4192 62.7372V63.6898C70.4192 64.016 70.4192 64.3259 70.4192 64.6424V70.1003L70.3376 70.0187L84.6365 70.0578L88.8057 70.0807H89.928H90.2216H90.3227C90.2924 70.0839 90.2617 70.0839 90.2314 70.0807H89.9475H88.8449L84.6919 70.1035L70.3376 70.1394H70.2169V64.5934C70.2169 64.2672 70.2169 63.9605 70.2169 63.6408V62.7469C70.2169 62.7665 70.38 62.5871 70.305 62.6621L90.2901 62.6915H90.3488V62.7469C90.3488 65.0306 90.326 66.8934 90.3162 68.1722C90.3162 68.7986 90.3162 69.2847 90.3162 69.6239C90.3162 69.7805 90.3162 69.9045 90.3162 69.9959C90.3132 70.0336 90.3056 70.0709 90.2934 70.1068Z" fill="#263238"/>
<path d="M71.8482 70.1069C71.7993 70.1069 71.7634 68.4594 71.7634 66.4237C71.7634 64.388 71.7993 62.7373 71.8482 62.7373C71.8972 62.7373 71.9331 64.388 71.9331 66.4237C71.9331 68.4594 71.8972 70.1069 71.8482 70.1069Z" fill="#263238"/>
<path d="M73.7305 70.1069C73.6815 70.1069 73.6456 68.4594 73.6456 66.4237C73.6456 64.388 73.6815 62.7373 73.7305 62.7373C73.7794 62.7373 73.8153 64.388 73.8153 66.4237C73.8153 68.4594 73.7761 70.1069 73.7305 70.1069Z" fill="#263238"/>
<path d="M75.6096 70.1069C75.5639 70.1069 75.5248 68.4594 75.5248 66.4237C75.5248 64.388 75.5639 62.7373 75.6096 62.7373C75.6553 62.7373 75.6944 64.388 75.6944 66.4237C75.6944 68.4594 75.6553 70.1069 75.6096 70.1069Z" fill="#263238"/>
<path d="M77.4886 70.1069C77.443 70.1069 77.4038 68.4594 77.4038 66.4237C77.4038 64.388 77.443 62.7373 77.4886 62.7373C77.5343 62.7373 77.5735 64.388 77.5735 66.4237C77.5735 68.4594 77.5376 70.1069 77.4886 70.1069Z" fill="#263238"/>
<path d="M79.3678 70.1069C79.3221 70.1069 79.283 68.4594 79.283 66.4237C79.283 64.388 79.3221 62.7373 79.3678 62.7373C79.4135 62.7373 79.4526 64.388 79.4526 66.4237C79.4526 68.4594 79.4167 70.1069 79.3678 70.1069Z" fill="#263238"/>
<path d="M81.2502 70.1069C81.2013 70.1069 81.1621 68.4594 81.1621 66.4237C81.1621 64.388 81.2013 62.7373 81.2502 62.7373C81.2991 62.7373 81.335 64.388 81.335 66.4237C81.335 68.4594 81.3089 70.1069 81.2502 70.1069Z" fill="#263238"/>
<path d="M83.1293 70.1069C83.0803 70.1069 83.0444 68.4594 83.0444 66.4237C83.0444 64.388 83.0803 62.7373 83.1293 62.7373C83.1782 62.7373 83.2141 64.388 83.2141 66.4237C83.2141 68.4594 83.1749 70.1069 83.1293 70.1069Z" fill="#263238"/>
<path d="M85.0084 70.1069C84.9595 70.1069 84.9236 68.4594 84.9236 66.4237C84.9236 64.388 84.9595 62.7373 85.0084 62.7373C85.0573 62.7373 85.0932 64.388 85.0932 66.4237C85.0932 68.4594 85.0541 70.1069 85.0084 70.1069Z" fill="#263238"/>
<path d="M86.8874 70.1069C86.8418 70.1069 86.8026 68.4594 86.8026 66.4237C86.8026 64.388 86.8418 62.7373 86.8874 62.7373C86.9331 62.7373 86.9723 64.388 86.9723 66.4237C86.9723 68.4594 86.9331 70.1069 86.8874 70.1069Z" fill="#263238"/>
<path d="M88.7667 70.1069C88.721 70.1069 88.6819 68.4594 88.6819 66.4237C88.6819 64.388 88.721 62.7373 88.7667 62.7373C88.8124 62.7373 88.8515 64.388 88.8515 66.4237C88.8515 68.4594 88.8124 70.1069 88.7667 70.1069Z" fill="#263238"/>
<path d="M139.852 66.3944H131.921V76.0281H139.852V66.3944Z" fill="#263238"/>
<path d="M162.029 66.3944H139.851V76.0281H162.029V66.3944Z" fill="#263238"/>
<path d="M136.051 76.0248C136.002 76.0248 135.966 73.888 135.966 71.252C135.966 68.6161 136.002 66.476 136.051 66.476C136.1 66.476 136.136 68.6128 136.136 71.252C136.136 73.8913 136.097 76.0248 136.051 76.0248Z" fill="#455A64"/>
<path d="M139.852 76.0248C139.806 76.0248 139.767 73.888 139.767 71.252C139.767 68.6161 139.806 66.476 139.852 66.476C139.897 66.476 139.936 68.6128 139.936 71.252C139.936 73.8913 139.897 76.0248 139.852 76.0248Z" fill="#455A64"/>
<path d="M160.783 74.9253C160.783 74.9253 160.783 74.8796 160.783 74.7915C160.783 74.7035 160.783 74.573 160.783 74.4099C160.783 74.0673 160.783 73.578 160.766 72.9483C160.766 71.676 160.766 69.8393 160.737 67.5557L160.792 67.6144L140.807 67.6405C140.732 67.7188 140.908 67.5394 140.892 67.5589V69.4641C140.892 70.0938 140.892 70.7201 140.892 71.3367V74.9253L140.811 74.8437L155.109 74.8829L159.282 74.9057H160.401H160.695H160.796C160.765 74.9112 160.735 74.9112 160.704 74.9057H160.424H159.318L155.165 74.9286L140.811 74.9677H140.729V74.8829C140.729 73.728 140.729 72.5307 140.729 71.2943V67.5622C140.709 67.5785 140.889 67.3991 140.814 67.4741L160.799 67.5035H160.858V67.5589C160.858 69.8589 160.835 71.7054 160.828 72.9842C160.828 73.6106 160.828 74.0967 160.812 74.4359C160.812 74.5925 160.812 74.7165 160.812 74.8079C160.808 74.8481 160.798 74.8876 160.783 74.9253Z" fill="#455A64"/>
<path d="M142.341 74.9254C142.292 74.9254 142.256 73.2779 142.256 71.2422C142.256 69.2065 142.292 67.5558 142.341 67.5558C142.39 67.5558 142.426 69.2065 142.426 71.2422C142.426 73.2779 142.386 74.9254 142.341 74.9254Z" fill="#455A64"/>
<path d="M144.22 74.9254C144.174 74.9254 144.135 73.2779 144.135 71.2422C144.135 69.2065 144.174 67.5558 144.22 67.5558C144.265 67.5558 144.305 69.2065 144.305 71.2422C144.305 73.2779 144.272 74.9254 144.22 74.9254Z" fill="#455A64"/>
<path d="M146.099 74.9254C146.053 74.9254 146.014 73.2779 146.014 71.2422C146.014 69.2065 146.053 67.5558 146.099 67.5558C146.145 67.5558 146.184 69.2065 146.184 71.2422C146.184 73.2779 146.145 74.9254 146.099 74.9254Z" fill="#455A64"/>
<path d="M147.978 74.9254C147.932 74.9254 147.893 73.2779 147.893 71.2422C147.893 69.2065 147.932 67.5558 147.978 67.5558C148.024 67.5558 148.063 69.2065 148.063 71.2422C148.063 73.2779 148.027 74.9254 147.978 74.9254Z" fill="#455A64"/>
<path d="M149.857 74.9254C149.811 74.9254 149.772 73.2779 149.772 71.2422C149.772 69.2065 149.811 67.5558 149.857 67.5558C149.903 67.5558 149.942 69.2065 149.942 71.2422C149.942 73.2779 149.906 74.9254 149.857 74.9254Z" fill="#455A64"/>
<path d="M151.74 74.9254C151.691 74.9254 151.655 73.2779 151.655 71.2422C151.655 69.2065 151.691 67.5558 151.74 67.5558C151.789 67.5558 151.824 69.2065 151.824 71.2422C151.824 73.2779 151.775 74.9254 151.74 74.9254Z" fill="#455A64"/>
<path d="M153.619 74.9254C153.57 74.9254 153.534 73.2779 153.534 71.2422C153.534 69.2065 153.57 67.5558 153.619 67.5558C153.668 67.5558 153.703 69.2065 153.703 71.2422C153.703 73.2779 153.664 74.9254 153.619 74.9254Z" fill="#455A64"/>
<path d="M155.498 74.9254C155.452 74.9254 155.413 73.2779 155.413 71.2422C155.413 69.2065 155.452 67.5558 155.498 67.5558C155.543 67.5558 155.582 69.2065 155.582 71.2422C155.582 73.2779 155.543 74.9254 155.498 74.9254Z" fill="#455A64"/>
<path d="M157.377 74.9254C157.331 74.9254 157.292 73.2779 157.292 71.2422C157.292 69.2065 157.331 67.5558 157.377 67.5558C157.422 67.5558 157.462 69.2065 157.462 71.2422C157.462 73.2779 157.426 74.9254 157.377 74.9254Z" fill="#455A64"/>
<path d="M159.256 74.9254C159.21 74.9254 159.171 73.2779 159.171 71.2422C159.171 69.2065 159.21 67.5558 159.256 67.5558C159.302 67.5558 159.341 69.2065 159.341 71.2422C159.341 73.2779 159.305 74.9254 159.256 74.9254Z" fill="#455A64"/>
<path d="M141.095 85.7825H133.164V95.4162H141.095V85.7825Z" fill="#437EF7"/>
<path d="M163.275 85.7825H141.098V95.4162H163.275V85.7825Z" fill="#437EF7"/>
<path opacity="0.4" d="M163.275 85.7825H141.098V95.4162H163.275V85.7825Z" fill="black"/>
<path d="M137.297 95.4162C137.248 95.4162 137.212 93.2761 137.212 90.6401C137.212 88.0041 137.248 85.864 137.297 85.864C137.346 85.864 137.382 88.0041 137.382 90.6401C137.382 93.2761 137.343 95.4162 137.297 95.4162Z" fill="#263238"/>
<path d="M162.029 94.3166C162.029 94.3166 162.029 94.2677 162.029 94.1828C162.029 94.098 162.029 93.961 162.029 93.7979C162.029 93.4717 162.029 92.966 162.029 92.3364C162.029 91.0641 162.013 89.2306 162 86.947L162.055 87.0024L142.07 87.0318L142.155 86.947V87.9061C142.155 88.2323 142.155 88.5423 142.155 88.8554V94.3166L142.07 94.235L156.372 94.2709L160.541 94.2938H161.664H161.957H162.058H161.967H161.683H160.58L156.428 94.3166L142.073 94.3558H141.992V90.728C141.992 90.1114 141.992 89.4883 141.992 88.8554V86.947C141.992 86.9633 142.155 86.7839 142.08 86.8622L162.065 86.8883H162.124V86.947C162.124 89.2306 162.101 91.0901 162.091 92.3722C162.091 92.9954 162.091 93.4814 162.091 93.8207C162.091 93.9773 162.091 94.1013 162.091 94.1926C162.076 94.2367 162.055 94.2784 162.029 94.3166Z" fill="#263238"/>
<path d="M143.587 94.3166C143.538 94.3166 143.502 92.6659 143.502 90.6302C143.502 88.5945 143.538 86.947 143.587 86.947C143.636 86.947 143.672 88.5945 143.672 90.6302C143.672 92.6659 143.62 94.3166 143.587 94.3166Z" fill="#263238"/>
<path d="M145.466 94.3166C145.417 94.3166 145.381 92.6659 145.381 90.6302C145.381 88.5945 145.417 86.947 145.466 86.947C145.515 86.947 145.551 88.5945 145.551 90.6302C145.551 92.6659 145.512 94.3166 145.466 94.3166Z" fill="#263238"/>
<path d="M147.345 94.3166C147.3 94.3166 147.26 92.6659 147.26 90.6302C147.26 88.5945 147.3 86.947 147.345 86.947C147.391 86.947 147.43 88.5945 147.43 90.6302C147.43 92.6659 147.391 94.3166 147.345 94.3166Z" fill="#263238"/>
<path d="M149.224 94.3166C149.178 94.3166 149.139 92.6659 149.139 90.6302C149.139 88.5945 149.178 86.947 149.224 86.947C149.27 86.947 149.309 88.5945 149.309 90.6302C149.309 92.6659 149.27 94.3166 149.224 94.3166Z" fill="#263238"/>
<path d="M151.103 94.3166C151.058 94.3166 151.019 92.6659 151.019 90.6302C151.019 88.5945 151.058 86.947 151.103 86.947C151.149 86.947 151.188 88.5945 151.188 90.6302C151.188 92.6659 151.152 94.3166 151.103 94.3166Z" fill="#263238"/>
<path d="M152.983 94.3166C152.937 94.3166 152.898 92.6659 152.898 90.6302C152.898 88.5945 152.937 86.947 152.983 86.947C153.028 86.947 153.071 88.5945 153.071 90.6302C153.071 92.6659 153.031 94.3166 152.983 94.3166Z" fill="#263238"/>
<path d="M154.865 94.3166C154.816 94.3166 154.78 92.6659 154.78 90.6302C154.78 88.5945 154.816 86.947 154.865 86.947C154.914 86.947 154.95 88.5945 154.95 90.6302C154.95 92.6659 154.91 94.3166 154.865 94.3166Z" fill="#263238"/>
<path d="M156.744 94.3166C156.695 94.3166 156.659 92.6659 156.659 90.6302C156.659 88.5945 156.695 86.947 156.744 86.947C156.793 86.947 156.829 88.5945 156.829 90.6302C156.829 92.6659 156.79 94.3166 156.744 94.3166Z" fill="#263238"/>
<path d="M158.626 94.3166C158.581 94.3166 158.542 92.6659 158.542 90.6302C158.542 88.5945 158.581 86.947 158.626 86.947C158.672 86.947 158.711 88.5945 158.711 90.6302C158.711 92.6659 158.669 94.3166 158.626 94.3166Z" fill="#263238"/>
<path d="M160.502 94.3166C160.457 94.3166 160.417 92.6659 160.417 90.6302C160.417 88.5945 160.457 86.947 160.502 86.947C160.548 86.947 160.587 88.5945 160.587 90.6302C160.587 92.6659 160.551 94.3166 160.502 94.3166Z" fill="#263238"/>
<path d="M129.353 92.4344H129.242H128.916L127.67 92.4507L123.08 92.4768L107.943 92.5029C100.113 92.5029 93.2621 92.4866 89.6083 92.4605L89.6507 92.4181C89.6507 93.3968 89.6507 94.1667 89.6311 94.7017C89.6311 94.9529 89.6311 95.1519 89.6311 95.2955C89.6311 95.3542 89.6311 95.4064 89.6311 95.4455C89.6311 95.4847 89.6311 95.4977 89.6311 95.4977C89.6311 95.4977 89.6311 95.4814 89.6311 95.4455V95.2955C89.6311 95.1519 89.6311 94.9529 89.6311 94.7017C89.6311 94.1667 89.6311 93.3968 89.6115 92.4181V92.3757H89.6572C93.3208 92.3496 100.165 92.3333 107.992 92.3333L123.129 92.3593L127.719 92.3855L128.965 92.4018H129.291L129.353 92.4344Z" fill="#263238"/>
<path d="M126.058 95.1616C125.945 94.2637 125.945 93.3551 126.058 92.4572C126.172 93.3551 126.172 94.2637 126.058 95.1616Z" fill="#263238"/>
<path d="M120.506 95.1616C120.393 94.2637 120.393 93.3551 120.506 92.4572C120.619 93.3551 120.619 94.2637 120.506 95.1616Z" fill="#263238"/>
<path d="M114.953 95.1616C114.84 94.2637 114.84 93.3551 114.953 92.4572C115.066 93.3551 115.066 94.2637 114.953 95.1616Z" fill="#263238"/>
<path d="M109.398 95.1616C109.284 94.2637 109.284 93.3551 109.398 92.4572C109.511 93.3551 109.511 94.2637 109.398 95.1616Z" fill="#263238"/>
<path d="M103.845 95.1616C103.732 94.2637 103.732 93.3551 103.845 92.4572C103.958 93.3551 103.958 94.2637 103.845 95.1616Z" fill="#263238"/>
<path d="M98.2925 95.1616C98.1753 94.2639 98.1753 93.3548 98.2925 92.4572C98.4056 93.3551 98.4056 94.2637 98.2925 95.1616Z" fill="#263238"/>
<path d="M92.7272 95.1616C92.6141 94.2637 92.6141 93.3551 92.7272 92.4572C92.8403 93.3551 92.8403 94.2637 92.7272 95.1616Z" fill="#263238"/>
<path d="M169.095 95.0607C169.091 95.0043 169.091 94.9476 169.095 94.8911C169.095 94.7715 169.095 94.6051 169.095 94.392C169.095 93.9385 169.095 93.286 169.076 92.4346L169.115 92.477C165.621 92.5031 158.61 92.5194 150.552 92.5194L135.575 92.4965L131.037 92.4672H129.8H129.474C129.438 92.4715 129.402 92.4715 129.366 92.4672H129.474H129.8L131.037 92.4509L135.575 92.4248L150.552 92.3987C158.61 92.3987 165.621 92.4183 169.115 92.4443H169.157V92.4346C169.157 93.2762 169.157 93.9287 169.157 94.392C169.157 94.604 169.157 94.7704 169.157 94.8911C169.141 94.9493 169.12 95.006 169.095 95.0607Z" fill="#263238"/>
<path d="M154.712 95.1714C154.598 94.2735 154.598 93.3649 154.712 92.4669C154.825 93.3649 154.825 94.2735 154.712 95.1714Z" fill="#263238"/>
<path d="M149.143 95.1714C149.029 94.2735 149.029 93.3649 149.143 92.4669C149.256 93.3649 149.256 94.2735 149.143 95.1714Z" fill="#263238"/>
<path d="M143.587 95.1714C143.474 94.2735 143.474 93.3649 143.587 92.4669C143.704 93.3646 143.704 94.2737 143.587 95.1714Z" fill="#263238"/>
<path d="M138.034 95.1714C137.921 94.2735 137.921 93.3649 138.034 92.4669C138.148 93.3649 138.148 94.2735 138.034 95.1714Z" fill="#263238"/>
<path d="M132.482 95.1714C132.369 94.2735 132.369 93.3649 132.482 92.4669C132.595 93.3649 132.595 94.2735 132.482 95.1714Z" fill="#263238"/>
<path d="M88.9003 90.973C88.8962 90.9165 88.8962 90.8598 88.9003 90.8033C88.9003 90.6815 88.9003 90.5152 88.9003 90.3042C88.9003 89.8507 88.9003 89.1983 88.8808 88.3468L88.9199 88.3859C85.2302 88.412 77.6061 88.4316 68.8206 88.4316C60.3744 88.4316 53.0081 88.4153 49.1781 88.3892L49.2205 88.3468C49.2205 89.3255 49.2205 90.1019 49.2009 90.6304C49.2009 90.8849 49.2009 91.0806 49.2009 91.2242C49.2009 91.3677 49.2009 91.4264 49.2009 91.4264C49.1974 91.3591 49.1974 91.2915 49.2009 91.2242C49.2009 91.0806 49.2009 90.8979 49.2009 90.6304C49.2009 90.1019 49.2009 89.3255 49.1814 88.3468V88.3044H49.2238C53.0538 88.2783 60.4201 88.262 68.8663 88.262C77.6518 88.262 85.2759 88.2815 88.9656 88.3076H89.0047V88.3468C89.0047 89.1885 89.0047 89.8409 89.0047 90.3042C89.0047 90.5217 89.0047 90.6881 89.0047 90.8033C88.9766 90.8637 88.9415 90.9206 88.9003 90.973Z" fill="#263238"/>
<path d="M85.6086 91.0806C85.4955 90.1826 85.4955 89.274 85.6086 88.3761C85.7217 89.274 85.7217 90.1826 85.6086 91.0806Z" fill="#263238"/>
<path d="M80.0561 91.0806C79.943 90.1826 79.943 89.274 80.0561 88.3761C80.1692 89.274 80.1692 90.1826 80.0561 91.0806Z" fill="#263238"/>
<path d="M74.5003 91.0806C74.3873 90.1826 74.3873 89.274 74.5003 88.3761C74.6134 89.274 74.6134 90.1826 74.5003 91.0806Z" fill="#263238"/>
<path d="M68.9479 91.0806C68.8348 90.1826 68.8348 89.274 68.9479 88.3761C69.061 89.274 69.061 90.1826 68.9479 91.0806Z" fill="#263238"/>
<path d="M63.3955 91.0806C63.2824 90.1826 63.2824 89.274 63.3955 88.3761C63.5086 89.274 63.5086 90.1826 63.3955 91.0806Z" fill="#263238"/>
<path d="M57.8397 91.0806C57.7266 90.1826 57.7266 89.274 57.8397 88.3761C57.9528 89.274 57.9528 90.1826 57.8397 91.0806Z" fill="#263238"/>
<path d="M52.2742 91.0806C52.1611 90.1826 52.1611 89.274 52.2742 88.3761C52.3872 89.274 52.3872 90.1826 52.2742 91.0806Z" fill="#263238"/>
<path d="M69.359 71.2094H61.4282V80.843H69.359V71.2094Z" fill="#437EF7"/>
<path d="M91.5396 71.2094H69.3622V80.843H91.5396V71.2094Z" fill="#437EF7"/>
<path opacity="0.4" d="M91.5396 71.2094H69.3622V80.843H91.5396V71.2094Z" fill="black"/>
<path d="M65.5616 80.8433C65.5127 80.8433 65.4768 78.7032 65.4768 76.0672C65.4768 73.4312 65.5127 71.2911 65.5616 71.2911C65.6106 71.2911 65.6464 73.4312 65.6464 76.0672C65.6464 78.7032 65.6073 80.8433 65.5616 80.8433Z" fill="#263238"/>
<path d="M90.2934 79.7439C90.2934 79.7439 90.2934 79.6949 90.2934 79.6101C90.2934 79.5253 90.2934 79.3883 90.2934 79.2252C90.2934 78.8989 90.2934 78.3933 90.2934 77.7636C90.2934 76.4913 90.277 74.6579 90.264 72.3743L90.3195 72.4297L70.3344 72.4591L70.4192 72.3743V73.3334C70.4192 73.6596 70.4192 73.9695 70.4192 74.2827V79.7439L70.3376 79.6623L84.6365 79.6982L88.8057 79.721H89.928H90.2216C90.2552 79.7183 90.2891 79.7183 90.3227 79.721H90.2314H89.9475H88.8449L84.6919 79.7439L70.3376 79.783H70.2169V74.237C70.2169 73.9108 70.2169 73.6041 70.2169 73.2877V72.3286C70.2169 72.3449 70.38 72.1655 70.305 72.2438L90.2901 72.2699H90.3488V72.3286C90.3488 74.6122 90.326 76.4717 90.3162 77.7538C90.3162 78.377 90.3162 78.863 90.3162 79.2023C90.3162 79.3589 90.3162 79.4829 90.3162 79.5742C90.3185 79.6317 90.3107 79.6891 90.2934 79.7439Z" fill="#263238"/>
<path d="M71.8482 79.7438C71.7993 79.7438 71.7634 78.093 71.7634 76.0573C71.7634 74.0216 71.7993 72.3741 71.8482 72.3741C71.8972 72.3741 71.9331 74.0216 71.9331 76.0573C71.9331 78.093 71.8972 79.7438 71.8482 79.7438Z" fill="#263238"/>
<path d="M73.7305 79.7438C73.6815 79.7438 73.6456 78.093 73.6456 76.0573C73.6456 74.0216 73.6815 72.3741 73.7305 72.3741C73.7794 72.3741 73.8153 74.0216 73.8153 76.0573C73.8153 78.093 73.7761 79.7438 73.7305 79.7438Z" fill="#263238"/>
<path d="M75.6096 79.7438C75.5639 79.7438 75.5248 78.093 75.5248 76.0573C75.5248 74.0216 75.5639 72.3741 75.6096 72.3741C75.6553 72.3741 75.6944 74.0216 75.6944 76.0573C75.6944 78.093 75.6553 79.7438 75.6096 79.7438Z" fill="#263238"/>
<path d="M77.4886 79.7438C77.443 79.7438 77.4038 78.093 77.4038 76.0573C77.4038 74.0216 77.443 72.3741 77.4886 72.3741C77.5343 72.3741 77.5735 74.0216 77.5735 76.0573C77.5735 78.093 77.5376 79.7438 77.4886 79.7438Z" fill="#263238"/>
<path d="M79.3678 79.7438C79.3221 79.7438 79.283 78.093 79.283 76.0573C79.283 74.0216 79.3221 72.3741 79.3678 72.3741C79.4135 72.3741 79.4526 74.0216 79.4526 76.0573C79.4526 78.093 79.4167 79.7438 79.3678 79.7438Z" fill="#263238"/>
<path d="M81.2502 79.7438C81.2013 79.7438 81.1621 78.093 81.1621 76.0573C81.1621 74.0216 81.2013 72.3741 81.2502 72.3741C81.2991 72.3741 81.335 74.0216 81.335 76.0573C81.335 78.093 81.3089 79.7438 81.2502 79.7438Z" fill="#263238"/>
<path d="M83.1293 79.7438C83.0803 79.7438 83.0444 78.093 83.0444 76.0573C83.0444 74.0216 83.0803 72.3741 83.1293 72.3741C83.1782 72.3741 83.2141 74.0216 83.2141 76.0573C83.2141 78.093 83.1749 79.7438 83.1293 79.7438Z" fill="#263238"/>
<path d="M85.0084 79.7438C84.9595 79.7438 84.9236 78.093 84.9236 76.0573C84.9236 74.0216 84.9595 72.3741 85.0084 72.3741C85.0573 72.3741 85.0932 74.0216 85.0932 76.0573C85.0932 78.093 85.0541 79.7438 85.0084 79.7438Z" fill="#263238"/>
<path d="M86.8874 79.7438C86.8418 79.7438 86.8026 78.093 86.8026 76.0573C86.8026 74.0216 86.8418 72.3741 86.8874 72.3741C86.9331 72.3741 86.9723 74.0216 86.9723 76.0573C86.9723 78.093 86.9331 79.7438 86.8874 79.7438Z" fill="#263238"/>
<path d="M88.7667 79.7438C88.721 79.7438 88.6819 78.093 88.6819 76.0573C88.6819 74.0216 88.721 72.3741 88.7667 72.3741C88.8124 72.3741 88.8515 74.0216 88.8515 76.0573C88.8515 78.093 88.8124 79.7438 88.7667 79.7438Z" fill="#263238"/>
<path d="M169.376 95.3117V73.2257H191.276V95.514" fill="#455A64"/>
<path d="M185.433 92.6561H184.213V95.3117H185.433V92.6561Z" fill="#263238"/>
<path d="M171.914 89.0774H171.147V90.9728H171.914V89.0774Z" fill="#263238"/>
<path d="M171.914 92.4343H171.147V94.3297H171.914V92.4343Z" fill="#263238"/>
<path d="M176.315 89.0774H175.548V90.9728H176.315V89.0774Z" fill="#263238"/>
<path d="M176.315 92.4048H175.548V94.3002H176.315V92.4048Z" fill="#263238"/>
<path d="M180.715 89.0774H179.949V90.9728H180.715V89.0774Z" fill="#263238"/>
<path d="M180.715 92.3788H179.949V94.2742H180.715V92.3788Z" fill="#263238"/>
<path d="M185.116 89.0774H184.35V90.9728H185.116V89.0774Z" fill="#263238"/>
<path d="M189.514 89.0774H188.748V90.9728H189.514V89.0774Z" fill="#263238"/>
<path d="M189.514 92.2679H188.748V94.1634H189.514V92.2679Z" fill="#263238"/>
<path d="M185.342 80.6248H184.121V83.2803H185.342V80.6248Z" fill="#263238"/>
<path d="M171.914 75.5387H171.147V77.4341H171.914V75.5387Z" fill="#263238"/>
<path d="M171.914 78.8956H171.147V80.791H171.914V78.8956Z" fill="#263238"/>
<path d="M176.315 75.5387H175.548V77.4341H176.315V75.5387Z" fill="#263238"/>
<path d="M176.315 78.8663H175.548V80.7618H176.315V78.8663Z" fill="#263238"/>
<path d="M180.715 75.5387H179.949V77.4341H180.715V75.5387Z" fill="#263238"/>
<path d="M180.715 78.8402H179.949V80.7356H180.715V78.8402Z" fill="#263238"/>
<path d="M185.116 75.5387H184.35V77.4341H185.116V75.5387Z" fill="#263238"/>
<path d="M189.514 75.5387H188.748V77.4341H189.514V75.5387Z" fill="#263238"/>
<path d="M189.514 78.7292H188.748V80.6247H189.514V78.7292Z" fill="#263238"/>
<path d="M68.4617 116.207C68.4617 116.207 71.8871 103.653 59.5033 100.796C47.922 98.1238 48.2058 90.9728 48.2058 90.9728H89.6963V95.3117H198.897C198.897 95.3117 198.303 109.376 188.056 116.207" fill="#455A64"/>
<path d="M68.752 110.315H193.895C193.895 110.315 190.437 114.993 188.056 116.207H68.4617C68.7378 114.256 68.835 112.284 68.752 110.315Z" fill="#263238"/>
<path d="M190.663 83.2801C190.648 83.1994 190.643 83.1174 190.646 83.0355C190.646 82.8625 190.646 82.6277 190.646 82.334L190.679 82.3667C188.816 82.3993 184.327 82.4189 179.088 82.4189C173.848 82.4189 169.356 82.3993 167.493 82.3667L167.526 82.334C167.526 82.6277 167.526 82.8625 167.51 83.0355C167.513 83.1174 167.508 83.1994 167.493 83.2801C167.483 83.199 167.478 83.1173 167.477 83.0355C167.477 82.8625 167.477 82.6277 167.461 82.334V82.321H167.493C169.356 82.2916 173.845 82.2688 179.088 82.2688C184.33 82.2688 188.816 82.2916 190.679 82.321H190.712C190.712 82.6146 190.712 82.8495 190.712 83.0224C190.703 83.1096 190.687 83.1959 190.663 83.2801Z" fill="#263238"/>
<path d="M170.371 83.5347C170.325 83.5347 170.286 83.2574 170.286 82.9116C170.286 82.5658 170.325 82.2885 170.371 82.2885C170.417 82.2885 170.456 82.569 170.456 82.9116C170.456 83.2541 170.407 83.5347 170.371 83.5347Z" fill="#263238"/>
<path d="M173.424 83.5347C173.379 83.5347 173.339 83.2574 173.339 82.9116C173.339 82.5658 173.379 82.2885 173.424 82.2885C173.47 82.2885 173.509 82.569 173.509 82.9116C173.509 83.2541 173.473 83.5347 173.424 83.5347Z" fill="#263238"/>
<path d="M176.494 83.5347C176.445 83.5347 176.409 83.2574 176.409 82.9116C176.409 82.5658 176.445 82.2885 176.494 82.2885C176.543 82.2885 176.579 82.569 176.579 82.9116C176.579 83.2541 176.54 83.5347 176.494 83.5347Z" fill="#263238"/>
<path d="M179.561 83.5347C179.512 83.5347 179.476 83.2574 179.476 82.9116C179.476 82.5658 179.512 82.2885 179.561 82.2885C179.61 82.2885 179.645 82.569 179.645 82.9116C179.645 83.2541 179.606 83.5347 179.561 83.5347Z" fill="#263238"/>
<path d="M182.627 83.5347C182.582 83.5347 182.542 83.2574 182.542 82.9116C182.542 82.5658 182.582 82.2885 182.627 82.2885C182.673 82.2885 182.712 82.569 182.712 82.9116C182.712 83.2541 182.673 83.5347 182.627 83.5347Z" fill="#263238"/>
<path d="M185.704 83.5347C185.658 83.5347 185.619 83.2574 185.619 82.9116C185.619 82.5658 185.658 82.2885 185.704 82.2885C185.749 82.2885 185.788 82.569 185.788 82.9116C185.788 83.2541 185.743 83.5347 185.704 83.5347Z" fill="#263238"/>
<path d="M188.761 83.5347C188.715 83.5347 188.676 83.2574 188.676 82.9116C188.676 82.5658 188.715 82.2885 188.761 82.2885C188.806 82.2885 188.845 82.569 188.845 82.9116C188.845 83.2541 188.81 83.5347 188.761 83.5347Z" fill="#263238"/>
<path d="M191.272 83.2802H167.02V85.7008H191.272V83.2802Z" fill="#263238"/>
<path opacity="0.4" d="M173.059 69.8427H175.698L175.988 71.5195H173.059V69.8427Z" fill="white"/>
<path d="M198.792 95.0606C198.789 95.003 198.789 94.9453 198.792 94.8877C198.792 94.7605 198.792 94.5941 198.792 94.3788C198.792 93.922 198.792 93.2696 198.769 92.4442L198.815 92.4899C195.879 92.516 190.6 92.529 184.594 92.529L172.687 92.5062L169.066 92.4768H168.087H167.833C167.803 92.4811 167.774 92.4811 167.745 92.4768H167.833H168.087L169.066 92.4605L172.674 92.4344L184.581 92.4083C190.587 92.4083 195.859 92.4246 198.802 92.4475H198.848V92.4344C198.848 93.2598 198.848 93.9123 198.825 94.369C198.825 94.5843 198.825 94.7507 198.825 94.8779C198.82 94.9398 198.809 95.001 198.792 95.0606Z" fill="#263238"/>
<path d="M195.491 95.1714C195.377 94.2735 195.377 93.3649 195.491 92.4669C195.604 93.3649 195.604 94.2735 195.491 95.1714Z" fill="#263238"/>
<path d="M189.945 95.1714C189.827 94.2737 189.827 93.3646 189.945 92.4669C190.058 93.3649 190.058 94.2735 189.945 95.1714Z" fill="#263238"/>
<path d="M184.399 95.1714C184.286 94.2735 184.286 93.3649 184.399 92.4669C184.512 93.3649 184.512 94.2735 184.399 95.1714Z" fill="#263238"/>
<path d="M178.853 95.1714C178.74 94.2735 178.74 93.3649 178.853 92.4669C178.966 93.3649 178.966 94.2735 178.853 95.1714Z" fill="#263238"/>
<path d="M173.284 95.1714C173.171 94.2735 173.171 93.3649 173.284 92.4669C173.401 93.3646 173.401 94.2737 173.284 95.1714Z" fill="#263238"/>
<path d="M167.731 95.1714C167.618 94.2735 167.618 93.3649 167.731 92.4669C167.845 93.3649 167.845 94.2735 167.731 95.1714Z" fill="#263238"/>
<path d="M162.179 95.1714C162.066 94.2735 162.066 93.3649 162.179 92.4669C162.292 93.3649 162.292 94.2735 162.179 95.1714Z" fill="#263238"/>
</svg>
