<svg width="235" height="43" viewBox="0 0 235 43" fill="none" xmlns="http://www.w3.org/2000/svg">
<path d="M22.3604 32L19.0844 22.718H7.95444L4.72044 32H0.898438L11.8184 1.886H15.3464L26.2244 32H22.3604ZM14.8844 10.286C14.8284 10.062 14.7024 9.656 14.5064 9.068C14.3384 8.48 14.1564 7.878 13.9604 7.262C13.7924 6.618 13.6524 6.128 13.5404 5.792C13.4004 6.352 13.2464 6.926 13.0784 7.514C12.9384 8.074 12.7984 8.592 12.6584 9.068C12.5184 9.544 12.3924 9.95 12.2804 10.286L9.17244 19.358H17.9924L14.8844 10.286ZM43.3401 32H27.7581V29.564L39.0141 12.344H28.4301V9.488H43.0881V12.26L31.9581 29.144H43.3401V32ZM56.4172 9.068C58.2372 9.068 59.8052 9.488 61.1212 10.328C62.4372 11.168 63.4452 12.358 64.1452 13.898C64.8732 15.41 65.2372 17.188 65.2372 19.232V21.458H50.7892C50.8452 24.006 51.4472 25.952 52.5952 27.296C53.7432 28.612 55.3532 29.27 57.4252 29.27C58.7692 29.27 59.9592 29.144 60.9952 28.892C62.0592 28.612 63.1512 28.22 64.2712 27.716V30.95C63.1792 31.454 62.1012 31.818 61.0372 32.042C60.0012 32.294 58.7412 32.42 57.2572 32.42C55.2412 32.42 53.4632 31.986 51.9232 31.118C50.3832 30.25 49.1792 28.962 48.3112 27.254C47.4432 25.518 47.0092 23.404 47.0092 20.912C47.0092 18.448 47.4012 16.334 48.1852 14.57C48.9692 12.806 50.0612 11.448 51.4612 10.496C52.8892 9.544 54.5412 9.068 56.4172 9.068ZM56.4172 12.092C54.7932 12.092 53.5052 12.666 52.5532 13.814C51.6012 14.934 51.0412 16.502 50.8732 18.518H61.4572C61.4572 17.23 61.2752 16.11 60.9112 15.158C60.5472 14.206 59.9872 13.464 59.2312 12.932C58.5032 12.372 57.5652 12.092 56.4172 12.092ZM74.1927 32H70.5387V0.0799979H74.1927V32ZM84.5296 9.488V32H80.8756V9.488H84.5296ZM82.7236 1.046C83.2836 1.046 83.7736 1.242 84.1936 1.634C84.6136 1.998 84.8236 2.586 84.8236 3.398C84.8236 4.182 84.6136 4.77 84.1936 5.162C83.7736 5.554 83.2836 5.75 82.7236 5.75C82.1356 5.75 81.6316 5.554 81.2116 5.162C80.7916 4.77 80.5816 4.182 80.5816 3.398C80.5816 2.586 80.7916 1.998 81.2116 1.634C81.6316 1.242 82.1356 1.046 82.7236 1.046ZM105.072 25.784C105.072 27.24 104.722 28.458 104.022 29.438C103.35 30.418 102.384 31.16 101.124 31.664C99.8636 32.168 98.3516 32.42 96.5876 32.42C95.1036 32.42 93.8156 32.294 92.7236 32.042C91.6596 31.79 90.7216 31.44 89.9096 30.992V27.632C90.7776 28.08 91.8136 28.5 93.0176 28.892C94.2216 29.256 95.4396 29.438 96.6716 29.438C98.3796 29.438 99.6116 29.144 100.368 28.556C101.152 27.94 101.544 27.128 101.544 26.12C101.544 25.56 101.39 25.056 101.082 24.608C100.802 24.16 100.284 23.712 99.5276 23.264C98.7996 22.816 97.7356 22.312 96.3356 21.752C94.9916 21.192 93.8296 20.632 92.8496 20.072C91.8976 19.512 91.1556 18.84 90.6236 18.056C90.1196 17.272 89.8676 16.264 89.8676 15.032C89.8676 13.128 90.5956 11.658 92.0516 10.622C93.5356 9.586 95.4676 9.068 97.8476 9.068C99.1356 9.068 100.34 9.208 101.46 9.488C102.58 9.74 103.644 10.104 104.652 10.58L103.434 13.52C102.846 13.24 102.23 13.002 101.586 12.806C100.942 12.582 100.284 12.414 99.6116 12.302C98.9676 12.162 98.3096 12.092 97.6376 12.092C96.2656 12.092 95.2156 12.344 94.4876 12.848C93.7596 13.324 93.3956 13.982 93.3956 14.822C93.3956 15.438 93.5636 15.97 93.8996 16.418C94.2356 16.866 94.7816 17.3 95.5376 17.72C96.3216 18.112 97.3856 18.574 98.7296 19.106C100.074 19.638 101.222 20.184 102.174 20.744C103.126 21.304 103.84 21.99 104.316 22.802C104.82 23.586 105.072 24.58 105.072 25.784ZM124.068 7.85C124.068 8.802 124.04 9.698 123.984 10.538C123.956 11.35 123.914 11.994 123.858 12.47H124.068C124.656 11.518 125.482 10.72 126.546 10.076C127.61 9.432 128.954 9.11 130.578 9.11C133.21 9.11 135.31 10.09 136.878 12.05C138.474 13.982 139.272 16.88 139.272 20.744C139.272 23.32 138.908 25.476 138.18 27.212C137.452 28.948 136.43 30.25 135.114 31.118C133.826 31.986 132.314 32.42 130.578 32.42C128.926 32.42 127.568 32.098 126.504 31.454C125.468 30.81 124.656 30.04 124.068 29.144H123.774L123.06 32H120.414V0.0799979H124.068V7.85ZM129.906 12.176C128.45 12.176 127.288 12.484 126.42 13.1C125.58 13.688 124.978 14.612 124.614 15.872C124.25 17.104 124.068 18.686 124.068 20.618V20.786C124.068 23.558 124.474 25.686 125.286 27.17C126.126 28.626 127.694 29.354 129.99 29.354C131.81 29.354 133.182 28.612 134.106 27.128C135.03 25.644 135.492 23.502 135.492 20.702C135.492 17.874 135.03 15.746 134.106 14.318C133.182 12.89 131.782 12.176 129.906 12.176ZM154.774 9.068C155.166 9.068 155.586 9.096 156.034 9.152C156.482 9.18 156.874 9.236 157.21 9.32L156.79 12.722C156.454 12.638 156.076 12.568 155.656 12.512C155.264 12.456 154.886 12.428 154.522 12.428C153.71 12.428 152.94 12.61 152.212 12.974C151.484 13.338 150.826 13.856 150.238 14.528C149.678 15.172 149.23 15.956 148.894 16.88C148.558 17.804 148.39 18.84 148.39 19.988V32H144.736V9.488H147.718L148.138 13.604H148.306C148.754 12.764 149.286 12.008 149.902 11.336C150.546 10.636 151.274 10.09 152.086 9.698C152.898 9.278 153.794 9.068 154.774 9.068ZM164.838 9.488V32H161.184V9.488H164.838ZM163.032 1.046C163.592 1.046 164.082 1.242 164.502 1.634C164.922 1.998 165.132 2.586 165.132 3.398C165.132 4.182 164.922 4.77 164.502 5.162C164.082 5.554 163.592 5.75 163.032 5.75C162.444 5.75 161.94 5.554 161.52 5.162C161.1 4.77 160.89 4.182 160.89 3.398C160.89 2.586 161.1 1.998 161.52 1.634C161.94 1.242 162.444 1.046 163.032 1.046ZM181.81 9.068C184.33 9.068 186.234 9.726 187.522 11.042C188.838 12.33 189.496 14.43 189.496 17.342V32H185.842V17.594C185.842 15.774 185.464 14.416 184.708 13.52C183.952 12.624 182.79 12.176 181.222 12.176C178.926 12.176 177.33 12.876 176.434 14.276C175.566 15.676 175.132 17.692 175.132 20.324V32H171.478V9.488H174.418L174.964 12.554H175.174C175.622 11.77 176.196 11.126 176.896 10.622C177.596 10.09 178.366 9.698 179.206 9.446C180.046 9.194 180.914 9.068 181.81 9.068ZM203.481 9.068C204.882 9.068 206.128 9.348 207.22 9.908C208.34 10.468 209.292 11.322 210.076 12.47H210.286L210.748 9.488H213.688V32.378C213.688 34.506 213.338 36.284 212.638 37.712C211.966 39.168 210.916 40.26 209.488 40.988C208.088 41.716 206.296 42.08 204.112 42.08C202.572 42.08 201.172 41.954 199.912 41.702C198.652 41.478 197.504 41.128 196.468 40.652V37.25C197.168 37.614 197.924 37.922 198.736 38.174C199.576 38.454 200.458 38.664 201.382 38.804C202.334 38.944 203.314 39.014 204.322 39.014C206.114 39.014 207.514 38.44 208.522 37.292C209.558 36.172 210.076 34.632 210.076 32.672V31.79C210.076 31.454 210.09 30.978 210.118 30.362C210.146 29.718 210.174 29.27 210.202 29.018H210.034C209.306 30.166 208.396 31.02 207.304 31.58C206.212 32.14 204.952 32.42 203.524 32.42C200.808 32.42 198.68 31.398 197.14 29.354C195.6 27.31 194.83 24.454 194.83 20.786C194.83 18.378 195.166 16.306 195.838 14.57C196.538 12.806 197.532 11.448 198.82 10.496C200.136 9.544 201.69 9.068 203.481 9.068ZM204.07 12.176C202.922 12.176 201.928 12.512 201.088 13.184C200.276 13.856 199.66 14.836 199.24 16.124C198.82 17.412 198.61 18.98 198.61 20.828C198.61 23.6 199.072 25.728 199.996 27.212C200.948 28.668 202.334 29.396 204.154 29.396C205.19 29.396 206.086 29.256 206.842 28.976C207.598 28.668 208.214 28.206 208.69 27.59C209.166 26.946 209.516 26.134 209.74 25.154C209.992 24.174 210.118 23.012 210.118 21.668V20.786C210.118 18.742 209.894 17.09 209.446 15.83C209.026 14.57 208.368 13.646 207.472 13.058C206.604 12.47 205.47 12.176 204.07 12.176ZM234.23 25.784C234.23 27.24 233.88 28.458 233.18 29.438C232.508 30.418 231.542 31.16 230.282 31.664C229.022 32.168 227.51 32.42 225.746 32.42C224.262 32.42 222.974 32.294 221.882 32.042C220.818 31.79 219.88 31.44 219.068 30.992V27.632C219.936 28.08 220.972 28.5 222.176 28.892C223.38 29.256 224.598 29.438 225.83 29.438C227.538 29.438 228.77 29.144 229.526 28.556C230.31 27.94 230.702 27.128 230.702 26.12C230.702 25.56 230.548 25.056 230.24 24.608C229.96 24.16 229.442 23.712 228.686 23.264C227.958 22.816 226.894 22.312 225.494 21.752C224.15 21.192 222.988 20.632 222.008 20.072C221.056 19.512 220.314 18.84 219.782 18.056C219.278 17.272 219.026 16.264 219.026 15.032C219.026 13.128 219.754 11.658 221.21 10.622C222.694 9.586 224.626 9.068 227.006 9.068C228.294 9.068 229.498 9.208 230.618 9.488C231.738 9.74 232.802 10.104 233.81 10.58L232.592 13.52C232.004 13.24 231.388 13.002 230.744 12.806C230.1 12.582 229.442 12.414 228.77 12.302C228.126 12.162 227.468 12.092 226.796 12.092C225.424 12.092 224.374 12.344 223.646 12.848C222.918 13.324 222.554 13.982 222.554 14.822C222.554 15.438 222.722 15.97 223.058 16.418C223.394 16.866 223.94 17.3 224.696 17.72C225.48 18.112 226.544 18.574 227.888 19.106C229.232 19.638 230.38 20.184 231.332 20.744C232.284 21.304 232.998 21.99 233.474 22.802C233.978 23.586 234.23 24.58 234.23 25.784Z" fill="white"/>
</svg>
