<svg width="71" height="27" viewBox="0 0 71 27" fill="none" xmlns="http://www.w3.org/2000/svg">
<path d="M2.00084 13.5L24.1387 13.5" stroke="#265BA7" stroke-width="2.07542" stroke-linecap="round" stroke-linejoin="round"/>
<path d="M10.9287 22.3916L1.99979 13.501L10.9287 4.60902" stroke="#265BA7" stroke-width="2.07542" stroke-linecap="round" stroke-linejoin="round"/>
<path d="M39.1296 8.076C40.1003 8.076 40.911 8.16667 41.5616 8.348C42.223 8.52933 42.719 8.83333 43.0496 9.26C43.391 9.676 43.5616 10.2307 43.5616 10.924C43.5616 11.372 43.4816 11.772 43.3216 12.124C43.1616 12.4653 42.927 12.7533 42.6176 12.988C42.319 13.212 41.9456 13.3613 41.4976 13.436V13.516C41.9563 13.5907 42.367 13.7293 42.7296 13.932C43.0923 14.124 43.3803 14.4067 43.5936 14.78C43.807 15.1533 43.9136 15.6387 43.9136 16.236C43.9136 16.9293 43.7483 17.5213 43.4176 18.012C43.0976 18.492 42.6336 18.86 42.0256 19.116C41.4283 19.372 40.7136 19.5 39.8816 19.5H35.7856V8.076H39.1296ZM39.4176 12.844C40.3136 12.844 40.927 12.7 41.2576 12.412C41.599 12.124 41.7696 11.6973 41.7696 11.132C41.7696 10.556 41.567 10.1453 41.1616 9.9C40.7563 9.65467 40.111 9.532 39.2256 9.532H37.5136V12.844H39.4176ZM37.5136 14.252V18.06H39.6096C40.5376 18.06 41.183 17.8787 41.5456 17.516C41.9083 17.1533 42.0896 16.6733 42.0896 16.076C42.0896 15.7133 42.0096 15.3933 41.8496 15.116C41.6896 14.8387 41.4176 14.6253 41.0336 14.476C40.6603 14.3267 40.1483 14.252 39.4976 14.252H37.5136ZM49.4376 10.716C50.5256 10.716 51.3363 10.956 51.8696 11.436C52.403 11.9053 52.6696 12.6467 52.6696 13.66V19.5H51.4696L51.1336 18.3H51.0696C50.8243 18.6093 50.5683 18.8653 50.3016 19.068C50.0456 19.2707 49.747 19.42 49.4056 19.516C49.075 19.612 48.6696 19.66 48.1896 19.66C47.6776 19.66 47.2136 19.5693 46.7976 19.388C46.3923 19.196 46.0723 18.908 45.8376 18.524C45.603 18.1293 45.4856 17.6387 45.4856 17.052C45.4856 16.1773 45.8163 15.5107 46.4776 15.052C47.1496 14.5933 48.1683 14.3427 49.5336 14.3L51.0056 14.252V13.772C51.0056 13.132 50.8616 12.684 50.5736 12.428C50.2856 12.172 49.8803 12.044 49.3576 12.044C48.9096 12.044 48.483 12.108 48.0776 12.236C47.6723 12.364 47.2883 12.5187 46.9256 12.7L46.3816 11.468C46.787 11.2547 47.251 11.0787 47.7736 10.94C48.307 10.7907 48.8616 10.716 49.4376 10.716ZM49.8376 15.388C48.8563 15.4307 48.1736 15.596 47.7896 15.884C47.4163 16.1613 47.2296 16.556 47.2296 17.068C47.2296 17.516 47.363 17.8413 47.6296 18.044C47.907 18.2467 48.2536 18.348 48.6696 18.348C49.3416 18.348 49.8963 18.1613 50.3336 17.788C50.771 17.4147 50.9896 16.8547 50.9896 16.108V15.356L49.8376 15.388ZM58.7531 19.66C57.9638 19.66 57.2705 19.5053 56.6731 19.196C56.0758 18.8867 55.6118 18.4067 55.2811 17.756C54.9505 17.0947 54.7851 16.2573 54.7851 15.244C54.7851 14.1773 54.9611 13.3133 55.3131 12.652C55.6758 11.9907 56.1611 11.5053 56.7691 11.196C57.3878 10.876 58.0918 10.716 58.8811 10.716C59.3611 10.716 59.8091 10.7693 60.2251 10.876C60.6518 10.972 61.0038 11.084 61.2811 11.212L60.7691 12.588C60.4705 12.4707 60.1505 12.3693 59.8091 12.284C59.4785 12.1987 59.1638 12.156 58.8651 12.156C58.3318 12.156 57.8891 12.2733 57.5371 12.508C57.1958 12.732 56.9398 13.0733 56.7691 13.532C56.6091 13.98 56.5291 14.5453 56.5291 15.228C56.5291 15.8787 56.6145 16.428 56.7851 16.876C56.9558 17.324 57.2065 17.6653 57.5371 17.9C57.8785 18.124 58.2998 18.236 58.8011 18.236C59.2811 18.236 59.7025 18.1827 60.0651 18.076C60.4278 17.9693 60.7691 17.8307 61.0891 17.66V19.132C60.7798 19.3133 60.4438 19.4467 60.0811 19.532C59.7185 19.6173 59.2758 19.66 58.7531 19.66ZM64.8049 13.42C64.8049 13.644 64.7942 13.9 64.7729 14.188C64.7622 14.476 64.7462 14.7427 64.7249 14.988H64.7729C64.8582 14.8813 64.9595 14.7533 65.0769 14.604C65.2049 14.444 65.3329 14.284 65.4609 14.124C65.5889 13.964 65.7062 13.8253 65.8129 13.708L68.4529 10.876H70.4209L66.9489 14.572L70.6449 19.5H68.6449L65.7969 15.644L64.8049 16.476V19.5H63.1249V7.34H64.8049V13.42Z" fill="#265BA7"/>
</svg>
