<svg width="32" height="32" viewBox="0 0 32 32" fill="none" xmlns="http://www.w3.org/2000/svg">
<path d="M10.3996 19.9999C10.1874 19.9999 9.98395 19.9156 9.83392 19.7656C9.68389 19.6156 9.59961 19.4121 9.59961 19.1999C9.59961 18.9877 9.68389 18.7842 9.83392 18.6342C9.98395 18.4842 10.1874 18.3999 10.3996 18.3999H21.5996C21.8118 18.3999 22.0153 18.4842 22.1653 18.6342C22.3153 18.7842 22.3996 18.9877 22.3996 19.1999C22.3996 19.4121 22.3153 19.6156 22.1653 19.7656C22.0153 19.9156 21.8118 19.9999 21.5996 19.9999H10.3996ZM10.3996 23.9999C10.1874 23.9999 9.98395 23.9156 9.83392 23.7656C9.68389 23.6156 9.59961 23.4121 9.59961 23.1999C9.59961 22.9877 9.68389 22.7842 9.83392 22.6342C9.98395 22.4842 10.1874 22.3999 10.3996 22.3999H21.5996C21.8118 22.3999 22.0153 22.4842 22.1653 22.6342C22.3153 22.7842 22.3996 22.9877 22.3996 23.1999C22.3996 23.4121 22.3153 23.6156 22.1653 23.7656C22.0153 23.9156 21.8118 23.9999 21.5996 23.9999H10.3996Z" fill="#4DB9F4"/>
<path fill-rule="evenodd" clip-rule="evenodd" d="M17.8958 1.6001H7.1998C6.56329 1.6001 5.95284 1.85295 5.50275 2.30304C5.05266 2.75313 4.7998 3.36358 4.7998 4.0001V28.0001C4.7998 28.6366 5.05266 29.2471 5.50275 29.6972C5.95284 30.1472 6.56329 30.4001 7.1998 30.4001H24.7998C25.4363 30.4001 26.0468 30.1472 26.4969 29.6972C26.9469 29.2471 27.1998 28.6366 27.1998 28.0001V11.5233C27.1997 10.9225 26.9741 10.3435 26.5678 9.9009L19.6654 2.3777C19.4405 2.13249 19.167 1.93674 18.8623 1.80287C18.5577 1.66901 18.2286 1.59995 17.8958 1.6001ZM6.3998 4.0001C6.3998 3.78792 6.48409 3.58444 6.63412 3.43441C6.78415 3.28438 6.98763 3.2001 7.1998 3.2001H17.8958C18.0068 3.19998 18.1166 3.22296 18.2183 3.26758C18.3199 3.31221 18.4112 3.3775 18.4862 3.4593L25.3886 10.9825C25.5242 11.13 25.5996 11.3229 25.5998 11.5233V28.0001C25.5998 28.2123 25.5155 28.4158 25.3655 28.5658C25.2155 28.7158 25.012 28.8001 24.7998 28.8001H7.1998C6.98763 28.8001 6.78415 28.7158 6.63412 28.5658C6.48409 28.4158 6.3998 28.2123 6.3998 28.0001V4.0001Z" fill="#4DB9F4"/>
<path d="M18.3999 3.35986V10.8799H25.9199" stroke="#4DB9F4" stroke-width="1.5" stroke-linecap="round" stroke-linejoin="round"/>
<path d="M13.0143 9.81301C13.2428 9.82001 13.4704 9.78105 13.6835 9.69844C13.8967 9.61584 14.091 9.49127 14.2551 9.33212C14.4192 9.17298 14.5497 8.9825 14.6388 8.77198C14.7279 8.56147 14.7738 8.33521 14.7738 8.10661C14.7738 7.87802 14.7279 7.65176 14.6388 7.44124C14.5497 7.23073 14.4192 7.04025 14.2551 6.8811C14.091 6.72196 13.8967 6.59739 13.6835 6.51478C13.4704 6.43218 13.2428 6.39322 13.0143 6.40021C12.5708 6.4138 12.15 6.59953 11.8411 6.91806C11.5321 7.23659 11.3594 7.66289 11.3594 8.10661C11.3594 8.55034 11.5321 8.97664 11.8411 9.29517C12.15 9.6137 12.5708 9.79943 13.0143 9.81301Z" fill="#4DB9F4"/>
<path fill-rule="evenodd" clip-rule="evenodd" d="M16.4252 13.5103C16.4252 11.6959 14.8972 10.3823 13.0124 10.3823C11.1276 10.3823 9.59961 11.6943 9.59961 13.5103V14.3647C9.60003 14.5155 9.66023 14.66 9.76701 14.7665C9.87378 14.8729 10.0184 14.9327 10.1692 14.9327H15.8572C16.0077 14.9323 16.152 14.8723 16.2584 14.7659C16.3648 14.6595 16.4248 14.5152 16.4252 14.3647V13.5103Z" fill="#4DB9F4"/>
</svg>
