<svg width="41" height="41" viewBox="0 0 41 41" fill="none" xmlns="http://www.w3.org/2000/svg">
<path d="M13.4867 35.9173H27.5133C29.0604 35.9173 30.5442 35.3027 31.6381 34.2088C32.7321 33.1148 33.3467 31.6311 33.3467 30.084V20.8673C33.3472 19.3204 32.7333 17.8366 31.64 16.7423L21.6917 6.79232C21.1499 6.25066 20.5068 5.821 19.7991 5.52788C19.0913 5.23477 18.3327 5.08393 17.5667 5.08398H13.4867C11.9396 5.08398 10.4558 5.69857 9.36186 6.79253C8.2679 7.88649 7.65332 9.37022 7.65332 10.9173V30.084C7.65332 31.6311 8.2679 33.1148 9.36186 34.2088C10.4558 35.3027 11.9396 35.9173 13.4867 35.9173Z" stroke="#265BA7" stroke-width="2.5" stroke-linecap="round" stroke-linejoin="round"/>
<path d="M19.9805 5.68457V15.1179C19.9805 16.002 20.3317 16.8498 20.9568 17.4749C21.5819 18.1 22.4297 18.4512 23.3138 18.4512H32.7505" stroke="#265BA7" stroke-width="2.5" stroke-linecap="round" stroke-linejoin="round"/>
<path d="M12.583 28.001V26.3343M12.583 26.3343V23.001H14.2497C14.6917 23.001 15.1156 23.1766 15.4282 23.4891C15.7407 23.8017 15.9163 24.2256 15.9163 24.6676C15.9163 25.1097 15.7407 25.5336 15.4282 25.8462C15.1156 26.1587 14.6917 26.3343 14.2497 26.3343H12.583ZM25.9163 28.001V25.9176M25.9163 25.9176V23.001H28.4163M25.9163 25.9176H28.4163M19.2497 28.001V23.001H20.083C20.746 23.001 21.3819 23.2644 21.8508 23.7332C22.3196 24.2021 22.583 24.8379 22.583 25.501C22.583 26.164 22.3196 26.7999 21.8508 27.2687C21.3819 27.7376 20.746 28.001 20.083 28.001H19.2497Z" stroke="#265BA7" stroke-width="1.66667" stroke-linecap="round" stroke-linejoin="round"/>
</svg>
