<svg width="48" height="49" viewBox="0 0 48 49" fill="none" xmlns="http://www.w3.org/2000/svg">
<path d="M30.7799 10.919L33.5999 16.559C33.9799 17.339 34.9999 18.079 35.8599 18.239L40.9599 19.079C44.2199 19.619 44.9799 21.979 42.6399 24.339L38.6599 28.319C37.9999 28.979 37.6199 30.279 37.8399 31.219L38.9799 36.139C39.8799 40.019 37.7999 41.539 34.3799 39.499L29.5999 36.659C28.7399 36.139 27.2999 36.139 26.4399 36.659L21.6599 39.499C18.2399 41.519 16.1599 40.019 17.0599 36.139L18.1999 31.219C18.4199 30.299 18.0399 28.999 17.3799 28.319L13.3999 24.339C11.0599 21.999 11.8199 19.639 15.0799 19.079L20.1799 18.239C21.0399 18.099 22.0599 17.339 22.4399 16.559L25.2599 10.919C26.7599 7.85902 29.2399 7.85902 30.7799 10.919Z" stroke="#265BA7" stroke-width="3" stroke-linecap="round" stroke-linejoin="round"/>
<path d="M16.001 10.501H4.00098" stroke="#265BA7" stroke-width="3" stroke-linecap="round" stroke-linejoin="round"/>
<path d="M10.001 38.499H4.00098" stroke="#265BA7" stroke-width="3" stroke-linecap="round" stroke-linejoin="round"/>
<path d="M6.00098 24.5H4.00098" stroke="#265BA7" stroke-width="3" stroke-linecap="round" stroke-linejoin="round"/>
</svg>
