<svg width="18" height="16" viewBox="0 0 18 16" fill="none" xmlns="http://www.w3.org/2000/svg">
<path d="M15.3832 1.32493C13.1832 -0.175065 10.4665 0.524935 8.99985 2.2416C7.53319 0.524935 4.81652 -0.183399 2.61652 1.32493C1.44985 2.12493 0.716519 3.47493 0.666519 4.89993C0.549852 8.13327 3.41652 10.7249 7.79152 14.6999L7.87485 14.7749C8.50819 15.3499 9.48319 15.3499 10.1165 14.7666L10.2082 14.6833C14.5832 10.7166 17.4415 8.12494 17.3332 4.8916C17.2832 3.47494 16.5499 2.12493 15.3832 1.32493ZM9.08319 13.4583L8.99985 13.5416L8.91652 13.4583C4.94985 9.8666 2.33319 7.4916 2.33319 5.08327C2.33319 3.4166 3.58319 2.1666 5.24985 2.1666C6.53319 2.1666 7.78319 2.9916 8.22485 4.13327H9.78319C10.2165 2.9916 11.4665 2.1666 12.7499 2.1666C14.4165 2.1666 15.6665 3.4166 15.6665 5.08327C15.6665 7.4916 13.0499 9.8666 9.08319 13.4583Z" fill="black"/>
</svg>
