<svg width="102" height="51" viewBox="0 0 102 51" fill="none" xmlns="http://www.w3.org/2000/svg">
<path d="M15.6311 13H10.1892V11.5923L11.6827 10.94V2.803L10.1892 2.15067V0.742998H15.6311V2.15067L14.1376 2.803V10.94L15.6311 11.5923V13ZM22.7692 3.4725C23.7877 3.4725 24.5946 3.74717 25.1897 4.2965C25.7962 4.83439 26.0995 5.70417 26.0995 6.90583V13H23.6618V7.47233C23.6618 6.78567 23.5359 6.27639 23.2842 5.9445C23.0324 5.60117 22.6318 5.4295 22.0825 5.4295C21.2814 5.4295 20.7321 5.69844 20.4345 6.23633C20.1369 6.77422 19.9882 7.54672 19.9882 8.55383V13H17.5505V3.64417H19.4217L19.7478 4.863H19.8852C20.0912 4.54255 20.3429 4.27933 20.6405 4.07333C20.9381 3.86733 21.2699 3.71855 21.6362 3.627C22.0024 3.524 22.3801 3.4725 22.7692 3.4725ZM33.9677 3.4725C34.9863 3.4725 35.7931 3.74717 36.3882 4.2965C36.9948 4.83439 37.2981 5.70417 37.2981 6.90583V13H34.8604V7.47233C34.8604 6.78567 34.7345 6.27639 34.4827 5.9445C34.231 5.60117 33.8304 5.4295 33.2811 5.4295C32.48 5.4295 31.9306 5.69844 31.6331 6.23633C31.3355 6.77422 31.1867 7.54672 31.1867 8.55383V13H28.7491V3.64417H30.6202L30.9464 4.863H31.0837C31.2897 4.54255 31.5415 4.27933 31.8391 4.07333C32.1366 3.86733 32.4685 3.71855 32.8347 3.627C33.201 3.524 33.5786 3.4725 33.9677 3.4725ZM48.3936 8.3135C48.3936 9.09172 48.2849 9.78411 48.0675 10.3907C47.8615 10.9858 47.5639 11.4951 47.1748 11.9185C46.7857 12.3305 46.3107 12.6452 45.75 12.8627C45.2006 13.0687 44.5769 13.1717 43.8788 13.1717C43.2265 13.1717 42.6199 13.0687 42.0591 12.8627C41.5098 12.6452 41.0349 12.3305 40.6343 11.9185C40.2452 11.4951 39.9362 10.9801 39.7073 10.3735C39.4899 9.76694 39.3811 9.07455 39.3811 8.29633C39.3811 7.26633 39.5642 6.39655 39.9305 5.687C40.2967 4.966 40.8174 4.41667 41.4926 4.039C42.1793 3.66133 42.9861 3.4725 43.9131 3.4725C44.7944 3.4725 45.5669 3.66133 46.2306 4.039C46.9059 4.41667 47.4323 4.966 47.81 5.687C48.1991 6.39655 48.3936 7.27205 48.3936 8.3135ZM41.8703 8.3135C41.8703 8.94294 41.939 9.47511 42.0763 9.91C42.2136 10.3334 42.4311 10.6539 42.7286 10.8713C43.0376 11.0888 43.4267 11.1975 43.896 11.1975C44.3766 11.1975 44.76 11.0888 45.0461 10.8713C45.3437 10.6539 45.5611 10.3334 45.6985 9.91C45.8358 9.47511 45.9045 8.94294 45.9045 8.3135C45.9045 7.67261 45.8358 7.14044 45.6985 6.717C45.5611 6.29355 45.3437 5.97883 45.0461 5.77283C44.7486 5.55539 44.3595 5.44667 43.8788 5.44667C43.1692 5.44667 42.6542 5.687 42.3338 6.16767C42.0248 6.64833 41.8703 7.36361 41.8703 8.3135ZM52.4047 13L48.8512 3.64417H51.4091L53.2287 9.00017C53.2974 9.20617 53.3603 9.42933 53.4176 9.66967C53.4748 9.91 53.5206 10.1446 53.5549 10.3735C53.5892 10.5909 53.6121 10.7912 53.6236 10.9743H53.6922C53.7151 10.7798 53.7437 10.5738 53.7781 10.3563C53.8238 10.1274 53.8753 9.89856 53.9326 9.66967C53.9898 9.42933 54.0527 9.20617 54.1214 9.00017L55.9411 3.64417H58.4989L54.9282 13H52.4047ZM63.6407 3.45533C64.8882 3.45533 65.8381 3.72428 66.4904 4.26217C67.1427 4.80005 67.4689 5.62978 67.4689 6.75133V13H65.7694L65.2887 11.7297H65.2201C64.9568 12.0616 64.6822 12.3362 64.3961 12.5537C64.1214 12.7711 63.8009 12.9256 63.4347 13.0172C63.0799 13.1202 62.6393 13.1717 62.1129 13.1717C61.5636 13.1717 61.0657 13.0687 60.6194 12.8627C60.1845 12.6452 59.8412 12.3191 59.5894 11.8842C59.3376 11.4493 59.2117 10.8999 59.2117 10.2362C59.2117 9.2405 59.5608 8.50806 60.2589 8.03883C60.9684 7.55817 62.0271 7.29494 63.4347 7.24917L65.0656 7.19767V6.7685C65.0656 6.24205 64.9282 5.86439 64.6536 5.6355C64.3903 5.39517 64.0184 5.275 63.5377 5.275C63.0799 5.275 62.6336 5.34367 62.1987 5.481C61.7638 5.60689 61.3347 5.76711 60.9112 5.96167L60.1044 4.2965C60.5965 4.04472 61.1458 3.84444 61.7524 3.69567C62.3589 3.53544 62.9884 3.45533 63.6407 3.45533ZM64.0184 8.674C63.1601 8.69689 62.5592 8.85139 62.2159 9.1375C61.884 9.41217 61.7181 9.78411 61.7181 10.2533C61.7181 10.6539 61.8382 10.94 62.0786 11.1117C62.3189 11.2833 62.6279 11.3692 63.0056 11.3692C63.5892 11.3692 64.0756 11.2032 64.4647 10.8713C64.8538 10.528 65.0484 10.0416 65.0484 9.41217V8.63967L64.0184 8.674ZM73.9688 11.2147C74.2434 11.2147 74.5124 11.1918 74.7756 11.146C75.0388 11.0888 75.2963 11.0201 75.5481 10.94V12.7597C75.2849 12.8741 74.953 12.9714 74.5524 13.0515C74.1633 13.1316 73.7399 13.1717 73.2821 13.1717C72.7328 13.1717 72.2406 13.0801 71.8058 12.897C71.3709 12.7139 71.0218 12.3992 70.7586 11.9528C70.5068 11.5065 70.3809 10.8885 70.3809 10.0988V5.481H69.1449V4.43383L70.5526 3.60983L71.2736 1.63566H72.8186V3.64417H75.4451V5.481H72.8186V10.0988C72.8186 10.4765 72.9216 10.7569 73.1276 10.94C73.345 11.1231 73.6254 11.2147 73.9688 11.2147ZM79.8536 3.64417V13H77.4159V3.64417H79.8536ZM78.6347 0.00483187C79.001 0.00483187 79.3157 0.0906651 79.5789 0.262332C79.8421 0.433998 79.9737 0.754443 79.9737 1.22366C79.9737 1.67 79.8421 1.98472 79.5789 2.16783C79.3157 2.35094 79.001 2.4425 78.6347 2.4425C78.2571 2.4425 77.9423 2.35094 77.6906 2.16783C77.4388 1.98472 77.3129 1.67 77.3129 1.22366C77.3129 0.754443 77.4388 0.433998 77.6906 0.262332C77.9423 0.0906651 78.2571 0.00483187 78.6347 0.00483187ZM91.0086 8.3135C91.0086 9.09172 90.8998 9.78411 90.6824 10.3907C90.4764 10.9858 90.1788 11.4951 89.7897 11.9185C89.4006 12.3305 88.9257 12.6452 88.3649 12.8627C87.8156 13.0687 87.1918 13.1717 86.4937 13.1717C85.8414 13.1717 85.2348 13.0687 84.674 12.8627C84.1247 12.6452 83.6498 12.3305 83.2492 11.9185C82.8601 11.4951 82.5511 10.9801 82.3222 10.3735C82.1048 9.76694 81.996 9.07455 81.996 8.29633C81.996 7.26633 82.1792 6.39655 82.5454 5.687C82.9116 4.966 83.4323 4.41667 84.1075 4.039C84.7942 3.66133 85.601 3.4725 86.528 3.4725C87.4093 3.4725 88.1818 3.66133 88.8456 4.039C89.5208 4.41667 90.0472 4.966 90.4249 5.687C90.814 6.39655 91.0086 7.27205 91.0086 8.3135ZM84.4852 8.3135C84.4852 8.94294 84.5539 9.47511 84.6912 9.91C84.8285 10.3334 85.046 10.6539 85.3435 10.8713C85.6525 11.0888 86.0417 11.1975 86.5109 11.1975C86.9916 11.1975 87.3749 11.0888 87.6611 10.8713C87.9586 10.6539 88.1761 10.3334 88.3134 9.91C88.4507 9.47511 88.5194 8.94294 88.5194 8.3135C88.5194 7.67261 88.4507 7.14044 88.3134 6.717C88.1761 6.29355 87.9586 5.97883 87.6611 5.77283C87.3635 5.55539 86.9744 5.44667 86.4937 5.44667C85.7842 5.44667 85.2692 5.687 84.9487 6.16767C84.6397 6.64833 84.4852 7.36361 84.4852 8.3135ZM98.3763 3.4725C99.3948 3.4725 100.202 3.74717 100.797 4.2965C101.403 4.83439 101.707 5.70417 101.707 6.90583V13H99.2689V7.47233C99.2689 6.78567 99.143 6.27639 98.8913 5.9445C98.6395 5.60117 98.2389 5.4295 97.6896 5.4295C96.8885 5.4295 96.3392 5.69844 96.0416 6.23633C95.744 6.77422 95.5953 7.54672 95.5953 8.55383V13H93.1576V3.64417H95.0288L95.3549 4.863H95.4923C95.6983 4.54255 95.95 4.27933 96.2476 4.07333C96.5452 3.86733 96.877 3.71855 97.2433 3.627C97.6095 3.524 97.9872 3.4725 98.3763 3.4725ZM38.5122 30.2147C38.7869 30.2147 39.0558 30.1918 39.319 30.146C39.5823 30.0888 39.8398 30.0201 40.0915 29.94V31.7597C39.8283 31.8741 39.4964 31.9714 39.0959 32.0515C38.7068 32.1316 38.2833 32.1717 37.8255 32.1717C37.2762 32.1717 36.7841 32.0801 36.3492 31.897C35.9143 31.7139 35.5653 31.3992 35.302 30.9528C35.0503 30.5065 34.9244 29.8885 34.9244 29.0988V24.481H33.6884V23.4338L35.096 22.6098L35.817 20.6357H37.362V22.6442H39.9885V24.481H37.362V29.0988C37.362 29.4765 37.465 29.7569 37.671 29.94C37.8885 30.1231 38.1689 30.2147 38.5122 30.2147ZM44.397 21.7515C44.397 22.1749 44.3799 22.5927 44.3455 23.0047C44.3226 23.4052 44.2997 23.6913 44.2769 23.863H44.4142C44.6202 23.5426 44.8605 23.2851 45.1352 23.0905C45.4099 22.8845 45.7189 22.73 46.0622 22.627C46.4055 22.524 46.766 22.4725 47.1437 22.4725C47.8189 22.4725 48.4083 22.5927 48.9119 22.833C49.4154 23.0733 49.8045 23.4453 50.0792 23.9488C50.3653 24.4524 50.5084 25.1047 50.5084 25.9058V32H48.0707V26.4723C48.0707 25.7857 47.9448 25.2764 47.693 24.9445C47.4412 24.6012 47.0407 24.4295 46.4914 24.4295C45.9535 24.4295 45.53 24.5497 45.221 24.79C44.9235 25.0303 44.7117 25.3851 44.5859 25.8543C44.46 26.3121 44.397 26.8786 44.397 27.5538V32H41.9594V18.9533H44.397V21.7515ZM58.2736 22.4725C58.4109 22.4725 58.5654 22.4782 58.7371 22.4897C58.9088 22.5011 59.0518 22.5183 59.1663 22.5412L58.9774 24.8415C58.8859 24.8072 58.76 24.7843 58.5998 24.7728C58.451 24.7499 58.3136 24.7385 58.1878 24.7385C57.8559 24.7385 57.5354 24.79 57.2264 24.893C56.9174 24.9846 56.637 25.1276 56.3853 25.3222C56.1449 25.5053 55.9504 25.7571 55.8016 26.0775C55.6643 26.3865 55.5956 26.7642 55.5956 27.2105V32H53.1579V22.6442H55.0119L55.3724 24.2407H55.4754C55.6585 23.9202 55.8874 23.6284 56.1621 23.3652C56.4368 23.0905 56.7515 22.8731 57.1063 22.7128C57.4725 22.5526 57.8616 22.4725 58.2736 22.4725ZM68.9802 27.3135C68.9802 28.0917 68.8715 28.7841 68.6541 29.3907C68.4481 29.9858 68.1505 30.4951 67.7614 30.9185C67.3723 31.3305 66.8973 31.6452 66.3366 31.8627C65.7872 32.0687 65.1635 32.1717 64.4654 32.1717C63.8131 32.1717 63.2065 32.0687 62.6457 31.8627C62.0964 31.6452 61.6214 31.3305 61.2209 30.9185C60.8318 30.4951 60.5228 29.9801 60.2939 29.3735C60.0764 28.7669 59.9677 28.0746 59.9677 27.2963C59.9677 26.2663 60.1508 25.3966 60.5171 24.687C60.8833 23.966 61.404 23.4167 62.0792 23.039C62.7659 22.6613 63.5727 22.4725 64.4997 22.4725C65.3809 22.4725 66.1534 22.6613 66.8172 23.039C67.4924 23.4167 68.0189 23.966 68.3966 24.687C68.7857 25.3966 68.9802 26.2721 68.9802 27.3135ZM62.4569 27.3135C62.4569 27.9429 62.5256 28.4751 62.6629 28.91C62.8002 29.3334 63.0177 29.6539 63.3152 29.8713C63.6242 30.0888 64.0133 30.1975 64.4826 30.1975C64.9632 30.1975 65.3466 30.0888 65.6327 29.8713C65.9303 29.6539 66.1477 29.3334 66.2851 28.91C66.4224 28.4751 66.4911 27.9429 66.4911 27.3135C66.4911 26.6726 66.4224 26.1404 66.2851 25.717C66.1477 25.2936 65.9303 24.9788 65.6327 24.7728C65.3352 24.5554 64.9461 24.4467 64.4654 24.4467C63.7558 24.4467 63.2408 24.687 62.9204 25.1677C62.6114 25.6483 62.4569 26.3636 62.4569 27.3135ZM79.6268 22.6442V32H77.7556L77.4123 30.7983H77.2921C77.0976 31.1188 76.8458 31.382 76.5368 31.588C76.2392 31.7826 75.9073 31.9256 75.5411 32.0172C75.1749 32.1202 74.7972 32.1717 74.4081 32.1717C73.7329 32.1717 73.1435 32.0515 72.64 31.8112C72.1364 31.5708 71.7473 31.1989 71.4726 30.6953C71.198 30.1918 71.0606 29.5452 71.0606 28.7555V22.6442H73.4983V28.1718C73.4983 28.8471 73.6242 29.3563 73.876 29.6997C74.1277 30.043 74.5283 30.2147 75.0776 30.2147C75.627 30.2147 76.0504 30.0945 76.348 29.8542C76.657 29.6138 76.8744 29.2648 77.0003 28.807C77.1262 28.3378 77.1891 27.7713 77.1891 27.1075V22.6442H79.6268ZM85.3835 22.4725C85.9672 22.4725 86.4879 22.5869 86.9457 22.8158C87.4035 23.0447 87.7983 23.3881 88.1302 23.8458H88.1988L88.4048 22.6442H90.4477V32.0343C90.4477 32.927 90.276 33.6709 89.9327 34.266C89.5893 34.8726 89.0743 35.3303 88.3877 35.6393C87.701 35.9598 86.8484 36.12 85.8298 36.12C85.1661 36.12 84.5481 36.0799 83.9758 35.9998C83.4151 35.9197 82.8715 35.7767 82.345 35.5707V33.5965C82.7227 33.7567 83.1061 33.8883 83.4952 33.9913C83.8843 34.1058 84.2848 34.1859 84.6968 34.2317C85.1203 34.2889 85.5437 34.3175 85.9672 34.3175C86.6538 34.3175 87.1631 34.1344 87.495 33.7682C87.8383 33.4019 88.01 32.8583 88.01 32.1373V31.9313C88.01 31.7368 88.0157 31.5365 88.0272 31.3305C88.0501 31.1131 88.0672 30.9299 88.0787 30.7812H88.01C87.6896 31.2733 87.3062 31.6281 86.8598 31.8455C86.4135 32.0629 85.9042 32.1717 85.332 32.1717C84.2105 32.1717 83.335 31.7482 82.7055 30.9013C82.0761 30.043 81.7613 28.8585 81.7613 27.3478C81.7613 26.3178 81.9044 25.4423 82.1905 24.7213C82.4881 23.9889 82.9058 23.4338 83.4437 23.0562C83.993 22.6671 84.6396 22.4725 85.3835 22.4725ZM86.1217 24.4638C85.7097 24.4638 85.3606 24.5726 85.0745 24.79C84.7998 25.0074 84.5938 25.3336 84.4565 25.7685C84.3192 26.1919 84.2505 26.7241 84.2505 27.365C84.2505 28.3263 84.405 29.0473 84.714 29.528C85.023 30.0087 85.5037 30.249 86.156 30.249C86.5108 30.249 86.8141 30.2089 87.0658 30.1288C87.3176 30.0373 87.5236 29.8885 87.6838 29.6825C87.8441 29.4651 87.9642 29.1961 88.0443 28.8757C88.1245 28.5438 88.1645 28.1432 88.1645 27.674V27.3478C88.1645 26.6612 88.0901 26.1061 87.9413 25.6827C87.804 25.2592 87.5866 24.9502 87.289 24.7557C86.9915 24.5611 86.6023 24.4638 86.1217 24.4638ZM95.5953 21.7515C95.5953 22.1749 95.5781 22.5927 95.5438 23.0047C95.5209 23.4052 95.498 23.6913 95.4751 23.863H95.6124C95.8184 23.5426 96.0588 23.2851 96.3334 23.0905C96.6081 22.8845 96.9171 22.73 97.2604 22.627C97.6038 22.524 97.9643 22.4725 98.3419 22.4725C99.0172 22.4725 99.6065 22.5927 100.11 22.833C100.614 23.0733 101.003 23.4453 101.277 23.9488C101.564 24.4524 101.707 25.1047 101.707 25.9058V32H99.2689V26.4723C99.2689 25.7857 99.143 25.2764 98.8913 24.9445C98.6395 24.6012 98.2389 24.4295 97.6896 24.4295C97.1517 24.4295 96.7283 24.5497 96.4193 24.79C96.1217 25.0303 95.91 25.3851 95.7841 25.8543C95.6582 26.3121 95.5953 26.8786 95.5953 27.5538V32H93.1576V18.9533H95.5953V21.7515ZM6.94002 42.481H4.72552V50H2.28785V42.481H0.845851V41.3137L2.28785 40.6442V39.9747C2.28785 39.1736 2.41946 38.5498 2.68268 38.1035C2.94591 37.6572 3.32357 37.3424 3.81568 37.1593C4.3078 36.9648 4.89146 36.8675 5.56668 36.8675C6.04735 36.8675 6.48224 36.9076 6.87135 36.9877C7.27191 37.0678 7.59807 37.1536 7.84985 37.2452L7.21468 39.0477C7.03157 38.9904 6.81985 38.9389 6.57952 38.8932C6.35063 38.8359 6.09313 38.8073 5.80702 38.8073C5.42935 38.8073 5.15468 38.9218 4.98302 39.1507C4.81135 39.3796 4.72552 39.6828 4.72552 40.0605V40.6442H6.94002V42.481ZM16.8767 45.3135C16.8767 46.0917 16.768 46.7841 16.5505 47.3907C16.3445 47.9858 16.047 48.4951 15.6579 48.9185C15.2688 49.3305 14.7938 49.6452 14.233 49.8627C13.6837 50.0687 13.06 50.1717 12.3619 50.1717C11.7095 50.1717 11.103 50.0687 10.5422 49.8627C9.99287 49.6452 9.51792 49.3305 9.11737 48.9185C8.72826 48.4951 8.41926 47.9801 8.19037 47.3735C7.97292 46.7669 7.8642 46.0746 7.8642 45.2963C7.8642 44.2663 8.04731 43.3966 8.41353 42.687C8.77976 41.966 9.30048 41.4167 9.9757 41.039C10.6624 40.6613 11.4692 40.4725 12.3962 40.4725C13.2774 40.4725 14.0499 40.6613 14.7137 41.039C15.3889 41.4167 15.9154 41.966 16.293 42.687C16.6821 43.3966 16.8767 44.2721 16.8767 45.3135ZM10.3534 45.3135C10.3534 45.9429 10.422 46.4751 10.5594 46.91C10.6967 47.3334 10.9141 47.6539 11.2117 47.8713C11.5207 48.0888 11.9098 48.1975 12.379 48.1975C12.8597 48.1975 13.2431 48.0888 13.5292 47.8713C13.8268 47.6539 14.0442 47.3334 14.1815 46.91C14.3189 46.4751 14.3875 45.9429 14.3875 45.3135C14.3875 44.6726 14.3189 44.1404 14.1815 43.717C14.0442 43.2936 13.8268 42.9788 13.5292 42.7728C13.2316 42.5554 12.8425 42.4467 12.3619 42.4467C11.6523 42.4467 11.1373 42.687 10.8169 43.1677C10.5079 43.6483 10.3534 44.3636 10.3534 45.3135ZM24.1414 40.4725C24.2788 40.4725 24.4333 40.4782 24.6049 40.4897C24.7766 40.5011 24.9196 40.5183 25.0341 40.5412L24.8453 42.8415C24.7537 42.8072 24.6278 42.7843 24.4676 42.7728C24.3188 42.7499 24.1815 42.7385 24.0556 42.7385C23.7237 42.7385 23.4033 42.79 23.0943 42.893C22.7853 42.9846 22.5049 43.1276 22.2531 43.3222C22.0128 43.5053 21.8182 43.7571 21.6694 44.0775C21.5321 44.3865 21.4634 44.7642 21.4634 45.2105V50H19.0258V40.6442H20.8798L21.2403 42.2407H21.3433C21.5264 41.9202 21.7553 41.6284 22.0299 41.3652C22.3046 41.0905 22.6193 40.8731 22.9741 40.7128C23.3403 40.5526 23.7294 40.4725 24.1414 40.4725ZM37.6382 40.4725C38.6911 40.4725 39.4865 40.7472 40.0243 41.2965C40.5737 41.8344 40.8483 42.7042 40.8483 43.9058V50H38.4107V44.4723C38.4107 43.7971 38.2905 43.2878 38.0502 42.9445C37.8213 42.6012 37.4551 42.4295 36.9515 42.4295C36.2534 42.4295 35.7556 42.6756 35.458 43.1677C35.1605 43.6483 35.0117 44.3464 35.0117 45.262V50H32.574V44.4723C32.574 44.026 32.5168 43.6541 32.4023 43.3565C32.2993 43.0475 32.1391 42.8186 31.9217 42.6698C31.7157 42.5096 31.441 42.4295 31.0977 42.4295C30.617 42.4295 30.2336 42.5497 29.9475 42.79C29.6728 43.0303 29.4726 43.3851 29.3467 43.8543C29.2322 44.3121 29.175 44.8729 29.175 45.5367V50H26.7373V40.6442H28.6085L28.9347 41.863H29.072C29.2666 41.5426 29.5012 41.2793 29.7758 41.0733C30.062 40.8673 30.3767 40.7186 30.72 40.627C31.0748 40.524 31.4296 40.4725 31.7843 40.4725C32.4825 40.4725 33.0718 40.5869 33.5525 40.8158C34.0332 41.0447 34.3937 41.3938 34.634 41.863H34.84C35.1376 41.3823 35.5381 41.0333 36.0417 40.8158C36.5567 40.5869 37.0888 40.4725 37.6382 40.4725ZM51.9992 40.6442V50H50.128L49.7847 48.7983H49.6645C49.4699 49.1188 49.2182 49.382 48.9092 49.588C48.6116 49.7826 48.2797 49.9256 47.9135 50.0172C47.5473 50.1202 47.1696 50.1717 46.7805 50.1717C46.1053 50.1717 45.5159 50.0515 45.0123 49.8112C44.5088 49.5708 44.1197 49.1989 43.845 48.6953C43.5703 48.1918 43.433 47.5452 43.433 46.7555V40.6442H45.8707V46.1718C45.8707 46.8471 45.9966 47.3563 46.2483 47.6997C46.5001 48.043 46.9007 48.2147 47.45 48.2147C47.9993 48.2147 48.4228 48.0945 48.7203 47.8542C49.0293 47.6138 49.2468 47.2648 49.3727 46.807C49.4986 46.3378 49.5615 45.7713 49.5615 45.1075V40.6442H51.9992ZM57.1379 50H54.7002V36.9533H57.1379V50ZM63.6407 40.4553C64.8882 40.4553 65.838 40.7243 66.4904 41.2622C67.1427 41.8001 67.4689 42.6298 67.4689 43.7513V50H65.7694L65.2887 48.7297H65.22C64.9568 49.0616 64.6822 49.3362 64.396 49.5537C64.1214 49.7711 63.8009 49.9256 63.4347 50.0172C63.0799 50.1202 62.6393 50.1717 62.1129 50.1717C61.5635 50.1717 61.0657 50.0687 60.6194 49.8627C60.1845 49.6452 59.8412 49.3191 59.5894 48.8842C59.3376 48.4493 59.2117 47.8999 59.2117 47.2362C59.2117 46.2405 59.5608 45.5081 60.2589 45.0388C60.9684 44.5582 62.027 44.2949 63.4347 44.2492L65.0655 44.1977V43.7685C65.0655 43.2421 64.9282 42.8644 64.6535 42.6355C64.3903 42.3952 64.0184 42.275 63.5377 42.275C63.0799 42.275 62.6336 42.3437 62.1987 42.481C61.7638 42.6069 61.3347 42.7671 60.9112 42.9617L60.1044 41.2965C60.5965 41.0447 61.1458 40.8444 61.7524 40.6957C62.3589 40.5354 62.9884 40.4553 63.6407 40.4553ZM64.0184 45.674C63.16 45.6969 62.5592 45.8514 62.2159 46.1375C61.884 46.4122 61.718 46.7841 61.718 47.2533C61.718 47.6539 61.8382 47.94 62.0785 48.1117C62.3189 48.2833 62.6279 48.3692 63.0055 48.3692C63.5892 48.3692 64.0756 48.2032 64.4647 47.8713C64.8538 47.528 65.0484 47.0416 65.0484 46.4122V45.6397L64.0184 45.674ZM73.9688 48.2147C74.2434 48.2147 74.5124 48.1918 74.7756 48.146C75.0388 48.0888 75.2963 48.0201 75.5481 47.94V49.7597C75.2849 49.8741 74.953 49.9714 74.5524 50.0515C74.1633 50.1316 73.7399 50.1717 73.2821 50.1717C72.7328 50.1717 72.2406 50.0801 71.8058 49.897C71.3709 49.7139 71.0218 49.3992 70.7586 48.9528C70.5068 48.5065 70.3809 47.8885 70.3809 47.0988V42.481H69.1449V41.4338L70.5526 40.6098L71.2736 38.6357H72.8186V40.6442H75.4451V42.481H72.8186V47.0988C72.8186 47.4765 72.9216 47.7569 73.1276 47.94C73.345 48.1231 73.6254 48.2147 73.9688 48.2147ZM79.8536 40.6442V50H77.4159V40.6442H79.8536ZM78.6347 37.0048C79.001 37.0048 79.3157 37.0907 79.5789 37.2623C79.8421 37.434 79.9737 37.7544 79.9737 38.2237C79.9737 38.67 79.8421 38.9847 79.5789 39.1678C79.3157 39.3509 79.001 39.4425 78.6347 39.4425C78.2571 39.4425 77.9423 39.3509 77.6906 39.1678C77.4388 38.9847 77.3129 38.67 77.3129 38.2237C77.3129 37.7544 77.4388 37.434 77.6906 37.2623C77.9423 37.0907 78.2571 37.0048 78.6347 37.0048ZM91.0085 45.3135C91.0085 46.0917 90.8998 46.7841 90.6824 47.3907C90.4764 47.9858 90.1788 48.4951 89.7897 48.9185C89.4006 49.3305 88.9257 49.6452 88.3649 49.8627C87.8155 50.0687 87.1918 50.1717 86.4937 50.1717C85.8414 50.1717 85.2348 50.0687 84.674 49.8627C84.1247 49.6452 83.6498 49.3305 83.2492 48.9185C82.8601 48.4951 82.5511 47.9801 82.3222 47.3735C82.1048 46.7669 81.996 46.0746 81.996 45.2963C81.996 44.2663 82.1792 43.3966 82.5454 42.687C82.9116 41.966 83.4323 41.4167 84.1075 41.039C84.7942 40.6613 85.601 40.4725 86.528 40.4725C87.4093 40.4725 88.1818 40.6613 88.8455 41.039C89.5208 41.4167 90.0472 41.966 90.4249 42.687C90.814 43.3966 91.0085 44.2721 91.0085 45.3135ZM84.4852 45.3135C84.4852 45.9429 84.5539 46.4751 84.6912 46.91C84.8285 47.3334 85.046 47.6539 85.3435 47.8713C85.6525 48.0888 86.0417 48.1975 86.5109 48.1975C86.9915 48.1975 87.3749 48.0888 87.661 47.8713C87.9586 47.6539 88.176 47.3334 88.3134 46.91C88.4507 46.4751 88.5194 45.9429 88.5194 45.3135C88.5194 44.6726 88.4507 44.1404 88.3134 43.717C88.176 43.2936 87.9586 42.9788 87.661 42.7728C87.3635 42.5554 86.9744 42.4467 86.4937 42.4467C85.7842 42.4467 85.2692 42.687 84.9487 43.1677C84.6397 43.6483 84.4852 44.3636 84.4852 45.3135ZM98.3763 40.4725C99.3948 40.4725 100.202 40.7472 100.797 41.2965C101.403 41.8344 101.707 42.7042 101.707 43.9058V50H99.2689V44.4723C99.2689 43.7857 99.143 43.2764 98.8913 42.9445C98.6395 42.6012 98.2389 42.4295 97.6896 42.4295C96.8885 42.4295 96.3392 42.6984 96.0416 43.2363C95.744 43.7742 95.5953 44.5467 95.5953 45.5538V50H93.1576V40.6442H95.0288L95.3549 41.863H95.4923C95.6983 41.5426 95.95 41.2793 96.2476 41.0733C96.5452 40.8673 96.877 40.7186 97.2433 40.627C97.6095 40.524 97.9872 40.4725 98.3763 40.4725Z" fill="white"/>
</svg>
