<svg width="22" height="22" viewBox="0 0 22 22" fill="none" xmlns="http://www.w3.org/2000/svg">
<g clip-path="url(#clip0_230_5743)">
<path d="M18.7449 18.7452H15.4852V13.6403C15.4852 12.423 15.4635 10.8559 13.7899 10.8559C12.0921 10.8559 11.8323 12.1823 11.8323 13.5517V18.7449H8.57269V8.2471H11.7019V9.68174H11.7458C12.0589 9.14628 12.5115 8.70579 13.0552 8.40716C13.5989 8.10854 14.2134 7.96296 14.8333 7.98593C18.1372 7.98593 18.7463 10.1591 18.7463 12.9863L18.7449 18.7452ZM4.89456 6.8122C3.84982 6.81237 3.00274 5.96554 3.00256 4.9208C3.00239 3.87606 3.84913 3.02897 4.89388 3.0288C5.93862 3.02854 6.78571 3.87537 6.78588 4.92011C6.78597 5.42182 6.58676 5.90301 6.23207 6.25785C5.87738 6.61268 5.39627 6.81208 4.89456 6.8122ZM6.52446 18.7453H3.26132V8.2471H6.52437L6.52446 18.7453ZM20.37 0.00147911H1.62335C0.737338 -0.00848964 0.0107366 0.701268 -9.15527e-05 1.58728V20.4122C0.0103928 21.2986 0.736908 22.009 1.62327 21.9998H20.37C21.2583 22.0108 21.9876 21.3003 21.9999 20.4122V1.58582C21.9873 0.698088 21.2578 -0.0115834 20.37 1.81704e-05" fill="#437EF7"/>
</g>
<defs>
<clipPath id="clip0_230_5743">
<rect width="22" height="22" fill="white"/>
</clipPath>
</defs>
</svg>
