<svg width="24" height="24" viewBox="0 0 24 24" fill="none" xmlns="http://www.w3.org/2000/svg">
<path d="M19.7827 5.49988H4.58455C4.26122 5.49988 4 5.7611 4 6.08442V17.7753C4 18.0987 4.26122 18.3599 4.58455 18.3599H19.7827C20.1061 18.3599 20.3673 18.0987 20.3673 17.7753V6.08442C20.3673 5.7611 20.1061 5.49988 19.7827 5.49988ZM19.052 7.52387V17.0447H5.31523V7.52387L4.81106 7.13113L5.52895 6.20864L6.31078 6.81693H18.0583L18.8401 6.20864L19.558 7.13113L19.052 7.52387ZM18.0583 6.81511L12.1836 11.3819L6.30895 6.81511L5.52713 6.20681L4.80923 7.1293L5.3134 7.52204L11.5534 12.3738C11.7329 12.5132 11.9537 12.5889 12.1809 12.5889C12.4081 12.5889 12.6289 12.5132 12.8084 12.3738L19.052 7.52387L19.5562 7.13113L18.8383 6.20864L18.0583 6.81511Z" fill="#818781"/>
</svg>
