<svg width="32" height="33" viewBox="0 0 32 33" fill="none" xmlns="http://www.w3.org/2000/svg">
<path fill-rule="evenodd" clip-rule="evenodd" d="M24.8948 4.40937C25.2767 4.34568 25.668 4.36592 26.0413 4.46871C26.4146 4.5715 26.7611 4.75436 27.0566 5.00458C27.3522 5.2548 27.5896 5.56638 27.7526 5.91766C27.9155 6.26894 28 6.65148 28.0001 7.03871V22.7987C27.9999 23.9727 27.6122 25.1138 26.8974 26.0451C26.1825 26.9763 25.1803 27.6457 24.0463 27.9493C22.9122 28.253 21.7097 28.174 20.6251 27.7246C19.5406 27.2752 18.6346 26.4804 18.0477 25.4637C17.4608 24.4469 17.2258 23.2649 17.3791 22.1009C17.5325 20.937 18.0656 19.8562 18.8958 19.0261C19.726 18.196 20.8068 17.663 21.9708 17.5098C23.1348 17.3566 24.3167 17.5917 25.3335 18.1787V12.372L12.0001 14.5947V24.132C12.0001 24.212 11.9935 24.2894 11.9801 24.364C12.0758 25.3893 11.8298 26.4175 11.2802 27.2884C10.7306 28.1592 9.90844 28.8238 8.94175 29.1787C7.97506 29.5335 6.91814 29.5587 5.93567 29.2502C4.95321 28.9417 4.10036 28.3169 3.51001 27.4732C2.91966 26.6294 2.62496 25.6141 2.67183 24.5854C2.7187 23.5567 3.1045 22.5724 3.76913 21.7859C4.43376 20.9993 5.33989 20.4547 6.34634 20.2368C7.35279 20.0189 8.40304 20.1401 9.33346 20.5814V9.26137C9.33338 8.63012 9.55724 8.01931 9.96521 7.53761C10.3732 7.05591 10.9388 6.73455 11.5615 6.63071L24.8948 4.40937ZM12.0001 11.892L25.3335 9.66937V7.03871L12.0001 9.26137V11.892Z" fill="white"/>
</svg>
