<svg width="20" height="20" viewBox="0 0 20 20" fill="none" xmlns="http://www.w3.org/2000/svg">
<path d="M16.8433 2.94303C16.8433 2.80352 16.8987 2.66972 16.9974 2.57107C17.096 2.47241 17.2298 2.41699 17.3694 2.41699C17.5089 2.41699 17.6427 2.47241 17.7413 2.57107C17.84 2.66972 17.8954 2.80352 17.8954 2.94303V17.3215C17.8954 17.461 17.84 17.5948 17.7413 17.6935C17.6427 17.7921 17.5089 17.8475 17.3694 17.8475C17.2298 17.8475 17.096 17.7921 16.9974 17.6935C16.8987 17.5948 16.8433 17.461 16.8433 17.3215V2.94303ZM2.46484 3.99792C2.46484 2.7242 3.89638 1.97512 4.94285 2.70176L13.713 8.78981C13.9216 8.93456 14.0922 9.12749 14.2103 9.35224C14.3284 9.57698 14.3905 9.82691 14.3914 10.0808C14.3923 10.3347 14.332 10.585 14.2154 10.8106C14.0989 11.0362 13.9297 11.2303 13.7221 11.3765L4.95197 17.5558C3.9069 18.2922 2.46484 17.546 2.46484 16.2659V3.99792Z" fill="white"/>
</svg>
