<svg width="32" height="32" viewBox="0 0 32 32" fill="none" xmlns="http://www.w3.org/2000/svg">
<path d="M10.3996 19.9996C10.1874 19.9996 9.98395 19.9153 9.83392 19.7653C9.68389 19.6153 9.59961 19.4118 9.59961 19.1996C9.59961 18.9874 9.68389 18.7839 9.83392 18.6339C9.98395 18.4839 10.1874 18.3996 10.3996 18.3996H21.5996C21.8118 18.3996 22.0153 18.4839 22.1653 18.6339C22.3153 18.7839 22.3996 18.9874 22.3996 19.1996C22.3996 19.4118 22.3153 19.6153 22.1653 19.7653C22.0153 19.9153 21.8118 19.9996 21.5996 19.9996H10.3996ZM10.3996 23.9996C10.1874 23.9996 9.98395 23.9153 9.83392 23.7653C9.68389 23.6153 9.59961 23.4118 9.59961 23.1996C9.59961 22.9874 9.68389 22.7839 9.83392 22.6339C9.98395 22.4839 10.1874 22.3996 10.3996 22.3996H21.5996C21.8118 22.3996 22.0153 22.4839 22.1653 22.6339C22.3153 22.7839 22.3996 22.9874 22.3996 23.1996C22.3996 23.4118 22.3153 23.6153 22.1653 23.7653C22.0153 23.9153 21.8118 23.9996 21.5996 23.9996H10.3996Z" fill="#228B22"/>
<path fill-rule="evenodd" clip-rule="evenodd" d="M17.8958 1.59961H7.1998C6.56329 1.59961 5.95284 1.85247 5.50275 2.30255C5.05266 2.75264 4.7998 3.36309 4.7998 3.99961V27.9996C4.7998 28.6361 5.05266 29.2466 5.50275 29.6967C5.95284 30.1467 6.56329 30.3996 7.1998 30.3996H24.7998C25.4363 30.3996 26.0468 30.1467 26.4969 29.6967C26.9469 29.2466 27.1998 28.6361 27.1998 27.9996V11.5228C27.1997 10.922 26.9741 10.343 26.5678 9.90041L19.6654 2.37721C19.4405 2.132 19.167 1.93625 18.8623 1.80238C18.5577 1.66852 18.2286 1.59947 17.8958 1.59961ZM6.3998 3.99961C6.3998 3.78744 6.48409 3.58395 6.63412 3.43392C6.78415 3.2839 6.98763 3.19961 7.1998 3.19961H17.8958C18.0068 3.19949 18.1166 3.22247 18.2183 3.26709C18.3199 3.31172 18.4112 3.37701 18.4862 3.45881L25.3886 10.982C25.5242 11.1295 25.5996 11.3225 25.5998 11.5228V27.9996C25.5998 28.2118 25.5155 28.4153 25.3655 28.5653C25.2155 28.7153 25.012 28.7996 24.7998 28.7996H7.1998C6.98763 28.7996 6.78415 28.7153 6.63412 28.5653C6.48409 28.4153 6.3998 28.2118 6.3998 27.9996V3.99961Z" fill="#228B22"/>
<path d="M18.3994 3.35938V10.8794H25.9194" stroke="#228B22" stroke-width="1.5" stroke-linecap="round" stroke-linejoin="round"/>
<path d="M13.0143 9.81204C13.2428 9.81903 13.4704 9.78007 13.6835 9.69747C13.8967 9.61486 14.091 9.49029 14.2551 9.33115C14.4192 9.172 14.5497 8.98152 14.6388 8.77101C14.7279 8.56049 14.7738 8.33423 14.7738 8.10564C14.7738 7.87705 14.7279 7.65078 14.6388 7.44027C14.5497 7.22975 14.4192 7.03927 14.2551 6.88013C14.091 6.72098 13.8967 6.59641 13.6835 6.51381C13.4704 6.4312 13.2428 6.39224 13.0143 6.39924C12.5708 6.41282 12.15 6.59855 11.8411 6.91708C11.5321 7.23561 11.3594 7.66191 11.3594 8.10564C11.3594 8.54937 11.5321 8.97566 11.8411 9.29419C12.15 9.61272 12.5708 9.79845 13.0143 9.81204Z" fill="#228B22"/>
<path fill-rule="evenodd" clip-rule="evenodd" d="M16.4252 13.51C16.4252 11.6956 14.8972 10.382 13.0124 10.382C11.1276 10.382 9.59961 11.694 9.59961 13.51V14.3644C9.60003 14.5152 9.66023 14.6597 9.76701 14.7662C9.87378 14.8726 10.0184 14.9324 10.1692 14.9324H15.8572C16.0077 14.932 16.152 14.872 16.2584 14.7656C16.3648 14.6592 16.4248 14.5149 16.4252 14.3644V13.51Z" fill="#228B22"/>
</svg>
