<svg width="24" height="24" viewBox="0 0 24 24" fill="none" xmlns="http://www.w3.org/2000/svg">
<path d="M18.2399 19.1678L20.5578 16.8477C20.841 16.5645 21 16.1854 21 15.7846C21 15.3838 20.8431 15.0047 20.5578 14.7215L18.0634 12.2228C17.7802 11.9396 17.399 11.7806 16.9981 11.7806C16.5951 11.7806 16.2182 11.9374 15.9329 12.2228L13.9788 14.1747C12.9427 13.73 12.0014 13.0911 11.2056 12.2925C10.4017 11.493 9.76777 10.5584 9.319 9.52148L11.2731 7.56956C11.5563 7.28636 11.7153 6.9073 11.7153 6.50646C11.7161 6.30875 11.6773 6.11288 11.6014 5.93033C11.5254 5.74779 11.4138 5.58223 11.2731 5.44337L8.77874 2.94248C8.49554 2.65927 8.1143 2.50024 7.71346 2.50024C7.31045 2.50024 6.93357 2.65709 6.64819 2.94248L4.33029 5.26038C3.84667 5.744 3.57 6.41061 3.57 7.09465C3.57 7.23626 3.58089 7.3735 3.60485 7.51292C4.07976 10.3972 5.61559 13.2597 7.92478 15.5711C10.2383 17.8803 13.1008 19.4139 15.9873 19.8932C16.8064 20.0305 17.6495 19.756 18.2399 19.1678ZM16.2466 18.3487C13.6781 17.9239 11.1162 16.5427 9.0358 14.4623C6.95535 12.3818 5.5742 9.82211 5.1494 7.25368C5.09493 6.93127 5.20386 6.60014 5.43695 6.36486L7.71346 4.08835L10.1294 6.50211L7.51522 9.11192L7.49562 9.13153L7.66989 9.60208C8.19446 11.0288 9.02299 12.3244 10.0981 13.3991C11.1731 14.4738 12.4691 15.3019 13.896 15.826L14.3665 16.0003L16.996 13.3687L19.4119 15.7824L17.1354 18.0589C16.9001 18.2942 16.569 18.4031 16.2466 18.3487Z" fill="#818781"/>
</svg>
