<svg width="24" height="25" viewBox="0 0 24 25" fill="none" xmlns="http://www.w3.org/2000/svg">
<path d="M14 6.69995V10.5C11.21 10.55 10.05 11.71 10 14.5H6.2C3.2 14.5 2 13.3 2 10.3V6.69995C2 3.69995 3.2 2.5 6.2 2.5H9.8C12.8 2.5 14 3.69995 14 6.69995Z" stroke="white" stroke-width="1.5" stroke-linecap="round" stroke-linejoin="round"/>
<path d="M6.96019 6.37008C6.43019 6.01008 5.7302 6.0101 5.2002 6.3901" stroke="white" stroke-width="1.5" stroke-miterlimit="10" stroke-linecap="round" stroke-linejoin="round"/>
<path d="M10.9602 6.37008C10.4302 6.01008 9.7302 6.0101 9.2002 6.3901" stroke="white" stroke-width="1.5" stroke-miterlimit="10" stroke-linecap="round" stroke-linejoin="round"/>
<path d="M8.15981 11.9197H5.83981C5.53981 11.9197 5.2998 11.6796 5.2998 11.3796C5.2998 9.88964 6.50981 8.67969 7.99981 8.67969C8.63981 8.67969 9.2298 8.89965 9.6898 9.26965" stroke="white" stroke-width="1.5" stroke-miterlimit="10" stroke-linecap="round" stroke-linejoin="round"/>
<path d="M22 14.7V18.3C22 21.3 20.8 22.5 17.8 22.5H14.2C11.2 22.5 10 21.3 10 18.3V14.5C10.05 11.71 11.21 10.55 14 10.5H17.8C20.8 10.5 22 11.7 22 14.7Z" stroke="white" stroke-width="1.5" stroke-linecap="round" stroke-linejoin="round"/>
<path d="M14.9602 14.1196C14.4302 14.4796 13.7302 14.4796 13.2002 14.0996" stroke="white" stroke-width="1.5" stroke-miterlimit="10" stroke-linecap="round" stroke-linejoin="round"/>
<path d="M18.9602 14.1196C18.4302 14.4796 17.7302 14.4796 17.2002 14.0996" stroke="white" stroke-width="1.5" stroke-miterlimit="10" stroke-linecap="round" stroke-linejoin="round"/>
<path d="M13.8398 16.6797H18.1598C18.4598 16.6797 18.6998 16.9196 18.6998 17.2196C18.6998 18.7096 17.4898 19.9197 15.9998 19.9197C14.5098 19.9197 13.2998 18.7096 13.2998 17.2196C13.2998 16.9196 13.5398 16.6797 13.8398 16.6797Z" stroke="white" stroke-width="1.5" stroke-miterlimit="10" stroke-linecap="round" stroke-linejoin="round"/>
</svg>
