<svg width="20" height="20" viewBox="0 0 20 20" fill="none" xmlns="http://www.w3.org/2000/svg">
<path d="M3.15668 2.94303C3.15668 2.80352 3.10126 2.66972 3.00261 2.57107C2.90396 2.47241 2.77016 2.41699 2.63064 2.41699C2.49113 2.41699 2.35733 2.47241 2.25867 2.57107C2.16002 2.66972 2.1046 2.80352 2.1046 2.94303V17.3215C2.1046 17.461 2.16002 17.5948 2.25867 17.6935C2.35733 17.7921 2.49113 17.8475 2.63064 17.8475C2.77016 17.8475 2.90396 17.7921 3.00261 17.6935C3.10126 17.5948 3.15668 17.461 3.15668 17.3215V2.94303ZM17.5352 3.99792C17.5352 2.7242 16.1036 1.97512 15.0571 2.70176L6.28698 8.78981C6.07839 8.93456 5.9078 9.12749 5.7897 9.35224C5.67159 9.57698 5.60945 9.82691 5.60856 10.0808C5.60766 10.3347 5.66804 10.585 5.78456 10.8106C5.90107 11.0362 6.0703 11.2303 6.27787 11.3765L15.048 17.5558C16.0931 18.2922 17.5352 17.546 17.5352 16.2659V3.99792Z" fill="white"/>
</svg>
