<svg width="106" height="40" viewBox="0 0 106 40" fill="none" xmlns="http://www.w3.org/2000/svg">
<rect width="106" height="40" rx="8" fill="white"/>
<path d="M33 20C33.003 21.7868 32.4715 23.5336 31.474 25.016C30.6514 26.2429 29.5391 27.2483 28.2355 27.9432C26.9319 28.638 25.4772 29.001 24 29C22.5228 29.001 21.0681 28.638 19.7645 27.9432C18.4609 27.2483 17.3486 26.2429 16.526 25.016C15.7427 23.8484 15.2439 22.5135 15.0695 21.1184C14.8951 19.7233 15.05 18.3067 15.5217 16.9823C15.9935 15.6578 16.769 14.4623 17.7861 13.4915C18.8031 12.5208 20.0335 11.8019 21.3785 11.3923C22.7235 10.9828 24.1458 10.8941 25.5312 11.1333C26.9167 11.3725 28.2269 11.933 29.3567 12.7698C30.4865 13.6066 31.4046 14.6965 32.0373 15.9521C32.67 17.2077 32.9997 18.594 33 20Z" stroke="black" stroke-width="2"/>
<path d="M25 17C25 17.2652 24.8946 17.5196 24.7071 17.7071C24.5196 17.8946 24.2652 18 24 18V20C24.7957 20 25.5587 19.6839 26.1213 19.1213C26.6839 18.5587 27 17.7956 27 17H25ZM24 18C23.7348 18 23.4804 17.8946 23.2929 17.7071C23.1054 17.5196 23 17.2652 23 17H21C21 17.7956 21.3161 18.5587 21.8787 19.1213C22.4413 19.6839 23.2044 20 24 20V18ZM23 17C23 16.7348 23.1054 16.4804 23.2929 16.2929C23.4804 16.1054 23.7348 16 24 16V14C23.2044 14 22.4413 14.3161 21.8787 14.8787C21.3161 15.4413 21 16.2044 21 17H23ZM24 16C24.2652 16 24.5196 16.1054 24.7071 16.2929C24.8946 16.4804 25 16.7348 25 17H27C27 16.2044 26.6839 15.4413 26.1213 14.8787C25.5587 14.3161 24.7957 14 24 14V16ZM17.166 25.856L16.207 25.571L16.052 26.094L16.407 26.507L17.166 25.856ZM30.834 25.856L31.594 26.507L31.948 26.094L31.793 25.571L30.834 25.856ZM21 24H27V22H21V24ZM21 22C19.9231 22 18.875 22.3475 18.0115 22.9909C17.1479 23.6343 16.5151 24.5391 16.207 25.571L18.124 26.141C18.3093 25.5222 18.6892 24.9797 19.2073 24.594C19.7254 24.2083 20.3541 24 21 24V22ZM24 28C22.8455 28.0013 21.7044 27.7521 20.6556 27.2695C19.6068 26.787 18.6751 26.0826 17.925 25.205L16.407 26.507C17.3449 27.6035 18.5094 28.4836 19.8202 29.0866C21.1311 29.6897 22.5571 30.0013 24 30V28ZM27 24C28.357 24 29.506 24.902 29.876 26.142L31.793 25.571C31.485 24.5393 30.8513 23.6345 29.9879 22.9912C29.1246 22.3478 28.0767 22.0002 27 22V24ZM30.075 25.205C29.3249 26.0826 28.3932 26.787 27.3444 27.2695C26.2956 27.7521 25.1545 28.0013 24 28V30C25.4429 30.0013 26.8689 29.6897 28.1798 29.0866C29.4906 28.4836 30.6561 27.6035 31.594 26.507L30.075 25.205Z" fill="black"/>
<path d="M52.976 18.192C52.976 18.7573 52.8427 19.2907 52.576 19.792C52.3093 20.2933 51.8827 20.704 51.296 21.024C50.7093 21.3333 49.9573 21.488 49.04 21.488H47.024V26H45.2V14.88H49.04C49.8933 14.88 50.6133 15.0293 51.2 15.328C51.7973 15.616 52.24 16.0107 52.528 16.512C52.8267 17.0133 52.976 17.5733 52.976 18.192ZM49.04 20C49.7333 20 50.2507 19.8453 50.592 19.536C50.9333 19.216 51.104 18.768 51.104 18.192C51.104 16.976 50.416 16.368 49.04 16.368H47.024V20H49.04ZM56.5396 18.464C56.8063 18.016 57.1583 17.6693 57.5956 17.424C58.0436 17.168 58.5716 17.04 59.1796 17.04V18.928H58.7156C58.001 18.928 57.457 19.1093 57.0836 19.472C56.721 19.8347 56.5396 20.464 56.5396 21.36V26H54.7156V17.184H56.5396V18.464ZM64.6803 26.144C63.8483 26.144 63.0963 25.9573 62.4243 25.584C61.7523 25.2 61.2243 24.6667 60.8403 23.984C60.4563 23.2907 60.2643 22.4907 60.2643 21.584C60.2643 20.688 60.4616 19.8933 60.8563 19.2C61.2509 18.5067 61.7896 17.9733 62.4723 17.6C63.1549 17.2267 63.9176 17.04 64.7603 17.04C65.6029 17.04 66.3656 17.2267 67.0483 17.6C67.7309 17.9733 68.2696 18.5067 68.6643 19.2C69.0589 19.8933 69.2563 20.688 69.2563 21.584C69.2563 22.48 69.0536 23.2747 68.6483 23.968C68.2429 24.6613 67.6883 25.2 66.9843 25.584C66.2909 25.9573 65.5229 26.144 64.6803 26.144ZM64.6803 24.56C65.1496 24.56 65.5869 24.448 65.9923 24.224C66.4083 24 66.7443 23.664 67.0003 23.216C67.2563 22.768 67.3843 22.224 67.3843 21.584C67.3843 20.944 67.2616 20.4053 67.0163 19.968C66.7709 19.52 66.4456 19.184 66.0403 18.96C65.6349 18.736 65.1976 18.624 64.7283 18.624C64.2589 18.624 63.8216 18.736 63.4163 18.96C63.0216 19.184 62.7069 19.52 62.4723 19.968C62.2376 20.4053 62.1203 20.944 62.1203 21.584C62.1203 22.5333 62.3603 23.2693 62.8403 23.792C63.3309 24.304 63.9443 24.56 64.6803 24.56ZM74.7554 18.672H73.1234V26H71.2834V18.672H70.2434V17.184H71.2834V16.56C71.2834 15.5467 71.55 14.8107 72.0834 14.352C72.6274 13.8827 73.4754 13.648 74.6274 13.648V15.168C74.0727 15.168 73.6834 15.2747 73.4594 15.488C73.2354 15.6907 73.1234 16.048 73.1234 16.56V17.184H74.7554V18.672ZM77.2999 16.016C76.9692 16.016 76.6919 15.904 76.4679 15.68C76.2439 15.456 76.1319 15.1787 76.1319 14.848C76.1319 14.5173 76.2439 14.24 76.4679 14.016C76.6919 13.792 76.9692 13.68 77.2999 13.68C77.6199 13.68 77.8919 13.792 78.1159 14.016C78.3399 14.24 78.4519 14.5173 78.4519 14.848C78.4519 15.1787 78.3399 15.456 78.1159 15.68C77.8919 15.904 77.6199 16.016 77.2999 16.016ZM78.1959 17.184V26H76.3719V17.184H78.1959ZM82.4146 14.16V26H80.5906V14.16H82.4146ZM92.8894 21.376C92.8894 21.7067 92.868 22.0053 92.8254 22.272H86.0894C86.1427 22.976 86.404 23.5413 86.8734 23.968C87.3427 24.3947 87.9187 24.608 88.6014 24.608C89.5827 24.608 90.276 24.1973 90.6814 23.376H92.6494C92.3827 24.1867 91.8974 24.8533 91.1934 25.376C90.5 25.888 89.636 26.144 88.6014 26.144C87.7587 26.144 87.0014 25.9573 86.3294 25.584C85.668 25.2 85.1454 24.6667 84.7614 23.984C84.388 23.2907 84.2014 22.4907 84.2014 21.584C84.2014 20.6773 84.3827 19.8827 84.7454 19.2C85.1187 18.5067 85.636 17.9733 86.2974 17.6C86.9694 17.2267 87.7374 17.04 88.6014 17.04C89.4334 17.04 90.1747 17.2213 90.8254 17.584C91.476 17.9467 91.9827 18.4587 92.3454 19.12C92.708 19.7707 92.8894 20.5227 92.8894 21.376ZM90.9854 20.8C90.9747 20.128 90.7347 19.5893 90.2654 19.184C89.796 18.7787 89.2147 18.576 88.5214 18.576C87.892 18.576 87.3534 18.7787 86.9054 19.184C86.4574 19.5787 86.1907 20.1173 86.1054 20.8H90.9854Z" fill="#121212"/>
</svg>
