<svg width="568" height="232" viewBox="0 0 568 232" fill="none" xmlns="http://www.w3.org/2000/svg">
<rect width="568" height="232" rx="12" fill="#D1D9E2"/>
<path d="M284 107.942C284 105.469 286.004 103.465 288.477 103.465C290.949 103.465 292.954 105.469 292.954 107.942C292.954 110.414 290.949 112.418 288.477 112.418C286.004 112.418 284 110.414 284 107.942Z" fill="#7C8B9D"/>
<path fill-rule="evenodd" clip-rule="evenodd" d="M280.34 96.3015C277.899 96.3015 275.958 96.3015 274.392 96.4295C272.788 96.5605 271.42 96.8346 270.168 97.4726C268.146 98.5027 266.503 100.146 265.473 102.168C264.835 103.42 264.56 104.788 264.429 106.392C264.301 107.958 264.301 109.899 264.302 112.34V119.66C264.301 122.101 264.301 124.042 264.429 125.608C264.56 127.212 264.835 128.58 265.473 129.832C266.503 131.854 268.146 133.497 270.168 134.527C271.42 135.165 272.788 135.44 274.392 135.571C275.958 135.699 277.899 135.699 280.34 135.698H287.66C290.101 135.699 292.042 135.699 293.608 135.571C295.212 135.44 296.58 135.165 297.832 134.527C299.854 133.497 301.497 131.854 302.527 129.832C303.165 128.58 303.44 127.212 303.571 125.608C303.699 124.042 303.699 122.101 303.698 119.66V112.34C303.699 109.899 303.699 107.958 303.571 106.392C303.44 104.788 303.165 103.42 302.527 102.168C301.497 100.146 299.854 98.5027 297.832 97.4726C296.58 96.8346 295.212 96.5605 293.608 96.4295C292.042 96.3015 290.101 96.3015 287.66 96.3015H280.34ZM271.794 100.664C272.457 100.326 273.301 100.112 274.683 99.9991C276.087 99.8845 277.882 99.8831 280.418 99.8831H287.582C290.118 99.8831 291.913 99.8845 293.317 99.9991C294.699 100.112 295.543 100.326 296.206 100.664C297.554 101.351 298.649 102.446 299.336 103.794C299.674 104.457 299.888 105.301 300.001 106.683C300.116 108.087 300.117 109.882 300.117 112.418V119.582C300.117 120.223 300.117 120.818 300.115 121.37L297.277 118.533C295.878 117.134 293.611 117.134 292.212 118.533L288.215 122.53C287.865 122.88 287.298 122.88 286.948 122.53L275.788 111.369C274.389 109.971 272.122 109.971 270.723 111.369L267.883 114.209V112.418C267.883 109.882 267.884 108.087 267.999 106.683C268.112 105.301 268.326 104.457 268.664 103.794C269.351 102.446 270.446 101.351 271.794 100.664Z" fill="#7C8B9D"/>
</svg>
