<svg width="48" height="49" viewBox="0 0 48 49" fill="none" xmlns="http://www.w3.org/2000/svg">
<path d="M10.9592 37.4796V31.6396C10.9592 29.6996 12.4792 27.9596 14.6392 27.9596C16.5792 27.9596 18.3192 29.4796 18.3192 31.6396V37.2596C18.3192 41.1596 15.0792 44.3997 11.1792 44.3997C7.27917 44.3997 4.03916 41.1396 4.03916 37.2596V24.9396C3.81916 13.6996 12.6992 4.59961 23.9392 4.59961C35.1792 4.59961 44.0392 13.6996 44.0392 24.7196V37.0397C44.0392 40.9397 40.7992 44.1797 36.8992 44.1797C32.9992 44.1797 29.7592 40.9397 29.7592 37.0397V31.4197C29.7592 29.4797 31.2792 27.7396 33.4392 27.7396C35.3792 27.7396 37.1192 29.2597 37.1192 31.4197V37.4796" stroke="#265BA7" stroke-width="3" stroke-linecap="round" stroke-linejoin="round"/>
<path d="M31.0599 18.74H29.4399C28.9999 18.74 28.5799 19 28.3799 19.38L26.8799 22.38C26.6599 22.82 26.0399 22.82 25.8199 22.38L22.14 15.04C21.92 14.62 21.3199 14.6 21.0999 15.02L19.4199 18.12C19.2199 18.5 18.8199 18.74 18.3799 18.74H16.9199" stroke="#265BA7" stroke-width="3" stroke-linecap="round" stroke-linejoin="round"/>
</svg>
