<svg width="104" height="34" viewBox="0 0 104 34" fill="none" xmlns="http://www.w3.org/2000/svg">
<path d="M10.2149 30.396C10.7469 30.396 11.2929 30.354 11.8529 30.27C12.4129 30.158 12.8749 30.046 13.2389 29.934V32.748C12.8469 32.944 12.2869 33.098 11.5589 33.21C10.8589 33.35 10.1869 33.42 9.54286 33.42C8.42286 33.42 7.38686 33.224 6.43486 32.832C5.48286 32.412 4.71286 31.698 4.12486 30.69C3.56486 29.682 3.28486 28.268 3.28486 26.448V13.344H0.302859V11.58L3.36886 10.11L4.75486 5.322H6.93886V10.488H13.0709V13.344H6.93886V26.364C6.93886 27.736 7.24686 28.758 7.86286 29.43C8.47886 30.074 9.26286 30.396 10.2149 30.396ZM35.9494 21.702C35.9494 23.578 35.7114 25.244 35.2354 26.7C34.7874 28.128 34.1294 29.346 33.2614 30.354C32.3934 31.362 31.3434 32.132 30.1114 32.664C28.8794 33.168 27.5074 33.42 25.9954 33.42C24.5954 33.42 23.2934 33.168 22.0894 32.664C20.9134 32.132 19.8774 31.362 18.9814 30.354C18.1134 29.346 17.4414 28.128 16.9654 26.7C16.4894 25.244 16.2514 23.578 16.2514 21.702C16.2514 19.21 16.6434 17.11 17.4274 15.402C18.2394 13.666 19.3874 12.35 20.8714 11.454C22.3554 10.53 24.1054 10.068 26.1214 10.068C28.0534 10.068 29.7474 10.53 31.2034 11.454C32.6874 12.35 33.8494 13.666 34.6894 15.402C35.5294 17.11 35.9494 19.21 35.9494 21.702ZM20.0314 21.702C20.0314 23.466 20.2414 25.006 20.6614 26.322C21.0814 27.61 21.7394 28.604 22.6354 29.304C23.5314 30.004 24.6794 30.354 26.0794 30.354C27.4794 30.354 28.6274 30.004 29.5234 29.304C30.4194 28.604 31.0774 27.61 31.4974 26.322C31.9454 25.006 32.1694 23.466 32.1694 21.702C32.1694 19.91 31.9454 18.384 31.4974 17.124C31.0774 15.864 30.4194 14.898 29.5234 14.226C28.6274 13.526 27.4654 13.176 26.0374 13.176C23.9374 13.176 22.4114 13.932 21.4594 15.444C20.5074 16.956 20.0314 19.042 20.0314 21.702ZM55.2884 33H51.6344V1.08H55.2884V33ZM65.6253 10.488V33H61.9713V10.488H65.6253ZM63.8193 2.046C64.3793 2.046 64.8693 2.242 65.2893 2.634C65.7093 2.998 65.9193 3.586 65.9193 4.398C65.9193 5.182 65.7093 5.77 65.2893 6.162C64.8693 6.554 64.3793 6.75 63.8193 6.75C63.2313 6.75 62.7273 6.554 62.3073 6.162C61.8873 5.77 61.6773 5.182 61.6773 4.398C61.6773 3.586 61.8873 2.998 62.3073 2.634C62.7273 2.242 63.2313 2.046 63.8193 2.046ZM82.1773 13.344H76.8853V33H73.1893V13.344H69.5353V11.622L73.1893 10.362V9.06C73.1893 7.128 73.4553 5.56 73.9873 4.356C74.5473 3.152 75.3453 2.27 76.3813 1.71C77.4173 1.15 78.6633 0.869998 80.1193 0.869998C80.9873 0.869998 81.7713 0.953998 82.4713 1.122C83.1993 1.262 83.8293 1.43 84.3613 1.626L83.3953 4.524C82.9473 4.384 82.4433 4.244 81.8833 4.104C81.3513 3.964 80.7913 3.894 80.2033 3.894C79.0833 3.894 78.2433 4.314 77.6833 5.154C77.1513 5.966 76.8853 7.254 76.8853 9.018V10.488H82.1773V13.344ZM94.1965 10.068C96.0165 10.068 97.5845 10.488 98.9005 11.328C100.216 12.168 101.224 13.358 101.924 14.898C102.652 16.41 103.016 18.188 103.016 20.232V22.458H88.5685C88.6245 25.006 89.2265 26.952 90.3745 28.296C91.5225 29.612 93.1325 30.27 95.2045 30.27C96.5485 30.27 97.7385 30.144 98.7745 29.892C99.8385 29.612 100.93 29.22 102.05 28.716V31.95C100.958 32.454 99.8805 32.818 98.8165 33.042C97.7805 33.294 96.5205 33.42 95.0365 33.42C93.0205 33.42 91.2425 32.986 89.7025 32.118C88.1625 31.25 86.9585 29.962 86.0905 28.254C85.2225 26.518 84.7885 24.404 84.7885 21.912C84.7885 19.448 85.1805 17.334 85.9645 15.57C86.7485 13.806 87.8405 12.448 89.2405 11.496C90.6685 10.544 92.3205 10.068 94.1965 10.068ZM94.1965 13.092C92.5725 13.092 91.2845 13.666 90.3325 14.814C89.3805 15.934 88.8205 17.502 88.6525 19.518H99.2365C99.2365 18.23 99.0545 17.11 98.6905 16.158C98.3265 15.206 97.7665 14.464 97.0105 13.932C96.2825 13.372 95.3445 13.092 94.1965 13.092Z" fill="white"/>
</svg>
