<svg width="79" height="60" viewBox="0 0 79 60" fill="none" xmlns="http://www.w3.org/2000/svg">
<g clip-path="url(#clip0_429_19089)">
<path d="M38.191 7.67459L67.554 3.54788C68.5636 3.40599 69.4965 4.10857 69.6382 5.11693L70.6904 12.6037L73.6612 12.1861L72.609 4.69941C72.2367 2.04996 69.7865 0.204649 67.1365 0.577076L37.7735 4.70378L38.191 7.67459ZM72.5948 26.1539L75.2185 44.8227C75.3601 45.8304 74.6521 46.768 73.6433 46.9098L70.071 47.4119L70.4886 50.3827L74.0609 49.8806C76.709 49.5085 78.5617 47.055 78.1893 44.4052L75.5656 25.7364L72.5948 26.1539ZM47.5371 50.5788L11.8216 55.5983C10.8063 55.741 9.87171 55.0385 9.72955 54.0269L8.53885 45.5547L5.56805 45.9722L6.75874 54.4444C7.13172 57.0983 9.58468 58.9422 12.2392 58.5691L47.9546 53.5496L47.5371 50.5788ZM6.5231 31.2118L4.14951 14.3229C4.00736 13.3114 4.70982 12.3801 5.72794 12.237L8.85967 11.7968L8.44215 8.82603L5.31042 9.26617C2.65216 9.63976 0.80588 12.0876 1.17871 14.7404L3.55229 31.6294L6.5231 31.2118Z" fill="#DDDDDD"/>
<path d="M4.68893 43.7811L68.2016 53.8405L74.5821 13.5552L11.0695 3.49582L4.68893 43.7811ZM8.10674 3.02448C8.36575 1.38915 9.90085 0.273332 11.5372 0.532506L75.053 10.5924C76.6886 10.8515 77.8034 12.3947 77.5455 14.0225L71.1643 54.3118C70.9053 55.9472 69.3702 57.063 67.7339 56.8038L4.21804 46.7439C2.58246 46.4848 1.46771 44.9417 1.72554 43.3138L8.10674 3.02448Z" fill="#DEDEDE"/>
<path fill-rule="evenodd" clip-rule="evenodd" d="M63.3886 32.6914L61.5321 44.4129C61.4176 45.1356 60.9042 46.042 59.581 45.8324L52.9651 44.7846L54.866 32.7823L48.2501 31.7345L46.3492 43.7367L39.7333 42.6888C38.4101 42.4793 38.2018 41.4585 38.3163 40.7358L40.1728 29.0144L37.5264 28.5952C36.5641 28.4428 36.881 27.9991 37.5969 27.3717L52.9463 16.0976C53.3644 15.7934 53.7443 15.7301 54.2255 15.8063C54.7067 15.8825 55.0294 16.1806 55.3521 16.4786L66.4663 31.9442C67.0736 32.7812 67.2379 33.3011 66.1553 33.1296L63.3886 32.6914Z" fill="#DDDDDD"/>
<path fill-rule="evenodd" clip-rule="evenodd" d="M31.3046 35.8812C31.1869 35.4958 31.1528 35.0847 31.2188 34.6684C31.4724 33.0673 33.1099 31.9961 34.8764 32.2759C36.6428 32.5556 37.8693 34.0804 37.6157 35.6816C37.5492 36.1011 37.3878 36.4842 37.1538 36.8162C38.7227 37.2328 39.7675 38.6562 39.5316 40.1456C39.278 41.7467 37.6404 42.8179 35.874 42.5381C34.6079 42.3376 33.6193 41.4976 33.2541 40.4483C32.5826 41.3334 31.3828 41.8268 30.1168 41.6262C28.3503 41.3465 27.1239 39.8217 27.3775 38.2206C27.6311 36.6194 29.2686 35.5482 31.0351 35.828C31.1264 35.8425 31.2163 35.8603 31.3046 35.8812Z" fill="#DDDDDD"/>
<path d="M24.1269 24.5808C27.5167 24.5808 30.2646 21.8377 30.2646 18.4539C30.2646 15.0701 27.5167 12.3269 24.1269 12.3269C20.7372 12.3269 17.9893 15.0701 17.9893 18.4539C17.9893 21.8377 20.7372 24.5808 24.1269 24.5808Z" fill="#DDDDDD"/>
<path d="M67.2143 45.2267L7.69531 35.7998L6.82398 41.3012L66.3429 50.728L67.2143 45.2267Z" fill="#DDDDDD"/>
</g>
<defs>
<clipPath id="clip0_429_19089">
<rect width="78" height="60" fill="white" transform="translate(0.25)"/>
</clipPath>
</defs>
</svg>
