<svg width="54" height="60" viewBox="0 0 54 60" fill="none" xmlns="http://www.w3.org/2000/svg">
<path d="M53.5896 17.5723L38.1849 0.45576C37.9223 0.163939 37.566 0 37.1944 0H9.51267C4.26736 0 0 4.74151 0 10.5696V49.4306C0 55.2587 4.26736 60.0003 9.51267 60.0003H44.4876C49.7329 60.0003 54.0002 55.2587 54.0002 49.4306V18.6727C54 18.26 53.8522 17.8641 53.5896 17.5723ZM38.3617 5.05434L49.4509 17.3757H38.3617V5.05434ZM44.4873 56.8872H9.51267C5.81215 56.8872 2.80148 53.5421 2.80148 49.4304V10.5696C2.80148 6.45794 5.81215 3.11276 9.51267 3.11276H35.5602V18.9321C35.5602 19.7914 36.1875 20.4884 36.9609 20.4884H51.1983V49.4304C51.1985 53.5421 48.1879 56.8872 44.4873 56.8872Z" fill="#DDDDDD"/>
<path d="M24.2387 13.5921C22.869 12.0702 21.048 11.2321 19.111 11.2321C17.174 11.2321 15.3531 12.0702 13.9834 13.5921C12.6137 15.114 11.8594 17.1373 11.8594 19.2895C11.8594 21.4417 12.6137 23.465 13.9834 24.9869L28.3494 40.9491C30.207 43.0129 33.2286 43.0124 35.0858 40.9491C36.9429 38.8854 36.9429 35.528 35.0858 33.4642L20.8617 17.6602C20.3147 17.0525 19.4276 17.0525 18.8808 17.6602C18.3338 18.268 18.3338 19.2535 18.8808 19.8612L33.1047 35.6655C33.8695 36.5153 33.8695 37.8984 33.1047 38.7482C32.3399 39.5979 31.0953 39.5979 30.3303 38.7482L15.9643 22.7862C15.1236 21.8521 14.6609 20.6104 14.6609 19.2898C14.6609 17.9689 15.1238 16.7272 15.9643 15.7934C17.6995 13.8653 20.5225 13.8653 22.2578 15.7934L37.3102 32.5182C40.0106 35.5187 40.0106 40.4008 37.3102 43.4012C36.0021 44.8546 34.2628 45.6551 32.4129 45.6551C30.563 45.6551 28.8238 44.8546 27.5157 43.4012L15.9425 30.5419C15.3955 29.9341 14.5084 29.9341 13.9617 30.5419C13.4147 31.1496 13.4147 32.1351 13.9617 32.7429L25.5348 45.6019C27.3721 47.6434 29.8148 48.7676 32.4129 48.7676C35.0111 48.7676 37.454 47.6434 39.291 45.6019C41.1281 43.5605 42.1401 40.8464 42.1401 37.9593C42.1401 35.0725 41.1283 32.3582 39.291 30.317L24.2387 13.5921Z" fill="#DDDDDD"/>
</svg>
