<svg width="530" height="238" viewBox="0 0 530 238" fill="none" xmlns="http://www.w3.org/2000/svg">
<rect width="530" height="238" rx="12" fill="white"/>
<g clip-path="url(#clip0_231_8771)">
<path d="M396.539 31.8601H175.142C171.325 31.8601 168.23 34.955 168.23 38.7727V181.762C168.23 185.58 171.325 188.675 175.142 188.675H396.539C400.357 188.675 403.451 185.58 403.451 181.762V38.7727C403.451 34.955 400.357 31.8601 396.539 31.8601Z" fill="#F5F5F5"/>
<path d="M392.07 35.6873H178.976C175.158 35.6873 172.063 38.7821 172.063 42.5999V177.498C172.063 181.316 175.158 184.411 178.976 184.411H392.07C395.887 184.411 398.982 181.316 398.982 177.498V42.5999C398.982 38.7821 395.887 35.6873 392.07 35.6873Z" fill="#E0E0E0"/>
<path d="M393.634 81.47H175.479V163.63H393.634V81.47Z" fill="white"/>
<path d="M354.82 79.5938H133.424C129.606 79.5938 126.511 82.6886 126.511 86.5063V229.496C126.511 233.313 129.606 236.408 133.424 236.408H354.82C358.638 236.408 361.733 233.313 361.733 229.496V86.5063C361.733 82.6886 358.638 79.5938 354.82 79.5938Z" fill="#F5F5F5"/>
<path d="M350.351 83.4271H137.257C133.439 83.4271 130.344 86.522 130.344 90.3397V225.238C130.344 229.056 133.439 232.151 137.257 232.151H350.351C354.169 232.151 357.263 229.056 357.263 225.238V90.3397C357.263 86.522 354.169 83.4271 350.351 83.4271Z" fill="#E0E0E0"/>
<path d="M351.915 129.204H133.76V211.363H351.915V129.204Z" fill="white"/>
<path d="M330.106 60.6574C330.106 60.6574 330.305 60.7135 330.679 60.8382C331.053 60.9629 331.608 61.1374 332.356 61.3244C334.533 61.8632 336.787 62.0234 339.019 61.7981C340.627 61.6382 342.217 61.3315 343.769 60.8818C345.624 60.3707 347.425 59.6819 349.148 58.8249C353.34 56.6942 357.031 53.6962 359.975 50.0299C360.834 49.0218 361.486 47.8549 361.895 46.5954C362.32 45.2812 362.21 43.8525 361.589 42.6186C361.224 42.0106 360.715 41.5009 360.108 41.1338C359.501 40.7667 358.813 40.5532 358.105 40.5118C356.615 40.3785 355.118 40.668 353.786 41.347C353.08 41.6825 352.351 41.9658 351.604 42.1947C350.821 42.4256 349.987 42.4256 349.204 42.1947C348.792 42.0909 348.412 41.8862 348.099 41.5989C347.785 41.3116 347.548 40.9509 347.409 40.5492C347.299 40.1361 347.28 39.7044 347.35 39.283C347.421 38.8616 347.582 38.4602 347.82 38.1058C348.277 37.3915 348.925 36.8193 349.69 36.454C350.449 36.091 351.232 35.7806 352.034 35.5252C353.634 34.9575 355.187 34.2634 356.678 33.4496C358.209 32.616 359.668 31.6569 361.041 30.5823C361.75 30.0643 362.391 29.4591 362.948 28.7809C363.522 28.125 363.848 27.2894 363.871 26.4186C363.838 25.99 363.696 25.5771 363.456 25.2199C363.217 24.8628 362.89 24.5736 362.506 24.3803C361.704 23.9803 360.821 23.7672 359.925 23.757C358.989 23.7449 358.057 23.6468 357.139 23.464C356.653 23.3654 356.198 23.1521 355.811 22.8421C355.424 22.532 355.116 22.1341 354.914 21.6813C354.821 21.4377 354.786 21.1761 354.811 20.9166C354.835 20.6572 354.92 20.4069 355.057 20.1854C355.342 19.7797 355.707 19.4362 356.129 19.1756C356.902 18.6395 357.661 18.0723 358.404 17.4739C359.894 16.2661 361.288 14.9449 362.574 13.5221C363.927 12.1326 365.054 10.5406 365.915 8.80358C366.316 7.92582 366.49 6.96118 366.42 5.99865C366.337 5.03454 365.925 4.12817 365.255 3.43057C364.579 2.73835 363.737 2.23102 362.81 1.9571C361.882 1.68318 360.9 1.65183 359.956 1.86605C358.079 2.33318 356.395 3.37481 355.138 4.84551C352.551 7.73147 351.348 11.4776 349.242 14.6191C348.724 15.4108 348.136 16.1535 347.484 16.8382C347.165 17.1975 346.795 17.5083 346.387 17.7607C346.172 17.9047 345.923 17.9897 345.665 18.0072C345.406 18.0247 345.148 17.9741 344.916 17.8604C344.701 17.7208 344.518 17.5377 344.378 17.323C344.239 17.1082 344.146 16.8666 344.105 16.6138C344.022 16.149 344.003 15.675 344.049 15.2051C344.097 14.7691 344.067 14.3281 343.962 13.9023C343.842 13.4901 343.614 13.1177 343.301 12.824C342.984 12.5344 342.612 12.3104 342.208 12.1649C341.804 12.0194 341.374 11.9553 340.945 11.9763C340.086 12.0533 339.282 12.4282 338.67 13.0359C338.063 13.6369 337.597 14.3649 337.305 15.1677C337.008 15.9694 336.823 16.8085 336.756 17.6609C336.607 19.3626 336.675 21.0767 336.651 22.7534C336.626 24.4302 336.651 26.1007 336.651 27.74C336.651 29.3793 336.788 31.0186 336.245 32.5832C336.12 32.979 335.909 33.3425 335.628 33.6483C335.347 33.9541 335.002 34.1948 334.619 34.3534C333.845 34.6031 333.009 34.5723 332.256 34.2661C330.822 33.7061 329.548 32.8004 328.547 31.6295C328.064 31.0674 327.646 30.4527 327.301 29.7969C326.985 29.1543 326.633 28.53 326.247 27.927C325.885 27.3439 325.332 26.9036 324.683 26.6803C324.037 26.5093 323.35 26.5779 322.751 26.8736C322.156 27.1587 321.642 27.5871 321.255 28.1202C320.883 28.6495 320.632 29.2537 320.519 29.8904C320.358 31.1492 320.283 32.4175 320.295 33.6864C320.245 34.9331 320.239 36.1299 320.257 37.3079C320.295 39.5176 320.493 41.7216 320.849 43.9026C321.146 45.8101 321.611 47.6874 322.239 49.5125C322.501 50.3602 322.863 51.1269 323.168 51.8811C323.474 52.6353 323.841 53.3085 324.215 53.9318C325.316 55.884 326.717 57.6509 328.367 59.1677C328.608 59.4038 328.864 59.6245 329.133 59.8284L329.707 60.2897L330.162 60.6699C330.162 60.6699 330 60.5577 329.688 60.3146L329.102 59.8658C328.829 59.675 328.569 59.4668 328.323 59.2425C326.649 57.737 325.227 55.9736 324.109 54.0191C323.729 53.3958 323.405 52.6914 323.037 51.9621C322.669 51.2329 322.358 50.4412 322.096 49.5873C321.455 47.7638 320.979 45.8863 320.675 43.9774C320.304 41.7871 320.096 39.5725 320.052 37.3516C320.052 36.1735 320.052 34.9642 320.052 33.7176C320.036 32.4384 320.109 31.1596 320.27 29.8904C320.389 29.2196 320.65 28.582 321.036 28.0205C321.448 27.4547 321.994 27.0005 322.626 26.699C323.278 26.3772 324.024 26.3019 324.726 26.4871C325.428 26.7227 326.029 27.1912 326.428 27.8148C326.818 28.4186 327.176 29.0428 327.5 29.6847C327.847 30.3243 328.265 30.9224 328.747 31.4674C329.72 32.599 330.955 33.4762 332.343 34.023C333.039 34.301 333.81 34.3296 334.525 34.1041C334.871 33.9588 335.181 33.7395 335.433 33.4617C335.685 33.1839 335.873 32.8542 335.984 32.4959C336.495 31.0249 336.326 29.3793 336.364 27.7462C336.401 26.1131 336.364 24.4489 336.364 22.7597C336.364 21.0705 336.314 19.3751 336.464 17.636C336.533 16.7538 336.723 15.8853 337.031 15.0555C337.348 14.2092 337.851 13.4446 338.502 12.8178C339.173 12.1567 340.056 11.7529 340.995 11.6771C341.932 11.6416 342.845 11.9751 343.538 12.6058C343.899 12.9435 344.158 13.3753 344.286 13.8525C344.399 14.3108 344.433 14.7852 344.386 15.2549C344.342 15.6977 344.359 16.1443 344.436 16.5826C344.47 16.7884 344.546 16.9852 344.658 17.1609C344.771 17.3367 344.918 17.4877 345.09 17.6048C345.276 17.6912 345.482 17.7274 345.686 17.7099C345.891 17.6924 346.087 17.6218 346.256 17.5051C346.638 17.2562 346.982 16.9539 347.278 16.6075C347.916 15.9355 348.491 15.2074 348.998 14.4321C351.074 11.3156 352.271 7.57564 354.914 4.61488C356.215 3.09503 357.958 2.01872 359.9 1.53569C360.9 1.30839 361.941 1.3421 362.923 1.63357C363.906 1.92505 364.796 2.46447 365.51 3.19995C366.228 3.94904 366.668 4.92126 366.757 5.95501C366.831 6.97072 366.649 7.98876 366.227 8.91578C365.354 10.6896 364.205 12.3138 362.824 13.7278C361.523 15.1595 360.117 16.491 358.616 17.7108C357.875 18.3341 357.102 18.8826 356.322 19.4249C355.938 19.6634 355.603 19.9746 355.338 20.3412C355.221 20.5252 355.15 20.7342 355.131 20.951C355.111 21.1677 355.144 21.3861 355.225 21.5878C355.416 21.9889 355.699 22.3391 356.051 22.6099C356.404 22.8807 356.815 23.0645 357.251 23.1461C358.151 23.3239 359.064 23.4199 359.981 23.4329C360.928 23.4521 361.857 23.6866 362.699 24.1185C363.122 24.3459 363.487 24.668 363.765 25.0597C364.036 25.4607 364.191 25.9287 364.214 26.4123C364.198 27.3569 363.847 28.265 363.223 28.9742C362.655 29.6782 361.999 30.3066 361.272 30.8441C359.885 31.9232 358.413 32.8883 356.871 33.7301C355.367 34.5507 353.8 35.249 352.184 35.8182C351.393 36.068 350.62 36.372 349.871 36.7282C349.143 37.0655 348.525 37.6013 348.088 38.2741C347.871 38.5944 347.724 38.9574 347.657 39.3389C347.59 39.7204 347.606 40.1117 347.702 40.4869C347.828 40.845 348.041 41.1664 348.321 41.422C348.602 41.6777 348.942 41.8596 349.31 41.9516C350.045 42.1665 350.826 42.1665 351.56 41.9516C352.295 41.7307 353.012 41.4536 353.705 41.1226C355.083 40.4321 356.626 40.1386 358.161 40.2749C358.912 40.3476 359.639 40.5792 360.293 40.9543C360.938 41.3295 361.47 41.8722 361.833 42.5251C362.483 43.8168 362.598 45.3133 362.15 46.6889C361.731 47.9766 361.061 49.169 360.181 50.1981C357.207 53.8801 353.482 56.885 349.254 59.0119C347.519 59.8665 345.705 60.5512 343.837 61.0564C342.273 61.5019 340.67 61.8003 339.05 61.9477C336.807 62.159 334.543 61.9776 332.362 61.4116C331.796 61.2702 331.238 61.0975 330.692 60.8943C330.293 60.7385 330.106 60.6574 330.106 60.6574Z" fill="#263238"/>
<path d="M364.108 2.97546C364.108 2.97546 364.058 3.0378 363.946 3.13753C363.833 3.23726 363.653 3.38685 363.447 3.57385C363.004 3.95407 362.356 4.51506 361.54 5.26304C359.23 7.36963 357.081 9.64701 355.113 12.0759C353.867 13.6093 352.551 15.3421 351.186 17.2308C349.821 19.1194 348.381 21.1577 346.941 23.3517C345.419 25.633 344.025 27.9969 342.765 30.4326C342.111 31.6793 341.519 33.0256 340.926 34.3782C340.334 35.7308 339.73 37.1084 339.119 38.4984C336.795 43.706 334.764 49.0396 333.035 54.474C331.64 58.9207 330.668 63.4891 330.131 68.1185C329.777 71.2429 329.696 74.3921 329.887 77.5306C329.962 78.6401 330.037 79.5003 330.112 80.0862C330.143 80.3604 330.162 80.5848 330.18 80.7469C330.185 80.8237 330.185 80.9007 330.18 80.9775C330.155 80.905 330.138 80.8297 330.131 80.7531C330.131 80.5911 330.074 80.3667 330.031 80.0924C329.937 79.5127 329.844 78.6525 329.744 77.5368C329.509 74.3931 329.559 71.2345 329.894 68.0998C330.403 63.4478 331.359 58.8557 332.748 54.3868C334.462 48.9347 336.489 43.586 338.82 38.3675L340.627 34.2473C341.251 32.901 341.818 31.5608 342.497 30.2893C343.768 27.8454 345.173 25.4732 346.705 23.1834C348.157 20.9894 349.609 18.9636 350.981 17.0749C352.352 15.1863 353.68 13.4534 354.945 11.9263C356.935 9.50451 359.115 7.2451 361.465 5.16954C362.294 4.43403 362.954 3.88551 363.403 3.51775L363.927 3.10636L364.108 2.97546Z" fill="#263238"/>
<path d="M342.578 30.2831C342.502 30.0501 342.45 29.8099 342.422 29.5663C342.341 29.105 342.242 28.4381 342.129 27.6028C341.911 25.9448 341.687 23.6385 341.444 21.1016C341.201 18.5647 340.951 16.2585 340.702 14.6067C340.584 13.7839 340.478 13.1107 340.403 12.6494C340.349 12.412 340.32 12.1697 340.316 11.9264C340.41 12.1529 340.479 12.3891 340.521 12.6307C340.633 13.0795 340.771 13.7465 340.92 14.5755C341.219 16.2211 341.512 18.5211 341.749 21.0705C341.986 23.6198 342.186 25.8451 342.373 27.5779C342.447 28.3633 342.516 29.024 342.566 29.5538C342.595 29.7959 342.599 30.0402 342.578 30.2831Z" fill="#263238"/>
<path d="M364.039 26.4746C363.758 26.5367 363.472 26.5701 363.185 26.5744C362.63 26.618 361.839 26.6741 360.854 26.78C358.89 26.9733 356.185 27.3348 353.224 27.8646C350.264 28.3944 347.615 28.9991 345.682 29.4915C344.722 29.7283 343.949 29.9403 343.413 30.0836C343.142 30.1765 342.862 30.2433 342.578 30.2831C342.835 30.1508 343.104 30.0443 343.382 29.9652C343.906 29.7907 344.672 29.5413 345.626 29.2796C347.496 28.731 350.195 28.0953 353.168 27.5592C355.705 27.0964 358.264 26.7635 360.835 26.5619C361.82 26.4871 362.624 26.4559 363.179 26.4497C363.466 26.4353 363.753 26.4437 364.039 26.4746Z" fill="#263238"/>
<path d="M333.023 54.0004C332.966 53.9184 332.918 53.8306 332.879 53.7386C332.786 53.5267 332.667 53.2711 332.524 52.9595C332.212 52.28 331.789 51.289 331.277 50.0548C330.261 47.5927 328.977 44.1457 327.606 40.3248C326.235 36.5038 324.976 33.0444 324.022 30.5636L322.875 27.6278C322.75 27.3099 322.651 27.0419 322.57 26.8237C322.524 26.7339 322.495 26.6369 322.482 26.537C322.541 26.6201 322.589 26.7102 322.626 26.805C322.726 27.0107 322.844 27.2663 322.987 27.5779C323.293 28.2573 323.717 29.2484 324.234 30.4826C325.244 32.9759 326.534 36.3916 327.905 40.2188C329.277 44.046 330.529 47.4929 331.489 49.9738L332.63 52.9283L332.935 53.7324C332.979 53.8164 333.008 53.9069 333.023 54.0004Z" fill="#263238"/>
<path d="M361.577 45.0931L361.296 45.2053L360.461 45.4734L357.407 46.4333C354.826 47.2436 351.273 48.403 347.347 49.6932C343.42 50.9835 339.867 52.1117 337.255 52.8659C335.959 53.2461 334.905 53.5453 334.17 53.7323L333.328 53.9443C333.23 53.9799 333.127 53.9988 333.023 54.0004C333.113 53.9502 333.209 53.9124 333.309 53.8882L334.138 53.6139L337.193 52.654C339.779 51.8437 343.332 50.6843 347.253 49.4003C351.174 48.1162 354.733 46.9818 357.345 46.2214C358.641 45.8411 359.701 45.5482 360.461 45.3549L361.309 45.143C361.396 45.1141 361.486 45.0973 361.577 45.0931Z" fill="#263238"/>
<path d="M315.015 22.6288C315.954 22.7053 316.867 22.9698 317.701 23.4067C318.536 23.8437 319.273 24.444 319.871 25.1719C321.06 26.6366 321.896 28.3557 322.314 30.1959C323.224 33.7176 322.613 37.8565 321.579 41.3408C317.789 39.9508 315.483 35.8743 314.435 33.7363C312.79 30.3517 311.867 23.2396 315.015 22.6288Z" fill="#437EF7"/>
<path d="M327.014 45.6416C326.451 44.7519 326.134 43.7294 326.093 42.6776C326.053 41.6258 326.291 40.5819 326.783 39.6516C327.294 38.7314 327.982 37.9219 328.808 37.2702C329.634 36.6185 330.582 36.1376 331.595 35.8555C332.046 35.6755 332.53 35.5961 333.015 35.623C333.5 35.65 333.972 35.7825 334.4 36.0114C334.762 36.2894 335.042 36.6592 335.212 37.0824C335.382 37.5056 335.435 37.9666 335.366 38.4174C335.217 39.3162 334.832 40.1594 334.251 40.8608C332.381 43.3541 330.118 45.411 327.014 45.6416Z" fill="#437EF7"/>
<path d="M327.332 57.3788C327.253 57.1414 327.197 56.8973 327.163 56.6495C327.07 56.1259 326.945 55.4527 326.796 54.6424C326.314 52.4368 326.192 50.1677 326.434 47.9231C326.711 45.6547 327.591 43.5021 328.984 41.6899C329.407 41.1504 329.895 40.6648 330.436 40.2438C330.582 40.1279 330.734 40.0197 330.891 39.9197C330.947 39.8838 331.008 39.8565 331.072 39.8386C330.364 40.4317 329.716 41.0936 329.139 41.8145C327.825 43.6192 326.989 45.727 326.708 47.9418C326.472 50.1624 326.566 52.4059 326.989 54.5988C327.12 55.4465 327.22 56.1384 327.282 56.6121C327.322 56.8656 327.339 57.1222 327.332 57.3788Z" fill="#263238"/>
<path d="M316.199 27.9955C316.258 28.0862 316.308 28.1822 316.349 28.2822C316.449 28.5004 316.573 28.7809 316.735 29.1299C317.06 29.8717 317.527 30.95 318.088 32.2839C319.21 34.9517 320.706 38.6605 322.27 42.7931C323.835 46.9257 325.163 50.703 326.085 53.4456C326.546 54.8169 326.914 55.9388 327.157 56.7055L327.425 57.5969C327.463 57.6998 327.49 57.8063 327.506 57.9148C327.456 57.8182 327.412 57.7182 327.375 57.6156C327.294 57.3849 327.188 57.0982 327.058 56.7367C326.777 55.9451 326.384 54.8667 325.911 53.5079C324.938 50.7778 323.586 47.0192 322.021 42.9115C320.457 38.8038 318.992 35.0639 317.913 32.3774C317.384 31.056 316.954 29.9776 316.636 29.1985L316.299 28.3258C316.251 28.2209 316.217 28.1097 316.199 27.9955Z" fill="#263238"/>
<path d="M322.888 49.5811C321.764 47.6641 320.199 46.0424 318.324 44.8501C316.449 43.6578 314.317 42.9292 312.104 42.7246C310.976 42.6311 309.611 42.8119 309.118 43.8154C308.626 44.8189 309.268 46.0219 310.022 46.8634C311.637 48.5804 313.724 49.7807 316.021 50.3132C318.317 50.8456 320.719 50.6863 322.925 49.8554" fill="#437EF7"/>
<path d="M313.787 45.7726C314.021 45.7491 314.257 45.7491 314.491 45.7726C314.766 45.7919 315.038 45.8273 315.308 45.8786C315.626 45.9409 315.994 45.9783 316.386 46.0905C316.818 46.1894 317.245 46.31 317.664 46.452C318.148 46.6129 318.622 46.8001 319.085 47.013C321.229 47.9735 323.104 49.4462 324.546 51.3014C324.858 51.6998 325.148 52.1161 325.412 52.5481C325.64 52.9253 325.848 53.3143 326.035 53.7137C326.198 54.0403 326.344 54.3753 326.472 54.7172C326.581 54.9703 326.673 55.2306 326.746 55.4964C326.828 55.718 326.887 55.9479 326.92 56.182C326.864 56.182 326.603 55.2283 325.867 53.7947C325.667 53.4073 325.446 53.0307 325.206 52.6665C324.939 52.2351 324.647 51.8189 324.334 51.4199C323.612 50.525 322.795 49.7119 321.897 48.9952C320.986 48.2946 320.004 47.6929 318.967 47.2C318.513 46.9844 318.047 46.795 317.571 46.6328C317.163 46.4779 316.747 46.3468 316.324 46.2401C314.784 45.891 313.781 45.8287 313.787 45.7726Z" fill="#263238"/>
<path d="M378.918 54.2996H157.521C153.704 54.2996 150.609 57.3944 150.609 61.2122V204.201C150.609 208.019 153.704 211.114 157.521 211.114H378.918C382.735 211.114 385.83 208.019 385.83 204.201V61.2122C385.83 57.3944 382.735 54.2996 378.918 54.2996Z" fill="#F5F5F5"/>
<path d="M374.448 58.1329H161.354C157.537 58.1329 154.442 61.2278 154.442 65.0455V199.944C154.442 203.762 157.537 206.857 161.354 206.857H374.448C378.266 206.857 381.361 203.762 381.361 199.944V65.0455C381.361 61.2278 378.266 58.1329 374.448 58.1329Z" fill="#437EF7"/>
<path d="M376.013 103.916H157.858V186.075H376.013V103.916Z" fill="white"/>
<path d="M175.394 134.059L164.798 153.557L165.67 106.216C165.869 103.208 166.884 100.312 168.606 97.8384C169.336 96.728 170.191 95.7052 171.155 94.7904C172.402 93.737 174.066 92.4031 175.207 91.9543C176.622 91.3933 176.666 89.4298 175.35 89.087C174.035 88.7442 170.096 90.1903 166.667 93.7058C163.239 97.2213 164.012 89.6231 164.249 86.8493C164.486 84.0755 164.804 75.4737 164.006 74.7507C162.84 73.6848 161.45 74.7507 161.282 77.5432C161.114 80.3356 160.035 88.6071 158.558 88.4512C157.081 88.2954 158.508 74.1959 158.508 74.1959C158.508 74.1959 159.294 71.2165 157.617 70.9796C154.588 70.5495 154.22 85.6214 154.22 87.0612C154.22 88.0585 152.63 87.9463 152.686 86.8742C152.743 85.8021 154.394 72.8246 151.315 72.3634C148.953 72.0081 150.898 84.7612 149.065 87.323C147.232 89.8848 148.579 77.4746 146.304 77.2253C145.462 77.1318 144.814 77.1816 145.057 84.3747C145.194 88.2455 146.927 94.0299 146.615 101.497L146.541 103.43C144.752 117.398 136.692 190.682 164.436 188.693C164.436 188.693 185.485 185.77 197.185 147.461L175.394 134.059Z" fill="#FFBE9D"/>
<path d="M151.652 98.287C151.652 98.3556 152.119 98.4117 152.811 98.7732C153.744 99.2543 154.472 100.055 154.862 101.03L155.08 101.584L155.323 101.042C155.672 100.268 156.16 99.5648 156.763 98.9665C157.923 97.7858 159.414 96.984 161.039 96.6664C162.285 96.4108 163.096 96.5542 163.108 96.4545C162.427 96.2031 161.688 96.1469 160.976 96.2924C159.228 96.5192 157.607 97.3296 156.376 98.5925C155.736 99.2405 155.224 100.004 154.868 100.843H155.329C155.106 100.313 154.78 99.8327 154.37 99.4295C153.96 99.0262 153.475 98.7078 152.942 98.4927C152.545 98.2883 152.093 98.2163 151.652 98.287Z" fill="#EB996E"/>
<path d="M301.94 143.166L313.727 165.369L324.492 186.075H300.151L285.067 154.99" fill="#FFBE9D"/>
<path d="M209.62 186.075C211.939 178.178 210.418 176.931 207.925 169.09L202.564 152.26L190.834 169.588L165.895 149.543L174.166 130.887C189.618 95.8686 214.682 98.3556 214.682 98.3556L246.621 92.2596C246.621 92.2596 267.053 90.3896 280.28 102.395C284.593 106.309 304.184 141.576 304.184 141.576L280.111 158.443L274.209 148.377L272.575 162.059C271.291 169.539 271.372 179.057 274.209 186.075" fill="#455A64"/>
<path d="M206.84 110.274C206.84 110.361 201.586 111.52 195.072 112.86C188.558 114.2 183.229 115.216 183.229 115.129C183.229 115.042 188.477 113.883 194.997 112.542C201.517 111.202 206.822 110.174 206.84 110.274Z" fill="#FAFAFA"/>
<path d="M277.07 100.188C277.07 100.282 271.915 101.31 265.513 102.488C259.112 103.666 253.913 104.558 253.895 104.464C253.876 104.371 259.056 103.348 265.457 102.17C271.859 100.992 277.057 100.101 277.07 100.188Z" fill="#FAFAFA"/>
<path d="M286.912 111.589C286.912 111.676 278.89 113.459 268.954 115.622C259.018 117.785 250.953 119.424 250.934 119.362C250.915 119.299 258.95 117.492 268.885 115.329C278.821 113.166 286.868 111.52 286.912 111.589Z" fill="#FAFAFA"/>
<path d="M296.754 129.16L296.417 129.229L295.433 129.403L291.624 130.026L277.618 132.32L231.38 139.738C213.304 142.599 196.954 145.148 185.099 146.931C179.177 147.828 174.378 148.527 171.056 148.988C169.398 149.212 168.107 149.381 167.228 149.474C166.791 149.569 166.34 149.595 165.895 149.549C166.34 149.542 166.784 149.496 167.222 149.412L171.037 148.863L185.068 146.706L231.33 139.414L277.562 132.09L291.587 129.896L295.401 129.316L296.399 129.173L296.754 129.16Z" fill="#FAFAFA"/>
<path d="M273.236 156.449C273.236 156.536 258.389 158.549 240.057 160.937C221.725 163.324 206.853 165.188 206.84 165.101C206.828 165.013 221.681 163.006 240.019 160.613C258.357 158.219 273.199 156.362 273.236 156.449Z" fill="#FAFAFA"/>
<path d="M270.4 179.786C270.4 179.88 257.111 179.867 240.73 179.786C224.349 179.705 211.054 179.537 211.054 179.443C211.054 179.35 224.337 179.362 240.73 179.443C257.123 179.524 270.4 179.699 270.4 179.786Z" fill="#FAFAFA"/>
<path d="M215.972 124.697C215.832 124.743 215.688 124.774 215.542 124.791L214.295 124.996L209.745 125.719C205.899 126.343 200.595 127.222 194.785 128.312C188.976 129.403 183.678 130.494 179.869 131.311L175.338 132.277L174.091 132.532C173.949 132.571 173.802 132.594 173.655 132.601C173.789 132.543 173.929 132.499 174.072 132.47L175.338 132.152C176.397 131.89 177.931 131.529 179.826 131.086C183.622 130.207 188.882 129.085 194.729 127.97C200.576 126.854 205.887 126.031 209.739 125.476C211.671 125.196 213.229 124.984 214.314 124.853L215.56 124.71C215.697 124.692 215.835 124.688 215.972 124.697Z" fill="#FAFAFA"/>
<path d="M243.392 24.1123C242.625 33.3499 255.004 39.9072 253.901 49.1074C253.595 51.663 252.268 54.443 253.62 56.6371C255.241 59.2737 259.186 58.7189 262.066 59.8596C265.613 61.2621 267.427 65.5318 266.891 69.3029C266.355 73.074 263.911 76.3339 261.038 78.8459C256.501 82.8119 250.831 85.2481 244.831 85.8084C242.051 86.0577 239.147 85.8582 236.666 84.5617C234.185 83.2652 232.222 80.7657 232.209 77.9732" fill="#263238"/>
<path d="M244.613 97.5578C242.968 89.6728 241.378 81.3515 241.378 81.3515C241.378 81.3515 251.171 77.5119 250.466 63.8301C249.799 50.7778 241.54 22.0677 241.54 22.0677C225.677 19.2067 209.215 26.8361 201.274 40.7673L215.691 104.558C217.362 111.963 225.041 116.401 232.976 114.574C240.973 112.667 246.178 105.069 244.613 97.5578Z" fill="#FFBE9D"/>
<path d="M242.613 45.6354C242.709 46.0771 242.629 46.5388 242.39 46.9228C242.152 47.3068 241.773 47.5828 241.335 47.6923C241.122 47.7557 240.899 47.7759 240.679 47.7516C240.459 47.7274 240.246 47.6592 240.052 47.5511C239.858 47.443 239.689 47.2972 239.552 47.1223C239.416 46.9475 239.316 46.7471 239.259 46.533C239.16 46.0946 239.235 45.635 239.467 45.2503C239.699 44.8657 240.072 44.586 240.506 44.4698C240.721 44.4025 240.947 44.3796 241.171 44.4023C241.395 44.425 241.612 44.4929 241.809 44.6018C242.005 44.7108 242.178 44.8585 242.316 45.0362C242.455 45.2138 242.555 45.4177 242.613 45.6354Z" fill="#263238"/>
<path d="M244.526 43.9213C244.364 44.1893 242.874 43.5099 241.048 43.9213C239.222 44.3327 238.075 45.5107 237.832 45.33C237.713 45.2489 237.832 44.8064 238.337 44.2579C239.003 43.5449 239.874 43.0552 240.83 42.8554C241.778 42.6503 242.767 42.7529 243.653 43.1483C244.314 43.4413 244.588 43.8028 244.526 43.9213Z" fill="#263238"/>
<path d="M223.957 49.9176C224.056 50.3559 223.981 50.8156 223.749 51.2002C223.516 51.5848 223.144 51.8646 222.71 51.9808C222.497 52.0432 222.274 52.0624 222.054 52.0374C221.833 52.0123 221.62 51.9435 221.427 51.8349C221.234 51.7263 221.064 51.5801 220.928 51.405C220.792 51.2299 220.692 51.0294 220.634 50.8152C220.536 50.3776 220.61 49.9188 220.843 49.5352C221.075 49.1516 221.447 48.873 221.881 48.7582C222.093 48.6948 222.316 48.6747 222.537 48.6989C222.757 48.7232 222.97 48.7914 223.164 48.8995C223.357 49.0076 223.527 49.1533 223.663 49.3282C223.8 49.5031 223.899 49.7035 223.957 49.9176Z" fill="#263238"/>
<path d="M225.826 48.1848C225.664 48.4466 224.175 47.7672 222.348 48.1848C220.522 48.6025 219.381 49.7743 219.132 49.5935C219.014 49.5187 219.132 49.07 219.637 48.5214C220.307 47.812 221.176 47.3229 222.13 47.119C223.081 46.9164 224.071 47.019 224.96 47.4119C225.646 47.7049 225.926 48.0602 225.826 48.1848Z" fill="#263238"/>
<path d="M235.538 59.9967C235.507 59.8907 236.604 59.4544 238.393 58.8311C238.848 58.6815 239.272 58.5007 239.284 58.1642C239.214 57.6728 238.997 57.2143 238.661 56.8489L236.529 53.589C233.537 48.9328 231.268 45.0682 231.461 44.9498C231.655 44.8314 234.223 48.509 237.208 53.1589L239.29 56.45C239.698 56.9541 239.919 57.5842 239.914 58.2327C239.881 58.4112 239.807 58.5798 239.699 58.7257C239.591 58.8715 239.451 58.9907 239.29 59.0742C239.048 59.1997 238.79 59.2939 238.524 59.3547C236.716 59.8471 235.569 60.0964 235.538 59.9967Z" fill="#263238"/>
<path d="M241.41 81.3515C235.206 82.7581 228.733 82.4193 222.71 80.3729C222.71 80.3729 228.943 88.5571 241.927 84.5118L241.41 81.3515Z" fill="#EB996E"/>
<path d="M235.7 64.5593C235.259 64.1958 234.733 63.9507 234.172 63.8471C233.61 63.7435 233.031 63.7848 232.49 63.9671C232.094 64.0868 231.726 64.2863 231.41 64.5532C231.094 64.8201 230.835 65.1488 230.651 65.5192C230.47 65.8744 230.402 66.2768 230.458 66.6717C230.514 67.0666 230.69 67.4347 230.963 67.7257C231.322 67.9857 231.751 68.1339 232.194 68.1516C232.638 68.1693 233.077 68.0559 233.456 67.8254C234.254 67.3424 234.948 66.707 235.5 65.9555C235.672 65.7735 235.809 65.5624 235.906 65.3322C235.952 65.2161 235.963 65.0886 235.936 64.9663C235.91 64.844 235.847 64.7326 235.756 64.6465" fill="white"/>
<path d="M230.427 62.3965C230.726 62.3154 231.15 64.2976 233.144 65.351C235.139 66.4044 237.202 65.7312 237.277 65.9743C237.333 66.0927 236.89 66.4605 235.999 66.6724C234.841 66.9364 233.626 66.7818 232.571 66.2361C231.558 65.7165 230.789 64.8218 230.427 63.7428C230.19 62.9512 230.289 62.4152 230.427 62.3965Z" fill="#263238"/>
<path d="M209.234 54.2996C207.749 54.2964 206.293 54.7041 205.026 55.4777C203.766 56.2649 202.869 57.5204 202.533 58.9682C202.27 60.4391 202.578 61.9549 203.393 63.2068C204.208 64.4466 205.29 65.4881 206.56 66.2548C207.43 66.8684 208.435 67.2659 209.489 67.4142C210.017 67.4849 210.554 67.4234 211.053 67.2352C211.551 67.047 211.995 66.7379 212.344 66.3359" fill="#FFBE9D"/>
<path d="M210.244 63.0509C210.418 63.0509 209.982 64.0545 208.617 63.9797C207.878 63.8874 207.206 63.5065 206.747 62.92C206.205 62.2731 205.796 61.5253 205.544 60.7197C205.253 59.8669 205.277 58.9382 205.612 58.1018C205.751 57.7453 205.97 57.4255 206.252 57.1672C206.534 56.9089 206.872 56.7189 207.239 56.612C208.567 56.3004 209.171 57.1356 209.028 57.1917C208.885 57.2478 208.324 56.9549 207.501 57.3475C206.678 57.7402 206.117 59.0056 206.603 60.3956C207.09 61.7856 207.912 63.0322 208.76 63.2005C209.608 63.3688 210.156 62.9512 210.244 63.0509Z" fill="#EB996E"/>
<path d="M237.67 19.1444C238.632 21.0384 238.956 23.1933 238.592 25.2866C238.228 27.3799 237.196 29.299 235.65 30.7568C232.484 33.6054 227.896 34.0105 223.807 35.2011C219.718 36.3916 215.336 39.4022 215.523 43.6595C215.635 46.24 217.468 48.7208 216.807 51.2141C216.04 54.1375 212.307 55.3841 211.253 58.214C209.564 62.7642 215.747 66.8594 215.473 71.7026C215.311 74.5761 212.88 76.9198 212.612 79.8057C212.226 83.8822 216.227 88.2143 214.002 91.6488C212.294 94.2916 208.318 93.9114 205.4 92.7645C202.483 91.6176 199.292 89.9845 196.368 91.1314C194.611 91.8171 193.37 93.3878 191.806 94.4475C190.377 95.4172 188.693 95.9413 186.966 95.9533C185.239 95.9654 183.548 95.465 182.106 94.5153C180.664 93.5657 179.536 92.2096 178.865 90.6186C178.194 89.0276 178.01 87.2733 178.336 85.5777C178.81 83.0844 180.318 80.9464 181.534 78.7211C182.749 76.4959 183.715 73.8967 182.986 71.472C182.419 69.602 180.96 68.1933 179.801 66.635C178.641 65.0767 177.738 63.026 178.485 61.2371C179.794 58.0893 184.812 58.3636 186.632 55.4838C189.126 51.5258 183.341 46.4894 184.825 42.0513C186.508 37.0274 195.421 37.925 197.116 32.901C197.74 31.0747 197.116 29.0614 197.285 27.1416C197.727 22.7783 202.334 19.9422 206.678 19.188C211.023 18.4338 215.56 18.9948 219.824 17.8728C222.155 17.2495 224.337 16.1462 226.631 15.3795C228.924 14.6129 231.468 14.2326 233.736 15.0741C236.005 15.9156 237.819 18.2904 237.364 20.684" fill="#263238"/>
<path d="M235.706 28.5066C236.968 30.6896 238.712 32.5549 240.806 33.9595C242.9 35.364 245.288 36.2706 247.786 36.6097C247.705 33.2687 247.531 29.9028 246.627 26.6927C245.723 23.4827 244.027 20.3723 241.41 18.334C238.792 16.2958 235.089 15.4481 231.985 16.6635" fill="#263238"/>
<path d="M251.757 92.5775C252.885 92.7271 259.193 129.727 234.977 133.835C212.057 137.731 204.97 99.7145 204.97 99.7145C204.97 99.7145 220.41 88.3888 251.757 92.5775Z" fill="#FFBE9D"/>
<path d="M237.881 41.9204C238.025 42.1884 239.271 41.7895 240.824 41.615C242.376 41.4405 243.672 41.5277 243.747 41.2348C243.822 40.9418 242.5 40.3434 240.699 40.5553C238.897 40.7673 237.738 41.7085 237.881 41.9204Z" fill="#263238"/>
<path d="M219.375 44.7877C219.431 44.7378 219.425 44.6319 219.375 44.4636V44.7441C220.27 44.2893 221.216 43.942 222.193 43.7094C223.913 43.3354 225.372 43.7468 225.49 43.4663C225.54 43.3354 225.228 43.0424 224.592 42.843C223.752 42.5567 222.849 42.505 221.981 42.6934C221.406 42.7811 220.856 42.985 220.363 43.2925C219.87 43.6001 219.445 44.0049 219.113 44.4823L219.001 44.7067L219.095 44.7565C219.219 44.8251 219.325 44.8251 219.375 44.7877Z" fill="#263238"/>
<path d="M208.916 43.7094C207.502 43.7267 206.09 43.6371 204.69 43.4414C203.28 43.3549 201.879 43.1569 200.501 42.8492C201.915 42.8321 203.327 42.9217 204.727 43.1173C206.136 43.2087 207.537 43.4066 208.916 43.7094Z" fill="#B6B6B6"/>
<path d="M206.859 46.0717C205.809 46.3005 204.73 46.3594 203.661 46.2463C202.589 46.2436 201.524 46.069 200.507 45.7289C200.507 45.6416 201.935 45.8286 203.68 45.9221C205.425 46.0156 206.853 45.972 206.859 46.0717Z" fill="#B6B6B6"/>
<path d="M237.875 26.6927C237.85 26.8263 237.808 26.9562 237.751 27.0792C237.598 27.4395 237.388 27.7722 237.127 28.064C236.087 29.08 234.714 29.6865 233.263 29.7719C232.278 29.8821 231.283 29.8653 230.302 29.7221C229.249 29.5912 228.133 29.3979 226.961 29.3107C225.744 29.1723 224.511 29.3064 223.352 29.7034C222.146 30.2241 221.103 31.062 220.335 32.1281C219.481 33.1877 218.764 34.3222 217.923 35.3257C217.508 35.8216 217.047 36.2766 216.545 36.6845C216.052 37.0653 215.512 37.3796 214.937 37.6195C213.872 38.0156 212.769 38.3017 211.646 38.4735C210.683 38.6208 209.735 38.8481 208.81 39.1529C207.47 39.5735 206.323 40.4573 205.575 41.6462C205.344 42.1057 205.202 42.6048 205.157 43.1172C205.139 42.9827 205.139 42.8465 205.157 42.712C205.197 42.3223 205.304 41.9426 205.475 41.5901C206.197 40.3234 207.359 39.367 208.741 38.9036C209.675 38.5807 210.634 38.3367 211.609 38.1743C212.71 37.9979 213.79 37.7075 214.831 37.3079C215.956 36.8195 216.939 36.0565 217.692 35.0888C218.515 34.1102 219.226 32.9696 220.092 31.8912C220.904 30.7926 221.995 29.9317 223.252 29.3979C224.454 28.9912 225.732 28.8571 226.992 29.0053C229.379 29.2172 231.468 29.7844 233.225 29.5413C234.641 29.4932 235.995 28.9456 237.046 27.9955C237.389 27.6069 237.668 27.1674 237.875 26.6927Z" fill="#455A64"/>
<path d="M185.859 95.0147C186.048 94.975 186.233 94.9229 186.414 94.8588C186.916 94.6283 187.313 94.2164 187.524 93.7057C187.87 92.8988 187.888 91.9887 187.574 91.1688C187.274 90.1964 186.695 89.1617 186.252 87.9275C185.115 85.0511 184.806 81.9136 185.361 78.8707C185.74 77.08 186.52 75.3986 187.642 73.9527C188.244 73.194 188.949 72.5227 189.736 71.9581C190.555 71.3995 191.439 70.9412 192.367 70.593C193.275 70.269 194.119 69.788 194.86 69.1719C195.189 68.8582 195.445 68.4765 195.611 68.0533C195.777 67.6301 195.848 67.1758 195.82 66.7222C195.714 64.9084 194.723 63.2441 194.754 61.449C194.771 60.5769 194.998 59.7218 195.415 58.9557C195.802 58.2521 196.28 57.6024 196.836 57.0234C197.841 56.0126 198.911 55.0693 200.04 54.1998C202.035 52.5542 203.275 50.7653 203.605 49.3566C203.775 48.6266 203.775 47.8675 203.605 47.1376C203.63 47.1823 203.647 47.2307 203.655 47.2809C203.655 47.3744 203.724 47.5178 203.761 47.7048C203.852 48.2641 203.833 48.8357 203.705 49.3878C203.492 50.2583 203.108 51.0781 202.577 51.8C201.883 52.7532 201.075 53.6177 200.171 54.3743C199.061 55.2501 198.007 56.1952 197.017 57.2042C196.482 57.7662 196.021 58.3947 195.646 59.0741C195.256 59.7953 195.042 60.5983 195.022 61.4178C195.054 62.2847 195.216 63.142 195.502 63.9609C195.816 64.8393 196.025 65.7514 196.125 66.6786C196.158 67.1782 196.081 67.6789 195.899 68.1453C195.717 68.6117 195.435 69.0324 195.072 69.3776C194.305 70.0217 193.429 70.524 192.485 70.8611C191.58 71.222 190.72 71.6885 189.923 72.2511C189.16 72.7981 188.476 73.4484 187.891 74.1834C186.795 75.5883 186.03 77.2225 185.654 78.9642C185.1 81.9534 185.381 85.0373 186.464 87.8777C186.888 89.1243 187.455 90.1403 187.748 91.1501C187.89 91.6187 187.957 92.1067 187.948 92.5962C187.928 93.0118 187.825 93.419 187.642 93.7929C187.406 94.3202 186.975 94.7357 186.439 94.9523C186.254 95.0186 186.055 95.04 185.859 95.0147Z" fill="#455A64"/>
<path d="M336.597 73.6442C312.938 72.0435 294.348 77.5101 281.83 83.2083L289.823 100.61C299.07 96.6836 312.379 92.1834 329.685 91.9267C342.285 91.7152 354.75 94.5453 366.024 100.177L376.001 84.9852C366.477 79.584 353.505 74.7869 336.597 73.6442Z" fill="white"/>
<path d="M303.324 90.0995L299.12 91.368L298.924 93.5375L296.055 94.4033L297.439 83.1328L300.208 82.2972L307.602 90.9099L304.678 91.7908L303.324 90.0995ZM301.874 88.2723L299.634 85.4786L299.297 89.0475L301.874 88.2723Z" fill="#437EF7"/>
<path d="M317.333 86.1178C317.68 87.8797 316.427 89.1985 313.693 89.7371L308.191 90.8244L306.178 80.6412L311.378 79.6092C314.056 79.1059 315.581 79.9113 315.908 81.4868C316.006 81.9462 315.971 82.4242 315.806 82.864C315.641 83.3039 315.353 83.6872 314.977 83.9685C315.551 84.0188 316.092 84.2565 316.518 84.6449C316.944 85.0333 317.23 85.5508 317.333 86.1178ZM309.44 82.1563L309.827 84.1195L311.811 83.7319C312.767 83.5406 313.2 83.1077 313.069 82.4533C312.938 81.7989 312.379 81.5774 311.423 81.7687L309.44 82.1563ZM314.358 86.3695C314.217 85.6749 313.628 85.4433 312.641 85.6396L310.225 86.1128L310.633 88.1817L313.049 87.7035C314.036 87.5072 314.494 87.0692 314.358 86.3695Z" fill="#437EF7"/>
<path d="M318.168 83.5808C317.922 80.475 320.182 78.0085 323.499 77.7467C326.816 77.485 329.429 79.5739 329.675 82.6798C329.922 85.7856 327.662 88.2571 324.34 88.5138C321.017 88.7706 318.425 86.6866 318.168 83.5808ZM326.725 82.9113C326.721 82.5288 326.637 82.1514 326.48 81.8026C326.323 81.4539 326.095 81.1413 325.812 80.8843C325.528 80.6273 325.195 80.4316 324.833 80.3092C324.47 80.1868 324.086 80.1404 323.705 80.173C322.135 80.2938 321.002 81.5623 321.138 83.3492C321.147 83.7306 321.234 84.1061 321.394 84.4528C321.553 84.7995 321.781 85.1101 322.065 85.3656C322.348 85.6212 322.68 85.8164 323.041 85.9392C323.403 86.0621 323.785 86.1101 324.165 86.0804C324.546 86.0506 324.916 85.9436 325.254 85.766C325.591 85.5884 325.889 85.3439 326.129 85.0473C326.369 84.7508 326.546 84.4085 326.65 84.0412C326.753 83.674 326.781 83.2895 326.731 82.9113H326.725Z" fill="#437EF7"/>
<path d="M338.197 86.3897L333.818 86.0725L332.856 88.0306L329.871 87.8142L335.187 77.782L338.071 77.9934L341.917 88.68L338.867 88.4635L338.197 86.3897ZM337.492 84.1698L336.4 80.7569L334.83 83.9735L337.492 84.1698Z" fill="#437EF7"/>
<path d="M347.429 86.9534L345.854 86.6665L345.35 89.3797L342.461 88.8511L344.328 78.6377L349 79.4934C351.788 79.9968 353.273 81.7687 352.845 84.0993C352.749 84.7796 352.451 85.4155 351.99 85.925C351.528 86.4346 350.925 86.7945 350.258 86.9584L351.874 90.5727L348.778 90.0089L347.429 86.9534ZM348.411 81.7385L346.805 81.4415L346.261 84.4617L347.867 84.7537C349.06 84.9701 349.76 84.5272 349.931 83.5909C350.102 82.6546 349.634 81.9549 348.411 81.7385Z" fill="#437EF7"/>
<path d="M355.931 80.8777L360.643 82.272C363.94 83.2486 365.636 85.8359 364.73 88.8914C363.824 91.9468 361 93.2053 357.683 92.2287L352.976 90.8344L355.931 80.8777ZM358.247 89.9384C359.943 90.4418 361.378 89.7622 361.886 88.0407C362.394 86.3191 361.554 84.9751 359.873 84.4768L358.096 83.9483L356.48 89.4098L358.247 89.9384Z" fill="#437EF7"/>
<path d="M309.983 64.5332L309.223 71.8371L307.149 72.2751L304.96 68.3941L304.456 72.8439L302.387 73.2818L298.743 66.9192L300.757 66.4964L303.057 70.5686L303.56 65.8973L305.337 65.5198L307.643 69.6173L308.146 64.9107L309.983 64.5332Z" fill="#263238"/>
<path d="M317.378 69.0535L317.594 70.5636L312.057 71.3589L311.05 64.4426L316.477 63.6624L316.693 65.1725L313.205 65.6758L313.371 66.8437L316.442 66.4007L316.653 67.8655L313.577 68.3034L313.759 69.5719L317.378 69.0535Z" fill="#263238"/>
<path d="M317.977 63.5013L319.935 63.3251L320.438 68.7212L323.761 68.4293L323.897 69.9897L318.611 70.4579L317.977 63.5013Z" fill="#263238"/>
<path d="M324.022 66.4561C323.992 64.3319 325.598 62.8016 327.813 62.7714C328.381 62.7376 328.949 62.8354 329.472 63.0572C329.996 63.279 330.462 63.6187 330.833 64.05L329.595 65.2027C329.398 64.9509 329.146 64.748 328.857 64.61C328.569 64.472 328.253 64.4027 327.933 64.4074C327.671 64.4003 327.411 64.4483 327.169 64.5482C326.926 64.6482 326.708 64.7979 326.527 64.9877C326.346 65.1775 326.207 65.4032 326.119 65.65C326.031 65.8969 325.996 66.1595 326.016 66.4209C326 66.6842 326.041 66.9478 326.135 67.1944C326.228 67.4411 326.373 67.6651 326.559 67.8519C326.746 68.0386 326.969 68.1839 327.216 68.2782C327.462 68.3726 327.725 68.4137 327.989 68.3991C328.308 68.3943 328.621 68.3159 328.905 68.1701C329.189 68.0243 329.435 67.815 329.625 67.5585L330.898 68.676C330.54 69.1176 330.083 69.4702 329.565 69.706C329.048 69.9418 328.482 70.0544 327.913 70.0351C325.699 70.0653 324.047 68.5803 324.022 66.4561Z" fill="#263238"/>
<path d="M331.422 66.4057C331.608 64.3167 333.385 62.9324 335.61 63.1287C337.835 63.325 339.34 65.0013 339.134 67.0903C338.927 69.1793 337.175 70.5635 334.946 70.3672C332.716 70.1709 331.236 68.4947 331.422 66.4057ZM337.165 66.9091C337.177 66.5405 337.08 66.1768 336.887 65.8627C336.694 65.5485 336.413 65.2978 336.079 65.1415C335.745 64.9852 335.373 64.93 335.008 64.9829C334.643 65.0358 334.302 65.1943 334.026 65.439C333.75 65.6837 333.552 66.0038 333.456 66.3598C333.36 66.7158 333.37 67.0921 333.486 67.4423C333.601 67.7924 333.817 68.1011 334.106 68.3301C334.395 68.5592 334.744 68.6986 335.112 68.7313C335.368 68.757 335.627 68.7295 335.872 68.6504C336.117 68.5713 336.343 68.4424 336.536 68.2717C336.729 68.1011 336.884 67.8924 336.993 67.6587C337.101 67.4251 337.16 67.1716 337.165 66.9141V66.9091Z" fill="#263238"/>
<path d="M345.99 71.7062L346.568 68.0517L344.308 70.7347L343.443 70.5937L342.154 67.4275L341.58 70.9813L339.778 70.6844L340.906 63.7982L342.511 64.06L344.283 68.4343L347.303 64.8452L348.904 65.107L347.797 72.0032L345.99 71.7062Z" fill="#263238"/>
<path d="M354.839 72.0788L354.491 73.5889L349.03 72.2952L350.61 65.4896L355.946 66.7279L355.604 68.238L352.151 67.4226L351.884 68.5652L354.904 69.27L354.567 70.7096L351.547 70.0049L351.255 71.2482L354.839 72.0788Z" fill="#263238"/>
</g>
<defs>
<clipPath id="clip0_231_8771">
<rect width="278" height="235.614" fill="white" transform="translate(126 1.19287)"/>
</clipPath>
</defs>
</svg>
