<svg width="198" height="43" viewBox="0 0 198 43" fill="none" xmlns="http://www.w3.org/2000/svg">
<path d="M0.648438 9.236H6.61244L10.6864 22.088C10.8824 22.62 11.0364 23.152 11.1484 23.684C11.2884 24.216 11.4004 24.748 11.4844 25.28C11.5964 25.812 11.6804 26.344 11.7364 26.876H11.8624C11.9744 26.176 12.1144 25.406 12.2824 24.566C12.4784 23.726 12.7024 22.9 12.9544 22.088L16.9444 9.236H22.8244L13.7944 34.982C13.2624 36.494 12.5904 37.782 11.7784 38.846C10.9944 39.91 10.0284 40.708 8.88044 41.24C7.76044 41.8 6.41644 42.08 4.84844 42.08C4.20444 42.08 3.63044 42.038 3.12644 41.954C2.65044 41.898 2.23044 41.828 1.86644 41.744V37.544C2.14644 37.6 2.49644 37.656 2.91644 37.712C3.33644 37.768 3.77044 37.796 4.21844 37.796C5.03044 37.796 5.71644 37.614 6.27644 37.25C6.86444 36.914 7.35444 36.438 7.74644 35.822C8.13844 35.234 8.43244 34.548 8.62844 33.764L9.21644 31.916L0.648438 9.236ZM45.4339 20.576C45.4339 22.48 45.1959 24.16 44.7199 25.616C44.2439 27.072 43.5439 28.318 42.6199 29.354C41.7239 30.362 40.6319 31.132 39.3439 31.664C38.0559 32.168 36.6139 32.42 35.0179 32.42C33.5339 32.42 32.1479 32.168 30.8599 31.664C29.5999 31.132 28.5079 30.362 27.5839 29.354C26.6879 28.318 25.9879 27.072 25.4839 25.616C24.9799 24.16 24.7279 22.48 24.7279 20.576C24.7279 18.056 25.1339 15.928 25.9459 14.192C26.7859 12.428 27.9899 11.098 29.5579 10.202C31.1259 9.278 32.9879 8.816 35.1439 8.816C37.1599 8.816 38.9379 9.278 40.4779 10.202C42.0179 11.098 43.2219 12.428 44.0899 14.192C44.9859 15.928 45.4339 18.056 45.4339 20.576ZM30.3979 20.576C30.3979 22.172 30.5659 23.544 30.9019 24.692C31.2379 25.812 31.7419 26.666 32.4139 27.254C33.1139 27.842 34.0099 28.136 35.1019 28.136C36.1939 28.136 37.0759 27.842 37.7479 27.254C38.4479 26.666 38.9519 25.812 39.2599 24.692C39.5959 23.544 39.7639 22.172 39.7639 20.576C39.7639 18.952 39.5959 17.594 39.2599 16.502C38.9239 15.382 38.4059 14.542 37.7059 13.982C37.0339 13.394 36.1519 13.1 35.0599 13.1C33.4079 13.1 32.2179 13.744 31.4899 15.032C30.7619 16.32 30.3979 18.168 30.3979 20.576ZM69.7952 9.236V32H65.5112L64.7972 29.06H64.5032C64.0552 29.844 63.4812 30.488 62.7812 30.992C62.0812 31.468 61.3112 31.818 60.4712 32.042C59.6312 32.294 58.7632 32.42 57.8672 32.42C56.2992 32.42 54.9412 32.126 53.7932 31.538C52.6452 30.95 51.7492 30.054 51.1052 28.85C50.4892 27.618 50.1812 26.036 50.1812 24.104V9.236H55.7672V23.054C55.7672 24.734 56.0472 26.008 56.6072 26.876C57.1952 27.716 58.1192 28.136 59.3792 28.136C60.6392 28.136 61.6192 27.842 62.3192 27.254C63.0472 26.638 63.5512 25.756 63.8312 24.608C64.1112 23.46 64.2512 22.046 64.2512 20.366V9.236H69.7952ZM87.535 8.816C87.927 8.816 88.333 8.83 88.753 8.858C89.173 8.886 89.523 8.942 89.803 9.026L89.299 13.94C89.019 13.884 88.683 13.842 88.291 13.814C87.927 13.758 87.535 13.73 87.115 13.73C86.415 13.73 85.729 13.87 85.057 14.15C84.385 14.402 83.783 14.794 83.251 15.326C82.719 15.83 82.285 16.488 81.949 17.3C81.641 18.112 81.487 19.078 81.487 20.198V32H75.901V9.236H80.185L80.941 13.184H81.235C81.655 12.372 82.173 11.644 82.789 11C83.433 10.328 84.147 9.796 84.931 9.404C85.743 9.012 86.611 8.816 87.535 8.816ZM107.7 9.488V32H104.046V9.488H107.7ZM105.894 1.046C106.454 1.046 106.944 1.242 107.364 1.634C107.784 1.998 107.994 2.586 107.994 3.398C107.994 4.182 107.784 4.77 107.364 5.162C106.944 5.554 106.454 5.75 105.894 5.75C105.306 5.75 104.802 5.554 104.382 5.162C103.962 4.77 103.752 4.182 103.752 3.398C103.752 2.586 103.962 1.998 104.382 1.634C104.802 1.242 105.306 1.046 105.894 1.046ZM121.815 32.42C119.211 32.42 117.111 31.454 115.515 29.522C113.947 27.562 113.163 24.65 113.163 20.786C113.163 16.922 113.961 14.01 115.557 12.05C117.153 10.062 119.253 9.068 121.857 9.068C122.949 9.068 123.901 9.222 124.713 9.53C125.525 9.81 126.225 10.202 126.813 10.706C127.429 11.21 127.947 11.77 128.367 12.386H128.619C128.591 12.022 128.535 11.49 128.451 10.79C128.395 10.062 128.367 9.488 128.367 9.068V0.0799979H132.021V32H129.081L128.535 28.976H128.367C127.947 29.62 127.429 30.208 126.813 30.74C126.225 31.244 125.511 31.65 124.671 31.958C123.859 32.266 122.907 32.42 121.815 32.42ZM122.487 29.354C124.671 29.354 126.197 28.71 127.065 27.422C127.961 26.106 128.409 24.132 128.409 21.5V20.828C128.409 18.028 127.989 15.886 127.149 14.402C126.309 12.89 124.741 12.134 122.445 12.134C120.597 12.134 119.211 12.932 118.287 14.528C117.391 16.096 116.943 18.21 116.943 20.87C116.943 23.558 117.391 25.644 118.287 27.128C119.211 28.612 120.611 29.354 122.487 29.354ZM146.894 9.068C148.714 9.068 150.282 9.488 151.598 10.328C152.914 11.168 153.922 12.358 154.622 13.898C155.35 15.41 155.714 17.188 155.714 19.232V21.458H141.266C141.322 24.006 141.924 25.952 143.072 27.296C144.22 28.612 145.83 29.27 147.902 29.27C149.246 29.27 150.436 29.144 151.472 28.892C152.536 28.612 153.628 28.22 154.748 27.716V30.95C153.656 31.454 152.578 31.818 151.514 32.042C150.478 32.294 149.218 32.42 147.734 32.42C145.718 32.42 143.94 31.986 142.4 31.118C140.86 30.25 139.656 28.962 138.788 27.254C137.92 25.518 137.486 23.404 137.486 20.912C137.486 18.448 137.878 16.334 138.662 14.57C139.446 12.806 140.538 11.448 141.938 10.496C143.366 9.544 145.018 9.068 146.894 9.068ZM146.894 12.092C145.27 12.092 143.982 12.666 143.03 13.814C142.078 14.934 141.518 16.502 141.35 18.518H151.934C151.934 17.23 151.752 16.11 151.388 15.158C151.024 14.206 150.464 13.464 149.708 12.932C148.98 12.372 148.042 12.092 146.894 12.092ZM169.121 9.11C171.697 9.11 173.615 9.712 174.875 10.916C176.163 12.12 176.807 14.038 176.807 16.67V32H174.161L173.447 28.808H173.279C172.663 29.62 172.033 30.306 171.389 30.866C170.773 31.398 170.045 31.79 169.205 32.042C168.393 32.294 167.385 32.42 166.181 32.42C164.921 32.42 163.787 32.182 162.779 31.706C161.771 31.23 160.973 30.502 160.385 29.522C159.797 28.514 159.503 27.254 159.503 25.742C159.503 23.502 160.329 21.78 161.981 20.576C163.633 19.344 166.181 18.672 169.625 18.56L173.195 18.434V17.09C173.195 15.214 172.817 13.912 172.061 13.184C171.333 12.456 170.283 12.092 168.911 12.092C167.819 12.092 166.769 12.274 165.761 12.638C164.781 12.974 163.843 13.366 162.947 13.814L161.813 11.042C162.765 10.51 163.871 10.062 165.131 9.698C166.391 9.306 167.721 9.11 169.121 9.11ZM170.129 21.122C167.553 21.234 165.761 21.682 164.753 22.466C163.773 23.25 163.283 24.356 163.283 25.784C163.283 27.044 163.633 27.968 164.333 28.556C165.033 29.144 165.943 29.438 167.063 29.438C168.799 29.438 170.255 28.92 171.431 27.884C172.607 26.82 173.195 25.196 173.195 23.012V20.996L170.129 21.122ZM197.23 25.784C197.23 27.24 196.88 28.458 196.18 29.438C195.508 30.418 194.542 31.16 193.282 31.664C192.022 32.168 190.51 32.42 188.746 32.42C187.262 32.42 185.974 32.294 184.882 32.042C183.818 31.79 182.88 31.44 182.068 30.992V27.632C182.936 28.08 183.972 28.5 185.176 28.892C186.38 29.256 187.598 29.438 188.83 29.438C190.538 29.438 191.77 29.144 192.526 28.556C193.31 27.94 193.702 27.128 193.702 26.12C193.702 25.56 193.548 25.056 193.24 24.608C192.96 24.16 192.442 23.712 191.686 23.264C190.958 22.816 189.894 22.312 188.494 21.752C187.15 21.192 185.988 20.632 185.008 20.072C184.056 19.512 183.314 18.84 182.782 18.056C182.278 17.272 182.026 16.264 182.026 15.032C182.026 13.128 182.754 11.658 184.21 10.622C185.694 9.586 187.626 9.068 190.006 9.068C191.294 9.068 192.498 9.208 193.618 9.488C194.738 9.74 195.802 10.104 196.81 10.58L195.592 13.52C195.004 13.24 194.388 13.002 193.744 12.806C193.1 12.582 192.442 12.414 191.77 12.302C191.126 12.162 190.468 12.092 189.796 12.092C188.424 12.092 187.374 12.344 186.646 12.848C185.918 13.324 185.554 13.982 185.554 14.822C185.554 15.438 185.722 15.97 186.058 16.418C186.394 16.866 186.94 17.3 187.696 17.72C188.48 18.112 189.544 18.574 190.888 19.106C192.232 19.638 193.38 20.184 194.332 20.744C195.284 21.304 195.998 21.99 196.474 22.802C196.978 23.586 197.23 24.58 197.23 25.784Z" fill="#2AA7DF"/>
</svg>
